<?xml version="1.0" encoding="UTF-8" standalone="no"?>
<svg
   xmlns:dc="http://purl.org/dc/elements/1.1/"
   xmlns:cc="http://creativecommons.org/ns#"
   xmlns:rdf="http://www.w3.org/1999/02/22-rdf-syntax-ns#"
   xmlns:svg="http://www.w3.org/2000/svg"
   xmlns="http://www.w3.org/2000/svg"
   xmlns:sodipodi="http://sodipodi.sourceforge.net/DTD/sodipodi-0.dtd"
   xmlns:inkscape="http://www.inkscape.org/namespaces/inkscape"
   inkscape:version="1.0 (4035a4fb49, 2020-05-01)"
   sodipodi:docname="tweak-drawing.svg"
   id="svg1543"
   version="1.1"
   viewBox="0 0 210 297"
   height="297mm"
   width="210mm">
  <defs
     id="defs1537" />
  <sodipodi:namedview
     inkscape:snap-global="false"
     inkscape:window-maximized="0"
     inkscape:window-y="0"
     inkscape:window-x="-7"
     inkscape:window-height="688"
     inkscape:window-width="1278"
     showgrid="false"
     inkscape:document-rotation="0"
     inkscape:current-layer="g5152"
     inkscape:document-units="mm"
     inkscape:cy="297.28161"
     inkscape:cx="287.1779"
     inkscape:zoom="0.98994949"
     inkscape:pageshadow="2"
     inkscape:pageopacity="0.0"
     borderopacity="1.0"
     bordercolor="#666666"
     pagecolor="#ffffff"
     id="base" />
  <metadata
     id="metadata1540">
    <rdf:RDF>
      <cc:Work
         rdf:about="">
        <dc:format>image/svg+xml</dc:format>
        <dc:type
           rdf:resource="http://purl.org/dc/dcmitype/StillImage" />
        <dc:title></dc:title>
      </cc:Work>
    </rdf:RDF>
  </metadata>
  <g
     id="layer1"
     inkscape:groupmode="layer"
     inkscape:label="Layer 1">
    <path
       id="path4950-9"
       style="fill:#916f7c;fill-opacity:0.996078;stroke-width:0.949264;stroke-linecap:square;stroke-miterlimit:4;stroke-dasharray:none"
       d="m 62.332529,40.158011 c 2.13075,0.816889 4.43778,0.727426 6.6313,0.543757 1.20853,-0.118346 2.42522,-0.697632 2.944,-1.819109 1.18988,-3.598422 -2.22397,-9.494261 -4.36307,-11.754003 -2.11659,-2.005171 -4.9722,1.376488 -6.49869,3.434702 -2.85124,3.844442 -5.06321,7.103381 1.28646,9.594653 z"
       sodipodi:nodetypes="ccccsc" />
    <path
       id="path4950-0-2-6"
       style="fill:#916f7c;fill-opacity:0.996078;stroke-width:0.949264;stroke-linecap:square;stroke-miterlimit:4;stroke-dasharray:none"
       d="m 111.22255,105.60409 c 1.86612,1.31338 4.12495,1.79104 6.29675,2.14961 1.20075,0.18091 2.52219,-0.0831 3.29958,-1.04357 2.03408,-3.19797 0.16642,-9.749845 -1.35483,-12.464245 -1.56169,-2.46207 -5.15785,0.11819 -7.1415,1.7404 -3.70516,3.03004 -6.64721,5.648785 -1.1,9.617805 z"
       sodipodi:nodetypes="ccccsc" />
    <path
       sodipodi:nodetypes="ccccsc"
       d="m 94.884899,92.651815 c 1.13558,1.97936 2.98046,3.36748 4.79684,4.61089 1.011571,0.67175 2.320681,0.99136 3.431321,0.44978 3.19568,-2.03767 4.27413,-8.764644 4.04357,-11.867708 -0.37392,-2.89151 -4.72388,-2.074222 -7.207451,-1.44313 -4.63895,1.178783 -8.41245,2.307571 -5.06428,8.250168 z"
       style="fill:#916f7c;fill-opacity:0.996078;stroke-width:0.949264;stroke-linecap:square;stroke-miterlimit:4;stroke-dasharray:none"
       id="path4950-0-2" />
    <path
       id="path4950-0"
       style="fill:#916f7c;fill-opacity:0.996078;stroke-width:0.949264;stroke-linecap:square;stroke-miterlimit:4;stroke-dasharray:none"
       d="m 79.690539,57.08501 c 0.0888,2.280245 1.08016,4.365358 2.11333,6.309023 0.58499,1.064104 1.59685,1.954085 2.83201,1.988959 3.77614,-0.324364 7.8497,-5.785265 9.08367,-8.641746 1.00888,-2.735473 -3.22442,-4.027478 -5.71762,-4.619404 -4.65692,-1.105629 -8.5238,-1.854427 -8.31139,4.963168 z"
       sodipodi:nodetypes="ccccsc" />
    <path
       sodipodi:nodetypes="ccccsc"
       d="m 73.499519,42.742352 c 0.41639,2.243663 1.69774,4.164225 3.00013,5.938784 0.73218,0.968734 1.86169,1.70367 3.08899,1.560251 3.69003,-0.864951 6.93443,-6.855706 7.74405,-9.860154 0.6043,-2.852275 -3.77097,-3.520978 -6.32343,-3.747574 -4.76762,-0.423248 -8.70204,-0.607194 -7.50974,6.108693 z"
       style="fill:#916f7c;fill-opacity:0.996078;stroke-width:0.949265;stroke-linecap:square;stroke-miterlimit:4;stroke-dasharray:none"
       id="path4950" />
    <path
       d="m 79.656783,90.453022 c -2.665515,0.355888 -5.24194,1.513515 -7.195534,3.374546 -1.702027,1.625185 -2.847567,3.786246 -3.382893,6.068251 -0.800309,3.369821 -0.447347,6.977611 0.867375,10.172371 1.026337,2.51421 2.648146,4.76507 4.626039,6.61791 0.928788,0.85799 1.876351,1.70179 2.903357,2.4414 1.151366,0.76773 2.485046,1.19688 3.665831,1.91306 0.667126,0.38994 1.282803,0.86479 1.830592,1.40968 0.221969,0.20457 0.440092,0.41322 0.658116,0.62198 0.280316,0.44422 0.156366,0.99171 0.06821,1.47381 -0.443732,2.01662 -1.266293,3.94105 -1.541507,5.99602 -0.07105,1.00933 0.09058,2.07362 0.66611,2.92592 0.578821,0.69782 1.527402,0.97453 2.408425,0.93462 1.665264,0.007 3.297933,-0.69719 4.4983,-1.83987 1.622655,-1.43219 3.268036,-2.84018 4.838592,-4.32998 1.667883,-1.68772 3.09133,-3.60905 4.86665,-5.19181 0.596484,-0.55094 1.225274,-1.0842 1.695014,-1.75259 0.39758,-0.61394 0.51355,-1.40043 0.29398,-2.10004 -0.29125,-0.98263 -1.06511,-1.74397 -1.919848,-2.26715 -0.875294,-0.53999 -1.889265,-0.79178 -2.89651,-0.94391 -0.428096,-0.0683 -0.85734,-0.12923 -1.286142,-0.19295 -0.299098,-0.0913 -0.418661,-0.49256 -0.259416,-0.74982 0.638805,-1.58713 1.328232,-3.17728 1.603301,-4.87741 0.163817,-1.02021 0.189262,-2.05842 0.157281,-3.08953 -0.173381,-4.16108 -1.895329,-8.235649 -4.754803,-11.26318 -1.879203,-2.036549 -4.243842,-3.645551 -6.876118,-4.532956 -1.778154,-0.597969 -3.662871,-0.835139 -5.534404,-0.818372 z"
       style="fill:#e19191;fill-opacity:0.996078;stroke-width:0.79375;stroke-linecap:square;stroke-miterlimit:4;stroke-dasharray:none"
       id="path4915-2" />
    <path
       d="m 34.812872,83.560174 c -3.049949,0.109621 -5.875053,2.545292 -6.335927,5.578985 -0.388551,2.205156 0.672521,4.551966 2.514275,5.800586 1.450342,1.06892 3.169828,1.67312 4.850651,2.27347 3.259148,1.04272 6.685181,1.56656 10.106785,1.55231 1.809468,0.003 3.608263,-0.24849 5.376372,-0.61859 2.493031,-0.4726 5.011401,-1.19563 7.102891,-2.68314 0.95146,-0.67352 1.87841,-1.55733 2.14231,-2.73624 0.21327,-0.95408 -0.0499,-2.03325 -0.79746,-2.691859 -1.04124,-1.03471 -2.54442,-1.402713 -3.96588,-1.509589 -2.00136,-0.172008 -4.018376,-0.112061 -6.01255,-0.378079 -2.178316,-0.258856 -4.314743,-0.853085 -6.312832,-1.758793 -2.267141,-0.969818 -4.456268,-2.200101 -6.890431,-2.710263 -0.588828,-0.08242 -1.183238,-0.132614 -1.778204,-0.118798 z"
       style="fill:#e19191;fill-opacity:0.996078;stroke-width:0.79375;stroke-linecap:square;stroke-miterlimit:4;stroke-dasharray:none"
       id="path4913" />
    <path
       sodipodi:nodetypes="ccccsc"
       d="m 131.69725,107.00616 c 2.01987,-0.22528 3.80446,-1.20538 5.46051,-2.21175 0.9053,-0.56744 1.62662,-1.48649 1.57288,-2.53931 -0.54727,-3.190375 -5.67869,-6.296355 -8.30129,-7.158285 -2.49966,-0.67842 -3.35715,3.00693 -3.71203,5.166325 -0.66285,4.0334 -1.06285,7.37143 4.97993,6.74302 z"
       style="fill:#916f7c;fill-opacity:0.996078;stroke-width:0.827648;stroke-linecap:square;stroke-miterlimit:4;stroke-dasharray:none"
       id="path4950-0-2-6-5" />
    <path
       sodipodi:nodetypes="ccccccszccccscccc"
       d="m 63.770929,33.884384 c -9.49269,1.0253 -19.110164,1.985549 -28.279165,4.748011 -8.44311,2.340351 -14.804315,10.19683 -15.080651,18.98346 -0.830856,8.209761 3.054098,16.73366 10.316757,20.873172 4.285938,2.956022 9.53189,3.991469 14.659687,4.017711 -0.402884,7.249004 1.187759,14.697677 4.572156,21.210812 2.528578,5.8716 5.638356,9.42989 11.884736,11.93646 5.97563,2.39792 12.11249,2.99037 19.729,3.97009 7.61651,0.97971 15.94063,-0.89478 24.369081,-1.1669 12.78228,-0.74286 26.14384,-2.92436 36.837,-10.42259 3.39997,-2.72866 6.97859,-7.39457 5.38573,-11.926115 -4.92326,-2.6055 -9.92966,3.47637 -15.11335,4.039745 -8.19325,3.00035 -17.46052,2.62377 -24.78547,-2.562405 -4.52888,-3.20651 -8.843941,-7.400815 -12.231491,-11.739553 -4.65564,-5.241483 -8.43964,-11.606019 -8.45841,-18.819685 -0.98049,-10.269657 -3.78792,-21.461039 -11.92451,-28.449434 -3.34001,-2.706706 -7.49039,-4.785643 -11.8811,-4.692779 z"
       style="fill:#e9afaf;fill-opacity:0.996078;stroke-width:0.79375;stroke-linecap:square;stroke-miterlimit:4;stroke-dasharray:none"
       id="path4907" />
    <ellipse
       ry="9.5000095"
       rx="8.8652439"
       style="fill:#df8989;fill-opacity:0.996078;stroke-width:0.794721;stroke-linecap:square;stroke-miterlimit:4;stroke-dasharray:none"
       id="path4905-6"
       cx="67.265518"
       cy="46.677197" />
    <circle
       r="9.1659222"
       cy="45.841076"
       cx="65.740173"
       id="path4905"
       style="fill:#ffffff;fill-opacity:0.996078;stroke-width:0.79375;stroke-linecap:square;stroke-miterlimit:4;stroke-dasharray:none" />
    <path
       d="m 87.726575,69.451204 c -0.689758,1.772529 -1.536806,3.482084 -2.699062,4.995561 -1.51964,2.175888 -3.237077,4.238397 -4.400246,6.640423 -0.528711,1.601821 0.09213,3.425613 1.293977,4.558895 1.358889,1.272212 3.360854,1.683927 5.159375,1.343586 2.35195,-0.401559 4.443039,-1.618981 6.517949,-2.729551 0.250711,-0.136159 0.498835,-0.277473 0.746207,-0.420129 -3.348813,-4.204049 -5.980403,-9.041021 -6.6182,-14.388785 z"
       style="fill:#df8989;fill-opacity:1;stroke-width:0.79375;stroke-linecap:square;stroke-miterlimit:4;stroke-dasharray:none"
       id="path4911-2" />
    <path
       d="m 92.817799,64.329703 c -1.52191,1.419667 -2.36881,3.360481 -3.27081,5.195019 -1.1826,2.527294 -2.5593,5.021568 -4.55068,7.008544 -1.79207,1.957621 -3.7651,3.777406 -5.23346,6.005993 -0.73437,1.518572 -0.35867,3.40757 0.68408,4.688782 1.18017,1.43956 3.11093,2.11071 4.93856,2.009367 2.38431,-0.08936 4.61701,-1.02167 6.81973,-1.850309 2.62026,-1.00397 5.13287,-2.334521 7.31564,-4.109425 2.426441,-1.935856 4.592401,-4.221921 6.282241,-6.831209 0.93147,-1.451835 1.68198,-3.088357 1.74903,-4.837688 0.1888,-3.069115 -1.23566,-6.249459 -3.80151,-7.99054 -1.8631,-1.260614 -4.238611,-1.583441 -6.428041,-1.218241 -1.62938,0.261611 -3.19457,0.924418 -4.50478,1.929707 z"
       style="fill:#e9afaf;fill-opacity:0.996078;stroke-width:0.79375;stroke-linecap:square;stroke-miterlimit:4;stroke-dasharray:none"
       id="path4911" />
    <circle
       r="2.80633"
       cy="47.345367"
       cx="68.835724"
       id="path5030"
       style="fill:#916f7c;fill-opacity:0.996078;stroke-width:0.79375;stroke-linecap:square;stroke-miterlimit:4;stroke-dasharray:none" />
    <g
       style="opacity:1"
       id="g5152">
      <path
         id="path5154"
         d="m 38.081101,81.453868 c 0,0 12.756695,-2.456847 18.331848,-9.827382"
         style="color:#000000;font-style:normal;font-variant:normal;font-weight:normal;font-stretch:normal;font-size:medium;line-height:normal;font-family:sans-serif;font-variant-ligatures:normal;font-variant-position:normal;font-variant-caps:normal;font-variant-numeric:normal;font-variant-alternates:normal;font-variant-east-asian:normal;font-feature-settings:normal;font-variation-settings:normal;text-indent:0;text-align:start;text-decoration:none;text-decoration-line:none;text-decoration-style:solid;text-decoration-color:#000000;letter-spacing:normal;word-spacing:normal;text-transform:none;writing-mode:lr-tb;direction:ltr;text-orientation:mixed;dominant-baseline:auto;baseline-shift:baseline;text-anchor:start;white-space:normal;shape-padding:0;shape-margin:0;inline-size:0;clip-rule:nonzero;display:inline;overflow:visible;visibility:visible;isolation:auto;mix-blend-mode:normal;color-interpolation:sRGB;color-interpolation-filters:linearRGB;solid-color:#000000;solid-opacity:1;vector-effect:none;fill:#000000;fill-opacity:0;fill-rule:nonzero;stroke:none;stroke-width:1.065;stroke-linecap:butt;stroke-linejoin:miter;stroke-miterlimit:4;stroke-dasharray:none;stroke-dashoffset:0;stroke-opacity:1;color-rendering:auto;image-rendering:auto;shape-rendering:auto;text-rendering:auto;enable-background:accumulate;stop-color:#000000;stop-opacity:1" />
      <path
         sodipodi:nodetypes="cccsccsccc"
         d="m 53.738341,67.052957 0.302667,2.184252 c 0.420434,0.911508 0.67926,1.662891 1.629643,2.461403 -2.713897,3.337232 -7.016708,5.650108 -10.710458,7.109645 -3.838601,1.516772 -8.316798,2.457471 -8.316798,2.457471 l 0.887963,0.276498 c 0,0 4.974722,-0.850506 8.908256,-2.40479 3.79984,-1.501458 7.424372,-3.066542 10.3282,-6.667664 2.282921,1.090552 2.932597,1.168733 5.453653,0.802714 -3.627543,-0.364453 -7.099662,-2.627109 -8.483126,-6.219529 z"
         style="color:#000000;font-style:normal;font-variant:normal;font-weight:normal;font-stretch:normal;font-size:medium;line-height:normal;font-family:sans-serif;font-variant-ligatures:normal;font-variant-position:normal;font-variant-caps:normal;font-variant-numeric:normal;font-variant-alternates:normal;font-variant-east-asian:normal;font-feature-settings:normal;font-variation-settings:normal;text-indent:0;text-align:start;text-decoration:none;text-decoration-line:none;text-decoration-style:solid;text-decoration-color:#000000;letter-spacing:normal;word-spacing:normal;text-transform:none;writing-mode:lr-tb;direction:ltr;text-orientation:mixed;dominant-baseline:auto;baseline-shift:baseline;text-anchor:start;white-space:normal;shape-padding:0;shape-margin:0;inline-size:0;clip-rule:nonzero;display:inline;overflow:visible;visibility:visible;isolation:auto;mix-blend-mode:normal;color-interpolation:sRGB;color-interpolation-filters:linearRGB;solid-color:#000000;solid-opacity:1;vector-effect:none;fill:#aa6969;fill-opacity:1;fill-rule:nonzero;stroke:none;stroke-width:1.065;stroke-linecap:butt;stroke-linejoin:miter;stroke-miterlimit:4;stroke-dasharray:none;stroke-dashoffset:0;stroke-opacity:1;color-rendering:auto;image-rendering:auto;shape-rendering:auto;text-rendering:auto;enable-background:accumulate;stop-color:#000000;stop-opacity:1"
         id="path5156" />
      <path
         sodipodi:nodetypes="ccsccccccscccccccccsccccccsccscsscccc"
         d="m 128.45169,28.492743 c -2.57685,0.01988 -4.79154,1.744792 -5.32197,4.14502 -0.87653,-0.654834 -1.95857,-1.010761 -3.07286,-1.01078 -1.16896,3e-6 -2.30061,0.391634 -3.19659,1.10624 -0.74485,0.273662 -1.37461,0.772659 -1.79242,1.42024 -0.15313,-0.02027 -0.30755,-0.03047 -0.46216,-0.0305 -1.513,2.02e-4 -2.83924,0.962902 -3.23967,2.35164 -0.64449,-0.585775 -1.50132,-0.912671 -2.39246,-0.91276 -1.91363,-9.9e-5 -3.46498,1.476426 -3.46495,3.29783 -3e-5,1.821404 1.55132,3.297929 3.46495,3.29783 1.58394,-7.3e-5 2.96615,-1.02251 3.35729,-2.48342 0.17037,0.149204 0.35648,0.281249 0.55537,0.39403 -0.68527,0.725757 -1.0644,1.667059 -1.06445,2.64284 -3e-5,2.183816 1.85995,3.954154 4.15434,3.95412 2.29439,3.9e-5 4.15438,-1.7703 4.15435,-3.95412 -4e-5,-0.557689 -0.12403,-1.109062 -0.36382,-1.61791 0.0966,0.0054 0.19342,0.008 0.29022,0.008 0.27874,-9.2e-5 0.55697,-0.02247 0.83177,-0.0669 -0.27477,0.632799 -0.41618,1.310829 -0.4162,1.99554 7e-5,2.885598 2.45772,5.224828 5.48942,5.22492 3.03183,7.7e-5 5.48967,-2.339203 5.48974,-5.22492 -4e-5,-1.629298 -0.7986,-3.165321 -2.15945,-4.1537 2.69221,-0.376076 4.68752,-2.574267 4.68755,-5.16418 -7e-5,-2.882683 -2.45532,-5.219509 -5.48396,-5.21945 -0.0147,-5.6e-5 -0.0293,-5.6e-5 -0.044,0 z m 7.72161,5.11564 c -3.64773,0 -6.58986,2.675129 -6.58987,5.93551 -9e-5,3.278271 2.97321,5.935872 6.64098,5.93585 3.66777,2.2e-5 6.64107,-2.657579 6.64098,-5.93585 -1.2e-4,-3.278139 -2.97336,-5.935532 -6.64098,-5.93551 -0.017,-5.9e-5 -0.0341,0 -0.0511,0 z m -11.31705,4.00811 c 0.10043,0.0848 0.2041,0.166062 0.31079,0.24362 -0.13914,0.01947 -0.27744,0.04402 -0.4146,0.0736 0.0385,-0.104552 0.0731,-0.210357 0.10381,-0.31722 z"
         style="opacity:1;fill:#e6e6e6;fill-opacity:0.996078;stroke:none;stroke-width:0.456248;stroke-linecap:square;stroke-miterlimit:4;stroke-dasharray:none;stroke-opacity:1"
         id="path5165" />
    </g>
    <g
       transform="translate(-46.491071,-9.4494048)"
       style="opacity:1"
       id="g5158">
      <path
         id="path5160"
         d="m 100.58178,78.263015 c 0.84125,1.823838 2.87779,3.878925 6.04566,4.212108"
         style="color:#000000;font-style:normal;font-variant:normal;font-weight:normal;font-stretch:normal;font-size:medium;line-height:normal;font-family:sans-serif;font-variant-ligatures:normal;font-variant-position:normal;font-variant-caps:normal;font-variant-numeric:normal;font-variant-alternates:normal;font-variant-east-asian:normal;font-feature-settings:normal;font-variation-settings:normal;text-indent:0;text-align:start;text-decoration:none;text-decoration-line:none;text-decoration-style:solid;text-decoration-color:#000000;letter-spacing:normal;word-spacing:normal;text-transform:none;writing-mode:lr-tb;direction:ltr;text-orientation:mixed;dominant-baseline:auto;baseline-shift:baseline;text-anchor:start;white-space:normal;shape-padding:0;shape-margin:0;inline-size:0;clip-rule:nonzero;display:inline;overflow:visible;visibility:visible;isolation:auto;mix-blend-mode:normal;color-interpolation:sRGB;color-interpolation-filters:linearRGB;solid-color:#000000;solid-opacity:1;vector-effect:none;fill:#000000;fill-opacity:0;fill-rule:nonzero;stroke:none;stroke-width:1.065;stroke-linecap:butt;stroke-linejoin:miter;stroke-miterlimit:4;stroke-dasharray:none;stroke-dashoffset:0;stroke-opacity:1;color-rendering:auto;image-rendering:auto;shape-rendering:auto;text-rendering:auto;enable-background:accumulate;stop-color:#000000;stop-opacity:1" />
    </g>
    <path
       sodipodi:nodetypes="cccc"
       id="path5051"
       d="m 45.138832,82.385799 c 18.360347,0.69686 22.019297,-4.357716 25.017487,-6.248841 -6.22687,7.533236 -11.22509,8.271712 -24.864741,9.327483 z"
       style="fill:#df8989;fill-opacity:1;stroke:none;stroke-width:0.24633px;stroke-linecap:butt;stroke-linejoin:miter;stroke-opacity:1" />
    <ellipse
       ry="4.5357141"
       rx="5.2444196"
       cy="61.326633"
       cx="69.500389"
       id="path5053"
       style="opacity:0.41791;fill:#df8989;fill-opacity:1;stroke:none;stroke-width:1.065;stroke-linecap:square;stroke-miterlimit:4;stroke-dasharray:none;stroke-opacity:1" />
    <ellipse
       ry="1.984375"
       rx="1.6063988"
       cy="60.098217"
       cx="31.088541"
       id="path5055"
       style="opacity:1;fill:#72565f;fill-opacity:0.996078;stroke:none;stroke-width:1.065;stroke-linecap:square;stroke-miterlimit:4;stroke-dasharray:none;stroke-opacity:1" />
    <path
       sodipodi:nodetypes="cccssccsssc"
       d="m 55.538433,82.017912 c -3.150893,0.576562 -5.287446,0.502735 -10.418146,0.488826 0.26529,8.117631 1.455203,14.697461 4.8396,21.210592 2.528578,5.8716 5.638168,9.43017 11.884546,11.93674 5.97563,2.39792 12.112519,2.99006 19.729029,3.96978 7.61651,0.97971 15.940603,-0.89473 24.369058,-1.16685 10.14674,-0.58969 20.65701,-2.089 29.90928,-6.43165 -2.71135,0.35511 -6.23626,0.8659 -10.48876,1.603 -10.0226,1.73725 -32.072079,-1.60352 -39.154718,-2.93987 C 79.12568,109.35213 61.724479,99.556332 59.58632,96.215462 57.448159,92.874597 55.538433,82.017912 55.538433,82.017912 Z"
       style="opacity:0.36194;fill:#f4d7e3;fill-opacity:1;stroke:none;stroke-width:0.264583px;stroke-linecap:butt;stroke-linejoin:miter;stroke-opacity:1"
       id="path5134" />
    <path
       sodipodi:nodetypes="cccccsccccccccc"
       d="m 66.873067,94.39025 -0.409795,0.04961 c -2.081919,0.292021 -4.091855,1.164362 -5.678207,2.551784 -1.31989,1.14834 -2.356839,2.61633 -3.010151,4.238496 -1.334662,3.75834 -1.283049,8.18128 -0.719704,11.89873 1.666121,1.43513 2.270903,1.51464 4.789223,2.5252 3.785015,1.51886 7.637693,2.3125 11.887131,2.93987 0.718664,-0.40831 1.423649,-0.83893 2.084626,-1.33842 0.665511,-0.49739 1.264496,-1.08147 1.779735,-1.73323 1.025711,-1.27276 1.794182,-2.74421 2.315623,-4.29069 0.670888,-2.03354 0.882753,-4.22643 0.553453,-6.34535 -0.335378,-2.08978 -1.252112,-4.09095 -2.6572,-5.678204 -1.020871,-1.16426 -2.29163,-2.09214 -3.666961,-2.795178 -1.780609,-0.934971 -3.72542,-1.544002 -5.71283,-1.839682 -0.51557,-0.0815 -1.035272,-0.135514 -1.554943,-0.182936 z"
       style="fill:#df8989;fill-opacity:1;stroke-width:0.79375;stroke-linecap:square;stroke-miterlimit:4;stroke-dasharray:none"
       id="path4915-4" />
    <path
       d="m 67.445539,96.459025 c -2.08192,0.29202 -4.09209,1.16448 -5.67844,2.5519 -1.31989,1.148345 -2.3568,2.616485 -3.01011,4.238655 -0.36655,0.89675 -0.593,1.84456 -0.72855,2.80225 -0.20007,1.39805 -0.30365,2.80763 -0.47043,4.20972 -0.11043,0.91263 -0.23976,1.82823 -0.49602,2.71296 -0.17306,0.59213 -0.42946,1.16061 -0.77706,1.67117 -0.52365,0.82118 -1.14649,1.57208 -1.73745,2.3445 -0.21105,0.2356 -0.60244,0.28373 -0.85178,0.0809 -0.966087,-0.61749 -1.912489,-1.26903 -2.922252,-1.81497 -0.823196,-0.45235 -1.690001,-0.82729 -2.591797,-1.09237 -1.356925,-0.43126 -2.792426,-0.70712 -4.219757,-0.55924 -1.019636,0.11628 -2.040096,0.49315 -2.790692,1.21088 -0.861176,0.84032 -1.211076,2.13636 -0.965499,3.30557 0.20646,1.08671 0.790358,2.05108 1.403616,2.95394 1.003687,1.44659 2.222901,2.72595 3.463294,3.96938 1.271539,1.26147 2.588385,2.47607 3.8962,3.69956 0.813165,0.74354 1.616639,1.50253 2.509502,2.15151 0.790284,0.59847 1.586309,1.19667 2.283435,1.90482 0.45785,0.43996 0.9088,0.91905 1.49733,1.18268 0.59711,0.22149 1.26747,0.0521 1.79628,-0.26583 0.93517,-0.53433 1.75697,-1.23684 2.61414,-1.88322 0.49167,-0.38236 0.98988,-0.75674 1.47883,-1.14231 0.84427,-0.74548 1.68252,-1.49766 2.51571,-2.25549 2.31621,-1.79527 4.61142,-3.61816 6.96044,-5.37065 0.55108,-0.41769 1.12817,-0.80023 1.73049,-1.14006 1.49274,-0.86234 3.06302,-1.60707 4.44348,-2.65026 0.66551,-0.49739 1.26444,-1.08193 1.77968,-1.73369 1.02571,-1.27276 1.79403,-2.74407 2.31547,-4.29055 0.67089,-2.03354 0.8826,-4.22637 0.5533,-6.34529 -0.33538,-2.08978 -1.25207,-4.09091 -2.65716,-5.67817 -1.02087,-1.16426 -2.29143,-2.092355 -3.66676,-2.795395 -1.78061,-0.93497 -3.72551,-1.54406 -5.71292,-1.83974 -0.51557,-0.0815 -1.03503,-0.13503 -1.5547,-0.18245 -0.13661,0.0164 -0.27322,0.0328 -0.40983,0.0492 z"
       style="fill:#e9afaf;fill-opacity:1;stroke-width:0.79375;stroke-linecap:square;stroke-miterlimit:4;stroke-dasharray:none"
       id="path4915" />
  </g>
</svg>
