<?xml version="1.0" encoding="UTF-8" standalone="no"?>
<svg
   xmlns:dc="http://purl.org/dc/elements/1.1/"
   xmlns:cc="http://creativecommons.org/ns#"
   xmlns:rdf="http://www.w3.org/1999/02/22-rdf-syntax-ns#"
   xmlns:svg="http://www.w3.org/2000/svg"
   xmlns="http://www.w3.org/2000/svg"
   xmlns:sodipodi="http://sodipodi.sourceforge.net/DTD/sodipodi-0.dtd"
   xmlns:inkscape="http://www.inkscape.org/namespaces/inkscape"
   width="210mm"
   height="297mm"
   viewBox="0 0 210 297"
   version="1.1"
   id="svg8"
   inkscape:version="1.0 (4035a4fb49, 2020-05-01)"
   sodipodi:docname="drawing-son-goku.svg">
  <title
     id="title913">BayuStudio Inkscape Tutorial #9</title>
  <defs
     id="defs2">
    <inkscape:path-effect
       effect="bspline"
       id="path-effect951"
       is_visible="true"
       lpeversion="1"
       weight="33.333333"
       steps="2"
       helper_size="0"
       apply_no_weight="true"
       apply_with_weight="true"
       only_selected="false" />
    <clipPath
       clipPathUnits="userSpaceOnUse"
       id="clipPath910">
      <path
         id="path912"
         style="fill:#ff0000;fill-opacity:1;fill-rule:nonzero;stroke:none"
         d="M 220,387.85742 V 506.42773 H 336.42773 V 387.85742 h -17.08789 c -0.22138,0.26284 -0.4338,0.5339 -0.67187,0.78125 -0.38816,0.40347 -0.81067,0.77089 -1.2168,1.15625 -0.41881,0.22383 -0.82542,0.47572 -1.25781,0.67188 -0.13973,0.0635 -0.29427,0.0902 -0.44727,0.10156 -0.0684,0.005 -0.14223,-0.089 -0.19921,-0.0508 -2.22541,1.49076 -3.34673,4.17443 -5.21094,6.00976 -1.04099,0.98892 -1.99412,2.07963 -3.12305,2.9668 -3.77755,2.96867 -9.34974,4.64274 -14.13477,4.21289 -1.27917,-0.1149 -2.526,-0.46445 -3.78906,-0.69726 -0.84837,-0.56123 -1.82077,-0.96923 -2.54492,-1.6836 -2.96751,-2.92743 -4.29462,-8.45158 -5.15039,-13.46875 z m 64.63086,0 c 0.42333,2.04445 0.9381,4.06829 1.62695,6.03906 0.6163,1.76319 1.53436,4.20509 3.07031,5.53125 0.44696,0.38589 1.07667,0.4843 1.61524,0.72657 0.86696,0.0616 1.73292,0.21578 2.60156,0.18554 2.80714,-0.0979 6.59497,-1.02087 9.07227,-2.34375 2.42376,-1.2943 2.92464,-2.27139 4.7539,-4.34961 1.62247,-1.87215 2.89763,-4.17588 4.82422,-5.78906 z" />
    </clipPath>
    <clipPath
       clipPathUnits="userSpaceOnUse"
       id="clipPath1018">
      <path
         id="path1020"
         style="fill:#ff0000;fill-opacity:1;fill-rule:nonzero;stroke:none;stroke-width:0.264583"
         d="m 72.567662,39.960867 v 17.364316 h 7.33909 c -0.132877,-0.506574 -0.265531,-1.013203 -0.398426,-1.519803 -0.375325,-1.430727 0.307705,0.206557 0.857311,1.519803 h 0.202054 L 80.05558,55.68859 c -0.07551,0.02178 -0.08112,0.01865 -0.0072,-0.02326 l 0.0072,0.02326 c 0.03481,-0.01003 0.04943,-0.01349 0.14056,-0.04237 0.176,-0.05579 0.344942,-0.135356 0.524515,-0.178284 0.846402,-0.202359 0.871582,-0.186585 1.702221,-0.104905 0.1418,0.01394 0.281908,0.04329 0.422714,0.06511 -0.469591,0.112456 0.598956,-0.07302 0.80822,-0.130741 0.803632,-0.221668 0.851807,-0.311841 1.634524,-0.453721 0.07434,-0.01344 0.150792,0.0011 0.226343,0.0016 0.171982,-0.06595 0.344266,-0.131968 0.516247,-0.197918 -0.0051,0.01643 -0.03239,0.05291 -0.0155,0.04961 0.062,-0.0122 0.156062,-0.141229 0.172082,-0.0801 0.0041,0.01564 -7.94e-4,0.02998 -0.0047,0.04444 0.07323,-0.151961 0.146394,-0.303826 0.219625,-0.455787 -0.03631,0.116978 -0.167317,0.458613 -0.109038,0.350885 0.06581,-0.121642 0.113851,-0.251867 0.160714,-0.382408 -0.0072,0.0034 -0.01283,0.0043 -0.01138,-0.0026 0.01093,-0.05141 0.05238,-0.139237 0.07028,-0.172083 0.03437,-0.221736 0.05728,-0.445151 0.08682,-0.66766 0.07305,-0.364302 0.146058,-0.728654 0.219109,-1.092957 0.07928,-0.304704 0.298527,-1.264065 0.513662,-1.749763 l -0.07855,-0.132808 c -0.06296,-0.321106 -0.18292,-0.636082 -0.188619,-0.96325 -0.0084,-0.477507 0.09323,-0.937937 0.254246,-1.382861 -0.237768,-0.03904 -0.474083,-0.08481 -0.706417,-0.149346 -0.109309,-0.03036 -0.03852,-0.223933 -0.04857,-0.336929 -0.01831,-0.205501 -0.03198,-0.411779 -0.03617,-0.61805 -0.02249,-1.102128 0.04451,-2.204167 0.218591,-3.293341 0.195744,-1.224687 0.879115,-1.778391 1.506884,-1.752346 0.509772,0.02114 0.981988,0.425522 1.12758,1.163236 0.133297,-0.247753 0.261691,-0.522783 0.495578,-0.481108 0.01871,0.0033 0.03624,0.01013 0.05478,0.01394 V 39.96083 Z m 13.945405,14.038422 c -0.0013,0.0078 -0.0024,0.0155 -0.0036,0.02326 0.0061,-0.01617 0.01185,-0.0325 0.0181,-0.04858 0.0069,-0.01773 -0.008,0.01344 -0.01447,0.02532 z m -0.0036,0.02326 c -0.01881,0.05028 -0.03712,0.100801 -0.05529,0.15141 0.01413,-0.0066 0.03669,-0.02662 0.03928,-0.04031 0.0069,-0.03682 0.01011,-0.07413 0.01601,-0.111103 z m 3.422531,-5.327841 c -0.08865,0.205886 -0.169505,0.415108 -0.225825,0.631486 -0.1413,0.542812 0.0047,0.343395 0.101286,0.239261 -0.01132,-0.05749 -0.09253,-0.168098 -0.03411,-0.172599 0.06773,-0.0052 0.09325,0.102561 0.117822,0.165881 0.01228,0.03161 0.02723,0.0635 0.04082,0.09509 z m 0,2.538346 c -0.120237,0.32107 -0.261358,0.641771 -0.342614,0.907439 -0.07504,0.245343 -0.118864,0.499206 -0.178285,0.74879 -0.222985,0.735814 -0.164793,1.498078 -0.462504,2.211752 -0.06154,0.147511 -0.08769,0.468215 -0.238745,0.415994 -0.0035,-0.0013 -0.0053,-0.0039 -0.0083,-0.0057 -0.03895,0.08054 -0.07949,0.160239 -0.119372,0.240294 0.198533,-0.07055 0.261433,-0.103939 -0.223242,0.464055 -0.285345,0.334399 -0.675904,0.674955 -1.097608,0.845426 -0.824643,0.333357 -0.440896,0.03694 -0.694015,0.240813 -0.04906,0.0053 -0.09698,0.0163 -0.145727,0.02326 h 3.51038 z m -3.774445,3.480409 c -0.03364,0.04643 -0.08328,0.09151 -0.100254,0.143658 -0.01693,0.05205 0.06386,-0.08924 0.0956,-0.133842 0.0016,-0.0033 0.0031,-0.0066 0.0047,-0.0098 z" />
    </clipPath>
    <clipPath
       id="clipPath1018-9"
       clipPathUnits="userSpaceOnUse">
      <path
         d="m 72.567662,39.960867 v 17.364316 h 7.33909 c -0.132877,-0.506574 -0.265531,-1.013203 -0.398426,-1.519803 -0.375325,-1.430727 0.307705,0.206557 0.857311,1.519803 h 0.202054 L 80.05558,55.68859 c -0.07551,0.02178 -0.08112,0.01865 -0.0072,-0.02326 l 0.0072,0.02326 c 0.03481,-0.01003 0.04943,-0.01349 0.14056,-0.04237 0.176,-0.05579 0.344942,-0.135356 0.524515,-0.178284 0.846402,-0.202359 0.871582,-0.186585 1.702221,-0.104905 0.1418,0.01394 0.281908,0.04329 0.422714,0.06511 -0.469591,0.112456 0.598956,-0.07302 0.80822,-0.130741 0.803632,-0.221668 0.851807,-0.311841 1.634524,-0.453721 0.07434,-0.01344 0.150792,0.0011 0.226343,0.0016 0.171982,-0.06595 0.344266,-0.131968 0.516247,-0.197918 -0.0051,0.01643 -0.03239,0.05291 -0.0155,0.04961 0.062,-0.0122 0.156062,-0.141229 0.172082,-0.0801 0.0041,0.01564 -7.94e-4,0.02998 -0.0047,0.04444 0.07323,-0.151961 0.146394,-0.303826 0.219625,-0.455787 -0.03631,0.116978 -0.167317,0.458613 -0.109038,0.350885 0.06581,-0.121642 0.113851,-0.251867 0.160714,-0.382408 -0.0072,0.0034 -0.01283,0.0043 -0.01138,-0.0026 0.01093,-0.05141 0.05238,-0.139237 0.07028,-0.172083 0.03437,-0.221736 0.05728,-0.445151 0.08682,-0.66766 0.07305,-0.364302 0.146058,-0.728654 0.219109,-1.092957 0.07928,-0.304704 0.298527,-1.264065 0.513662,-1.749763 l -0.07855,-0.132808 c -0.06296,-0.321106 -0.18292,-0.636082 -0.188619,-0.96325 -0.0084,-0.477507 0.09323,-0.937937 0.254246,-1.382861 -0.237768,-0.03904 -0.474083,-0.08481 -0.706417,-0.149346 -0.109309,-0.03036 -0.03852,-0.223933 -0.04857,-0.336929 -0.01831,-0.205501 -0.03198,-0.411779 -0.03617,-0.61805 -0.02249,-1.102128 0.04451,-2.204167 0.218591,-3.293341 0.195744,-1.224687 0.879115,-1.778391 1.506884,-1.752346 0.509772,0.02114 0.981988,0.425522 1.12758,1.163236 0.133297,-0.247753 0.261691,-0.522783 0.495578,-0.481108 0.01871,0.0033 0.03624,0.01013 0.05478,0.01394 V 39.96083 Z m 13.945405,14.038422 c -0.0013,0.0078 -0.0024,0.0155 -0.0036,0.02326 0.0061,-0.01617 0.01185,-0.0325 0.0181,-0.04858 0.0069,-0.01773 -0.008,0.01344 -0.01447,0.02532 z m -0.0036,0.02326 c -0.01881,0.05028 -0.03712,0.100801 -0.05529,0.15141 0.01413,-0.0066 0.03669,-0.02662 0.03928,-0.04031 0.0069,-0.03682 0.01011,-0.07413 0.01601,-0.111103 z m 3.422531,-5.327841 c -0.08865,0.205886 -0.169505,0.415108 -0.225825,0.631486 -0.1413,0.542812 0.0047,0.343395 0.101286,0.239261 -0.01132,-0.05749 -0.09253,-0.168098 -0.03411,-0.172599 0.06773,-0.0052 0.09325,0.102561 0.117822,0.165881 0.01228,0.03161 0.02723,0.0635 0.04082,0.09509 z m 0,2.538346 c -0.120237,0.32107 -0.261358,0.641771 -0.342614,0.907439 -0.07504,0.245343 -0.118864,0.499206 -0.178285,0.74879 -0.222985,0.735814 -0.164793,1.498078 -0.462504,2.211752 -0.06154,0.147511 -0.08769,0.468215 -0.238745,0.415994 -0.0035,-0.0013 -0.0053,-0.0039 -0.0083,-0.0057 -0.03895,0.08054 -0.07949,0.160239 -0.119372,0.240294 0.198533,-0.07055 0.261433,-0.103939 -0.223242,0.464055 -0.285345,0.334399 -0.675904,0.674955 -1.097608,0.845426 -0.824643,0.333357 -0.440896,0.03694 -0.694015,0.240813 -0.04906,0.0053 -0.09698,0.0163 -0.145727,0.02326 h 3.51038 z m -3.774445,3.480409 c -0.03364,0.04643 -0.08328,0.09151 -0.100254,0.143658 -0.01693,0.05205 0.06386,-0.08924 0.0956,-0.133842 0.0016,-0.0033 0.0031,-0.0066 0.0047,-0.0098 z"
         style="fill:#ff0000;fill-opacity:1;fill-rule:nonzero;stroke:none;stroke-width:0.264583"
         id="path1020-1" />
    </clipPath>
  </defs>
  <sodipodi:namedview
     id="base"
     pagecolor="#ffffff"
     bordercolor="#666666"
     borderopacity="1.0"
     inkscape:pageopacity="0.0"
     inkscape:pageshadow="2"
     inkscape:zoom="0.98994949"
     inkscape:cx="251.88799"
     inkscape:cy="75.483551"
     inkscape:document-units="mm"
     inkscape:current-layer="layer1"
     inkscape:document-rotation="0"
     showgrid="false"
     inkscape:snap-global="false"
     inkscape:window-width="1278"
     inkscape:window-height="688"
     inkscape:window-x="-7"
     inkscape:window-y="0"
     inkscape:window-maximized="0" />
  <metadata
     id="metadata5">
    <rdf:RDF>
      <cc:Work
         rdf:about="">
        <dc:format>image/svg+xml</dc:format>
        <dc:type
           rdf:resource="http://purl.org/dc/dcmitype/StillImage" />
        <dc:title>BayuStudio Inkscape Tutorial #9</dc:title>
        <dc:creator>
          <cc:Agent>
            <dc:title>BayuStudio</dc:title>
          </cc:Agent>
        </dc:creator>
        <cc:license
           rdf:resource="http://creativecommons.org/licenses/by-sa/4.0/" />
        <dc:description>Son Goku fan art for educational purpose. Original character owned by its copyright holder.</dc:description>
      </cc:Work>
      <cc:License
         rdf:about="http://creativecommons.org/licenses/by-sa/4.0/">
        <cc:permits
           rdf:resource="http://creativecommons.org/ns#Reproduction" />
        <cc:permits
           rdf:resource="http://creativecommons.org/ns#Distribution" />
        <cc:requires
           rdf:resource="http://creativecommons.org/ns#Notice" />
        <cc:requires
           rdf:resource="http://creativecommons.org/ns#Attribution" />
        <cc:permits
           rdf:resource="http://creativecommons.org/ns#DerivativeWorks" />
        <cc:requires
           rdf:resource="http://creativecommons.org/ns#ShareAlike" />
      </cc:License>
    </rdf:RDF>
  </metadata>
  <g
     inkscape:label="Layer 1"
     inkscape:groupmode="layer"
     id="layer1">
    <path
       style="fill:#000000;stroke:#000000;stroke-width:0.264583px;stroke-linecap:butt;stroke-linejoin:miter;stroke-opacity:1"
       d="m 52.160714,50.837798 c -5.160864,0.02932 -9.670265,-4.501601 -14.363096,-7.748514 l 9.07143,-0.94494 c 0,0 -10.772321,-3.779761 -15.686013,-8.315475 -4.19835,-3.875399 -6.614583,-9.260417 -6.614583,-9.260417 L 44.034225,27.59226 C 32.703958,17.23019 29.007958,12.6035 19.719613,-0.88795768 L 44.666041,1.7578755 C 41.317322,-3.7781943 41.1141,-7.5149923 34.271696,-13.55016 l -8.693452,-7.9375 c 11.087301,-1.782199 22.174602,2.721388 33.261903,6.236607 l 5.291667,3.02381 -9.449403,-19.276786 25.702378,16.252977 c 0.153686,-1.844226 35.044291,-5.214896 43.591401,19.7867662 10.94945,2.8759667 22.43272,2.0068815 32.40868,0.5021139 -6.75985,6.8884289 -15.17214,12.6833719 -23.90422,18.5856839 9.00135,1.805643 16.02129,-2.332985 23.62352,-4.724702 -5.97182,7.895841 -12.39519,15.039115 -21.35566,17.953869 l 12.47322,-0.944941 -25.32441,15.686012 z"
       id="path1124"
       sodipodi:nodetypes="cccscccccccccccccccccc" />
    <path
       style="fill:#ffffff;stroke:#000000;stroke-width:0.79375;stroke-linecap:butt;stroke-linejoin:miter;stroke-miterlimit:4;stroke-dasharray:none;stroke-opacity:1"
       d="m 59.601105,42.36222 c 0,0 -1.870888,-3.207234 -4.276313,-2.672696 -2.405427,0.53454 -3.608138,7.082644 -3.608138,7.082644 0.04216,2.939964 0.260582,5.879929 2.405425,8.819893 0,0 3.340869,2.80633 5.612659,3.073599 2.271791,0.267271 3.34087,-1.202712 3.34087,-1.202712"
       id="path1092"
       sodipodi:nodetypes="csccsc" />
    <path
       sodipodi:nodetypes="csccsc"
       id="path1092-0"
       d="m 123.37724,42.362221 c 0,0 1.87089,-3.207234 4.27632,-2.672696 2.40542,0.53454 3.60814,7.082644 3.60814,7.082644 -0.0422,2.939964 -0.26059,5.879929 -2.40543,8.819893 0,0 -3.34087,2.80633 -5.61266,3.073599 -2.2718,0.267271 -3.34088,-1.202712 -3.34088,-1.202712"
       style="fill:#ffffff;stroke:#000000;stroke-width:0.79375;stroke-linecap:butt;stroke-linejoin:miter;stroke-miterlimit:4;stroke-dasharray:none;stroke-opacity:1" />
    <path
       id="path1002"
       style="fill:#ffffff;fill-rule:nonzero;stroke:#000000;stroke-width:3;stroke-linejoin:bevel;stroke-miterlimit:4;stroke-dasharray:none;stroke-opacity:1"
       d="m 345.71484,42.45132 c -66.27417,0 -120,53.725829 -120,120 -1e-5,12.62809 15.99327,65.58314 19.90625,77.5897 25.44973,29.74444 44.59998,42.31122 88.73983,56.03556 h 31.31446 c 35.57439,-17.01621 58.70717,-16.39406 83.94376,-56.67033 l 0.3125,0.25 c 3.83144,-11.89047 15.78268,-64.71241 15.7832,-77.20493 0,-66.274171 -53.72583,-120 -120,-120 z"
       transform="scale(0.26458333)"
       sodipodi:nodetypes="ssccccccs" />
    <circle
       style="fill:none;fill-rule:nonzero;stroke:#000000;stroke-width:0.79375;stroke-linejoin:bevel;stroke-miterlimit:4;stroke-dasharray:none;stroke-opacity:1"
       id="path1008"
       cx="81.249931"
       cy="48.643055"
       r="8.2853556"
       clip-path="url(#clipPath1018)"
       transform="translate(-1.3363476,-1.8708867)" />
    <ellipse
       style="fill:#000000;fill-rule:nonzero;stroke:#000000;stroke-width:0.848437;stroke-linejoin:bevel;stroke-miterlimit:4;stroke-dasharray:none;stroke-opacity:1"
       id="path1022"
       cx="83.71347"
       cy="50.596024"
       rx="2.1768854"
       ry="2.9338851" />
    <path
       style="fill:none;stroke:#000000;stroke-width:0.79375;stroke-linecap:butt;stroke-linejoin:miter;stroke-opacity:1;stroke-miterlimit:4;stroke-dasharray:none"
       d="M 76.973622,58.66566 H 70.024616"
       id="path1024" />
    <path
       style="fill:none;stroke:#000000;stroke-width:0.79375;stroke-linecap:butt;stroke-linejoin:miter;stroke-opacity:1;stroke-miterlimit:4;stroke-dasharray:none"
       d="m 93.277064,58.799295 c -2.066276,-0.171346 -2.672696,1.279475 -2.672696,2.271792"
       id="path1026" />
    <path
       style="fill:none;stroke:#000000;stroke-width:0.79375;stroke-linecap:butt;stroke-linejoin:miter;stroke-miterlimit:4;stroke-dasharray:none;stroke-opacity:1"
       d="m 76.839989,66.282842 16.83798,-1.069078 15.100731,-0.133636 0.66817,1.469983 c -5.05327,3.709127 -9.3304,7.433891 -16.704346,7.349913 C 87.675906,73.53707 81.912111,70.800106 76.839989,66.282842 Z"
       id="path1028"
       sodipodi:nodetypes="cccccc" />
    <path
       style="fill:#000000;stroke:#000000;stroke-width:0.264583px;stroke-linecap:butt;stroke-linejoin:miter;stroke-opacity:1"
       d="m 69.490077,34.076863 c 0,0 4.009043,-5.879928 7.750815,-6.414467 3.741774,-0.534539 9.755338,6.548103 9.755338,6.548103 0,0 -6.681737,-4.276312 -8.018087,-4.276312 -1.336347,0 -9.220798,5.612659 -9.220798,5.612659 z"
       id="path1030" />
    <ellipse
       ry="2.9338851"
       rx="2.1768854"
       cy="50.596024"
       cx="83.71347"
       id="path1022-2"
       style="fill:#000000;fill-rule:nonzero;stroke:#000000;stroke-width:0.848437;stroke-linejoin:bevel;stroke-miterlimit:4;stroke-dasharray:none;stroke-opacity:1" />
    <path
       id="path1024-1"
       d="M 76.973622,58.66566 H 70.024616"
       style="fill:none;stroke:#000000;stroke-width:0.79375;stroke-linecap:butt;stroke-linejoin:miter;stroke-miterlimit:4;stroke-dasharray:none;stroke-opacity:1" />
    <path
       id="path1030-5"
       d="m 69.490077,34.076864 c 0,0 4.009043,-5.879928 7.750815,-6.414467 3.741773,-0.534539 9.755337,6.548103 9.755337,6.548103 0,0 -6.681736,-4.276312 -8.018086,-4.276312 -1.336347,0 -9.220798,5.612659 -9.220798,5.612659 z"
       style="fill:#000000;stroke:#000000;stroke-width:0.264583px;stroke-linecap:butt;stroke-linejoin:miter;stroke-opacity:1" />
    <circle
       transform="matrix(-1,0,0,1,185.21138,-1.8708877)"
       clip-path="url(#clipPath1018-9)"
       r="8.2853556"
       cy="48.643055"
       cx="81.249931"
       id="path1008-5"
       style="fill:none;fill-rule:nonzero;stroke:#000000;stroke-width:0.79375;stroke-linejoin:bevel;stroke-miterlimit:4;stroke-dasharray:none;stroke-opacity:1" />
    <ellipse
       ry="2.9338851"
       rx="2.1768854"
       cy="50.596024"
       cx="-100.16156"
       id="path1022-7"
       style="fill:#000000;fill-rule:nonzero;stroke:#000000;stroke-width:0.848437;stroke-linejoin:bevel;stroke-miterlimit:4;stroke-dasharray:none;stroke-opacity:1"
       transform="scale(-1,1)" />
    <path
       id="path1024-3"
       d="m 106.90141,58.66566 h 6.94901"
       style="fill:none;stroke:#000000;stroke-width:0.79375;stroke-linecap:butt;stroke-linejoin:miter;stroke-miterlimit:4;stroke-dasharray:none;stroke-opacity:1" />
    <path
       id="path1030-7"
       d="m 114.38495,34.076864 c 0,0 -4.00904,-5.879928 -7.75081,-6.414467 -3.74178,-0.534539 -9.755347,6.548103 -9.755347,6.548103 0,0 6.681737,-4.276312 8.018097,-4.276312 1.33634,0 9.2208,5.612659 9.2208,5.612659 z"
       style="fill:#000000;stroke:#000000;stroke-width:0.264583px;stroke-linecap:butt;stroke-linejoin:miter;stroke-opacity:1" />
    <ellipse
       style="fill:#000000;fill-rule:nonzero;stroke:#000000;stroke-width:0.848437;stroke-linejoin:bevel;stroke-miterlimit:4;stroke-dasharray:none;stroke-opacity:1"
       id="path1022-2-1"
       cx="-100.16156"
       cy="50.596024"
       rx="2.1768854"
       ry="2.9338851"
       transform="scale(-1,1)" />
    <path
       style="fill:none;stroke:#000000;stroke-width:0.79375;stroke-linecap:butt;stroke-linejoin:miter;stroke-miterlimit:4;stroke-dasharray:none;stroke-opacity:1"
       d="m 106.90141,58.66566 h 6.94901"
       id="path1024-1-2" />
    <path
       style="fill:#000000;stroke:#000000;stroke-width:0.264583px;stroke-linecap:butt;stroke-linejoin:miter;stroke-opacity:1"
       d="m 114.38495,34.076865 c 0,0 -4.00904,-5.879928 -7.75081,-6.414467 -3.74178,-0.534539 -9.755337,6.548103 -9.755337,6.548103 0,0 6.681727,-4.276312 8.018087,-4.276312 1.33634,0 9.2208,5.612659 9.2208,5.612659 z"
       id="path1030-5-7" />
    <path
       style="fill:none;stroke:#000000;stroke-width:0.79375;stroke-linecap:butt;stroke-linejoin:miter;stroke-opacity:1;stroke-miterlimit:4;stroke-dasharray:none"
       d="m 62.390526,55.454949 c 0,0 -3.05669,0.938921 -4.39304,-1.33287 -1.336347,-2.271792 -0.935442,-4.944486 -0.935442,-4.944486 0.448577,-1.747086 1.693979,-1.994266 3.207234,-1.737252"
       id="path1094"
       sodipodi:nodetypes="cscc" />
    <path
       style="fill:none;stroke:#000000;stroke-width:0.79375;stroke-linecap:butt;stroke-linejoin:miter;stroke-opacity:1;stroke-miterlimit:4;stroke-dasharray:none"
       d="m 60.135642,45.836723 c 0,0 -3.073598,-4.677217 -4.409945,-3.207234 -1.33635,1.469983 -1.603618,4.677217 -1.603618,4.677217"
       id="path1096" />
    <path
       style="fill:none;stroke:#000000;stroke-width:0.79375;stroke-linecap:butt;stroke-linejoin:miter;stroke-opacity:1;stroke-miterlimit:4;stroke-dasharray:none"
       d="m 58.279204,43.703496 c 0,0 -2.055246,0.87407 -2.14974,2.952941"
       id="path1098" />
    <path
       sodipodi:nodetypes="cscc"
       id="path1094-3"
       d="m 120.58782,55.45495 c 0,0 3.05669,0.938921 4.39304,-1.33287 1.33635,-2.271792 0.93544,-4.944486 0.93544,-4.944486 -0.44857,-1.747086 -1.69398,-1.994266 -3.20723,-1.737252"
       style="fill:none;stroke:#000000;stroke-width:0.79375;stroke-linecap:butt;stroke-linejoin:miter;stroke-miterlimit:4;stroke-dasharray:none;stroke-opacity:1" />
    <path
       id="path1096-8"
       d="m 122.8427,45.836724 c 0,0 3.0736,-4.677217 4.40995,-3.207234 1.33635,1.469983 1.60362,4.677217 1.60362,4.677217"
       style="fill:none;stroke:#000000;stroke-width:0.79375;stroke-linecap:butt;stroke-linejoin:miter;stroke-miterlimit:4;stroke-dasharray:none;stroke-opacity:1" />
    <path
       id="path1098-2"
       d="m 124.69914,43.703497 c 0,0 2.05525,0.87407 2.14974,2.952941"
       style="fill:none;stroke:#000000;stroke-width:0.79375;stroke-linecap:butt;stroke-linejoin:miter;stroke-miterlimit:4;stroke-dasharray:none;stroke-opacity:1" />
    <path
       style="fill:#000000;stroke:#000000;stroke-width:0.264583px;stroke-linecap:butt;stroke-linejoin:miter;stroke-opacity:1"
       d="m 58.397322,40.821427 6.047618,4.346728 c 0,0 -2.02316,-8.681551 -1.322917,-13.418155 1.100363,-7.443108 4.535715,-11.90625 4.535715,-11.90625 -0.566426,6.228799 2.664611,12.932281 6.047619,19.65476 0,0 2.456844,-15.119046 3.212798,-17.197915 0.755952,-2.078869 5.102677,-7.748512 5.102677,-7.748512 -1.824673,0 2.266522,13.79613 6.236608,17.76488 l 1.889882,-9.638392 5.291666,-7.370535 c 0,0 -3.023809,9.638393 -3.023809,13.607143 0,3.96875 -1.511905,8.693452 0.377976,8.693452 7.370535,-13.040178 14.930055,-18.709821 14.930055,-18.709821 0,0 0.56697,11.150297 -1.5119,14.363095 6.8861,-2.653813 9.53218,-4.049966 11.52827,-8.126488 3.09039,5.543651 2.93683,11.087301 1.51191,16.630952 l 5.29166,-4.91369 L 120.19643,15.119048 93.171131,2.078869 73.894345,3.96875 56.696429,16.630952 Z"
       id="path1126"
       sodipodi:nodetypes="ccsccsccccsccccccccccc" />
  </g>
</svg>
