<?xml version="1.0" encoding="UTF-8" standalone="no"?>
<svg
   xmlns:dc="http://purl.org/dc/elements/1.1/"
   xmlns:cc="http://creativecommons.org/ns#"
   xmlns:rdf="http://www.w3.org/1999/02/22-rdf-syntax-ns#"
   xmlns:svg="http://www.w3.org/2000/svg"
   xmlns="http://www.w3.org/2000/svg"
   xmlns:sodipodi="http://sodipodi.sourceforge.net/DTD/sodipodi-0.dtd"
   xmlns:inkscape="http://www.inkscape.org/namespaces/inkscape"
   width="210mm"
   height="297mm"
   viewBox="0 0 210 297"
   version="1.1"
   id="svg1543"
   sodipodi:docname="path-effects-2.svg"
   inkscape:version="1.0 (4035a4fb49, 2020-05-01)">
  <defs
     id="defs1537">
    <inkscape:path-effect
       live_update="true"
       perimetral="false"
       vertical_mirror="false"
       horizontal_mirror="false"
       lpeversion="1"
       is_visible="true"
       id="path-effect8888"
       gridpoint32x33x34x35="85.764322,83.668227"
       gridpoint29x31="118.49629,83.668227"
       gridpoint28x30="53.032357,83.668227"
       gridpoint25x27="159.16575,76.486679"
       gridpoint24x26="14.630749,90.849774"
       gridpoint22x23="85.764322,109.03728"
       gridpoint20x21="85.764322,58.299173"
       gridpoint19="118.49629,109.03728"
       gridpoint18="53.032357,109.03728"
       gridpoint17="118.49629,58.299173"
       gridpoint16="53.032357,58.299173"
       gridpoint15="163.70147,102.61169"
       gridpoint14="20.300392,109.03728"
       gridpoint13="151.22825,58.299173"
       gridpoint12="11.60694,60.945006"
       gridpoint10x11="83.496465,144.23372"
       gridpoint8x9="85.764322,32.930119"
       gridpoint7="118.49629,134.40633"
       gridpoint6="49.252595,141.20991"
       gridpoint5="118.49629,32.930119"
       gridpoint4="56.056167,21.212857"
       gridpoint3="155.38599,133.65038"
       gridpoint2="20.300392,134.40633"
       gridpoint1="151.22825,32.930119"
       gridpoint0="8.58313,27.260476"
       effect="lattice2" />
    <inkscape:path-effect
       live_update="true"
       perimetral="false"
       vertical_mirror="false"
       horizontal_mirror="false"
       lpeversion="1"
       is_visible="false"
       id="path-effect8886"
       effect="lattice2"
       gridpoint0="-12.634582,179.49473"
       gridpoint1="234.9442,179.49473"
       gridpoint2="-12.634582,266.37999"
       gridpoint3="234.9442,266.37999"
       gridpoint4="49.260114,179.49473"
       gridpoint5="173.04951,179.49473"
       gridpoint6="49.260114,266.37999"
       gridpoint7="173.04951,266.37999"
       gridpoint8x9="111.15481,179.49473"
       gridpoint10x11="111.15481,266.37999"
       gridpoint12="-12.634582,201.21605"
       gridpoint13="234.9442,201.21605"
       gridpoint14="-12.634582,244.65868"
       gridpoint15="234.9442,244.65868"
       gridpoint16="49.260114,201.21605"
       gridpoint17="173.04951,201.21605"
       gridpoint18="49.260114,244.65868"
       gridpoint19="173.04951,244.65868"
       gridpoint20x21="111.15481,201.21605"
       gridpoint22x23="111.15481,244.65868"
       gridpoint24x26="-12.634582,222.93736"
       gridpoint25x27="234.9442,222.93736"
       gridpoint28x30="49.260114,222.93736"
       gridpoint29x31="173.04951,222.93736"
       gridpoint32x33x34x35="111.15481,222.93736" />
    <inkscape:path-effect
       bendpath4="m 0.28536027,169.3198 v 87.99178"
       bendpath3="M 0.28536027,257.31158 H 249.41334"
       bendpath2="m 249.41334,169.3198 v 87.99178"
       bendpath1="M 0.28536027,169.3198 H 249.41334"
       xx="true"
       yy="true"
       lpeversion="1"
       is_visible="true"
       id="path-effect8884"
       effect="envelope" />
    <inkscape:path-effect
       bendpath-nodetypes="csssc"
       hide_knot="false"
       vertical="false"
       scale_y_rel="false"
       prop_scale="0.95908152"
       bendpath="m 0.49210795,188.75126 c 13.28743305,-0.19031 27.34234105,-5.09963 34.28471405,2.88005 9.50424,10.92433 13.674469,34.60126 30.97993,36.12864 23.413107,2.06644 54.662188,5.78869 77.914428,1.44 40.13465,-7.50608 77.78447,-11.05538 101.20457,1.88465"
       lpeversion="1"
       is_visible="true"
       id="path-effect8882"
       effect="bend_path" />
    <inkscape:path-effect
       bendpath-nodetypes="cc"
       hide_knot="false"
       vertical="false"
       scale_y_rel="false"
       prop_scale="1"
       bendpath="M 20.300221,79.353736 C 76.816806,92.332967 120.91364,88.376175 161.88366,80.155545"
       lpeversion="1"
       is_visible="false"
       id="path-effect8833"
       effect="bend_path" />
    <inkscape:path-effect
       bendpath4-nodetypes="cc"
       bendpath3-nodetypes="cc"
       bendpath2-nodetypes="cc"
       bendpath1-nodetypes="cc"
       bendpath4="m 34.194167,152.38952 2.672695,10.77925"
       bendpath3="M 36.866862,168.78143 142.79287,163.16877"
       bendpath2="m 143.86195,148.1132 -0.53454,12.91741"
       bendpath1="M 36.866862,155.32948 C 78.724893,143.24 110.61156,144.41906 141.45653,141.96601"
       xx="true"
       yy="true"
       lpeversion="1"
       is_visible="true"
       id="path-effect8831"
       effect="envelope" />
    <inkscape:path-effect
       overflow_perspective="false"
       vertical_mirror="false"
       horizontal_mirror="false"
       deform_type="perspective"
       lpeversion="1"
       is_visible="false"
       id="path-effect8796"
       down_right_point="152.5646,122.64647"
       down_left_point="20.300392,134.40633"
       up_right_point="170.47166,24.644764"
       up_left_point="20.300392,32.930119"
       effect="perspective-envelope" />
    <inkscape:path-effect
       overflow_perspective="false"
       vertical_mirror="false"
       horizontal_mirror="false"
       deform_type="perspective"
       lpeversion="1"
       is_visible="true"
       id="path-effect8766"
       down_right_point="308.16176,103.16604"
       down_left_point="234.1281,90.871639"
       up_right_point="295.60009,27.796032"
       up_left_point="223.70459,16.303442"
       effect="perspective-envelope" />
    <inkscape:path-effect
       overflow_perspective="false"
       vertical_mirror="false"
       horizontal_mirror="false"
       deform_type="perspective"
       lpeversion="1"
       is_visible="true"
       id="path-effect8764"
       down_right_point="300.14367,71.895502"
       down_left_point="234.1281,90.871639"
       up_right_point="301.48002,18.976138"
       up_left_point="221.56643,18.174329"
       effect="perspective-envelope" />
  </defs>
  <sodipodi:namedview
     id="base"
     pagecolor="#ffffff"
     bordercolor="#666666"
     borderopacity="1.0"
     inkscape:pageopacity="0.0"
     inkscape:pageshadow="2"
     inkscape:zoom="0.7"
     inkscape:cx="348.59479"
     inkscape:cy="967.32724"
     inkscape:document-units="mm"
     inkscape:current-layer="layer1"
     inkscape:document-rotation="0"
     showgrid="false"
     inkscape:window-width="1278"
     inkscape:window-height="688"
     inkscape:window-x="-7"
     inkscape:window-y="0"
     inkscape:window-maximized="0"
     inkscape:snap-global="false" />
  <metadata
     id="metadata1540">
    <rdf:RDF>
      <cc:Work
         rdf:about="">
        <dc:format>image/svg+xml</dc:format>
        <dc:type
           rdf:resource="http://purl.org/dc/dcmitype/StillImage" />
        <dc:title></dc:title>
      </cc:Work>
    </rdf:RDF>
  </metadata>
  <g
     inkscape:label="Layer 1"
     inkscape:groupmode="layer"
     id="layer1">
    <g
       transform="translate(1.889881,-15.119048)"
       id="g8794">
      <path
         id="path4950-9"
         style="fill:#916f7c;fill-opacity:0.996078;stroke-width:0.930156;stroke-linecap:square;stroke-miterlimit:4;stroke-dasharray:none"
         d="m 55.295013,38.86289 c 2.381583,1.053785 5.072338,1.023763 7.593193,0.903773 1.398059,-0.08726 2.817099,-0.720822 3.470647,-2.033466 1.49065,-4.060489 -1.672609,-11.779548 -3.559333,-14.528543 -2.001089,-2.578146 -5.768087,1.386561 -7.806952,3.851062 -3.836219,4.637098 -6.757846,8.611734 0.302445,11.807174 z"
         sodipodi:nodetypes="ccccsc"
         inkscape:transform-center-x="70.685611"
         inkscape:transform-center-y="-13.806957" />
      <path
         id="path4950-0-2-6"
         style="fill:#916f7c;fill-opacity:0.996078;stroke-width:0.930156;stroke-linecap:square;stroke-miterlimit:4;stroke-dasharray:none"
         d="m 119.7446,107.54646 c 2.23106,1.01384 4.97763,0.93939 7.66274,0.73814 1.47787,-0.13064 3.17609,-0.81577 4.29196,-2.14383 3.15066,-4.45214 1.20962,-10.882132 -0.82812,-13.465587 -2.0307,-2.225012 -6.68282,1.499913 -9.23321,3.776775 -4.79173,4.277822 -8.50104,8.014392 -1.89337,11.094502 z"
         sodipodi:nodetypes="ccccsc"
         inkscape:transform-center-x="19.911502"
         inkscape:transform-center-y="49.066115" />
      <path
         sodipodi:nodetypes="ccccsc"
         d="m 99.142705,96.684796 c 1.570465,1.993518 3.948605,3.17772 6.288665,4.190454 1.30016,0.53957 2.95934,0.61043 4.3807,-0.25026 4.22134,-3.110829 5.25089,-10.588717 4.66794,-13.782608 -0.74599,-2.929581 -6.37089,-1.187815 -9.47974,-0.06473 -5.931223,2.142675 -10.505766,3.895815 -5.857565,9.907143 z"
         style="fill:#916f7c;fill-opacity:0.996078;stroke-width:0.930156;stroke-linecap:square;stroke-miterlimit:4;stroke-dasharray:none"
         id="path4950-0-2"
         inkscape:transform-center-x="34.746897"
         inkscape:transform-center-y="40.009449" />
      <path
         id="path4950-0"
         style="fill:#916f7c;fill-opacity:0.996078;stroke-width:0.930156;stroke-linecap:square;stroke-miterlimit:4;stroke-dasharray:none"
         d="m 75.943171,59.192661 c 0.313194,2.588984 1.740321,4.890033 3.252978,7.01206 0.851425,1.159781 2.218425,2.085551 3.769405,2.050928 4.699375,-0.581527 8.986627,-6.763324 10.037993,-9.708601 0.810562,-2.845087 -4.471605,-4.235863 -7.502609,-4.900354 -5.571747,-1.221502 -10.437033,-2.264367 -9.557767,5.545967 z"
         sodipodi:nodetypes="ccccsc"
         inkscape:transform-center-x="48.650368"
         inkscape:transform-center-y="9.4445288" />
      <path
         sodipodi:nodetypes="ccccsc"
         d="m 68.038773,42.431528 c 0.437295,2.693087 1.947068,4.996171 3.547661,7.099771 0.898987,1.149111 2.274779,2.014742 3.728806,1.876676 4.317223,-0.906633 7.765167,-7.5546 8.59741,-10.801672 0.619796,-3.162536 -4.272836,-4.351619 -7.137638,-4.847559 -5.159597,-0.893204 -9.996175,-1.473811 -8.736239,6.672784 z"
         style="fill:#916f7c;fill-opacity:0.996078;stroke-width:0.930157;stroke-linecap:square;stroke-miterlimit:4;stroke-dasharray:none"
         id="path4950"
         inkscape:transform-center-x="55.224926"
         inkscape:transform-center-y="-4.6940879" />
      <path
         d="m 79.653701,96.337063 c -3.322063,0.648075 -6.428218,2.11684 -8.652173,4.269267 -1.940697,1.88287 -3.106239,4.28075 -3.527638,6.78734 -0.631433,3.68578 0.129059,7.63442 1.821418,11.19382 1.317199,2.79052 3.24384,5.39592 5.457714,7.51883 1.04126,0.98446 2.100015,1.96788 3.224015,2.81312 1.268924,0.88004 2.753253,1.34768 4.033405,2.14587 0.724666,0.43361 1.379184,0.96671 1.942782,1.58766 0.23024,0.23233 0.454088,0.46901 0.677386,0.70635 0.266839,0.51616 0.06083,1.18487 -0.09869,1.77359 -0.751466,2.46703 -1.938599,4.85559 -2.583942,7.40763 -0.246268,1.2475 -0.263399,2.57494 0.191043,3.61814 0.490315,0.8533 1.450477,1.15358 2.417581,1.0432 1.805043,-0.1037 3.745121,-1.15272 5.321216,-2.72423 2.107326,-1.98443 4.23487,-3.95563 6.328292,-6.0583 2.238398,-2.35707 4.253935,-4.97708 6.628845,-7.27215 0.80157,-0.79448 1.64081,-1.57795 2.31833,-2.49245 0.58231,-0.83263 0.86284,-1.81237 0.72021,-2.60953 -0.17992,-1.12342 -0.98883,-1.86917 -1.93773,-2.31891 -0.96975,-0.46495 -2.15827,-0.56354 -3.3432,-0.55592 -0.5041,-0.001 -1.010379,0.005 -1.515679,0.005 -0.346701,-0.0555 -0.445261,-0.5132 -0.227053,-0.84681 0.932422,-1.99165 1.927542,-4.01846 2.393402,-6.05643 0.27943,-1.22885 0.3796,-2.44209 0.39522,-3.63328 0.008,-4.82684 -2.145564,-9.02643 -5.92437,-11.95647 -2.464558,-1.961812 -5.598193,-3.392322 -8.999997,-4.046547 -2.298737,-0.440456 -4.708583,-0.495338 -7.060396,-0.29916 0,0 4e-6,0 4e-6,0 z"
         style="fill:#e19191;fill-opacity:0.996078;stroke-width:0.777772;stroke-linecap:square;stroke-miterlimit:4;stroke-dasharray:none"
         id="path4915-2"
         inkscape:transform-center-x="50.369276"
         inkscape:transform-center-y="60.269107" />
      <path
         d="m 23.089124,90.559006 c -3.769225,0.307825 -6.778554,3.019344 -6.606294,5.851871 0.06064,2.076197 1.994201,4.097293 4.527389,5.185663 2.011288,0.93141 4.229002,1.49366 6.361696,2.08105 4.1111,1.02882 8.272954,1.72222 12.301374,1.88469 2.143522,0.097 4.212881,-0.0589 6.256834,-0.35907 2.884115,-0.37209 5.777093,-1.0328 8.089659,-2.57939 1.05033,-0.69876 2.054204,-1.63848 2.20972,-2.903568 0.125527,-1.024142 -0.348425,-2.182723 -1.363341,-2.883823 -1.429387,-1.101999 -3.338002,-1.481024 -5.102234,-1.585785 -2.488012,-0.170527 -4.953653,-0.10363 -7.442823,-0.375801 -2.70779,-0.263526 -5.438108,-0.872288 -8.046772,-1.767214 -2.954784,-0.95768 -5.870812,-2.147395 -8.96709,-2.533466 -0.742301,-0.05181 -1.484918,-0.06728 -2.218118,-0.01516 z"
         style="fill:#e19191;fill-opacity:0.996078;stroke-width:0.777772;stroke-linecap:square;stroke-miterlimit:4;stroke-dasharray:none"
         id="path4913"
         inkscape:transform-center-x="91.788661"
         inkscape:transform-center-y="40.266113" />
      <path
         sodipodi:nodetypes="ccccsc"
         d="m 145.28264,103.48216 c 2.55523,-0.77787 4.97116,-2.33564 7.21313,-3.846375 1.22905,-0.845674 2.29615,-2.039346 2.39273,-3.201462 -0.1918,-3.516386 -6.44808,-5.530597 -9.87325,-5.773169 -3.16873,-0.07425 -4.42629,4.048258 -5.08162,6.558125 -1.22758,4.701611 -2.28024,8.535791 5.34901,6.262881 z"
         style="fill:#916f7c;fill-opacity:0.996078;stroke-width:0.810988;stroke-linecap:square;stroke-miterlimit:4;stroke-dasharray:none"
         id="path4950-0-2-6-5"
         inkscape:transform-center-x="1.9281861"
         inkscape:transform-center-y="49.565079" />
      <path
         sodipodi:nodetypes="ccccccszccccscccc"
         d="M 57.590127,31.224521 C 46.684503,32.070949 35.60323,33.48741 24.189893,38.186819 18.985556,40.211523 14.035598,44.106623 10.198184,48.878029 6.365077,53.644079 3.678556,59.246791 3.2042373,64.498389 1.5514324,74.738434 7.3083207,82.226702 17.164749,85.744171 c 5.719186,2.537474 12.570154,3.382572 18.816742,3.262238 0.618063,7.758409 4.208995,14.912061 9.353685,21.729961 3.938775,5.96912 8.012135,10.2375 15.04907,13.5424 6.831279,3.20831 13.528719,4.32027 22.232098,5.0858 8.823951,0.77613 18.336226,-2.77759 28.790166,-5.26224 7.79491,-2.046 15.77526,-4.86621 23.85716,-8.54023 7.90745,-3.59471 16.12508,-8.11391 23.44729,-13.29978 4.79684,-3.738068 10.28072,-9.513908 8.7406,-14.137286 -2.93172,-1.081856 -6.17162,0.269312 -9.43219,2.102543 -3.26208,1.83408 -6.71281,4.249958 -10.01018,5.20041 -10.90274,5.428923 -22.21686,7.769163 -31.60019,3.822215 C 110.66751,96.835135 104.86545,93.132535 100.09481,89.034844 93.572367,84.155588 87.895659,77.724858 86.867962,69.85288 84.362989,59.405729 79.184666,46.095869 70.636273,37.615166 66.958395,34.165625 62.548099,31.301603 57.590127,31.224521 Z"
         style="fill:#e9afaf;fill-opacity:0.996078;stroke-width:0.777772;stroke-linecap:square;stroke-miterlimit:4;stroke-dasharray:none"
         id="path4907"
         inkscape:transform-center-x="51.04848"
         inkscape:transform-center-y="26.845859" />
      <path
         style="fill:#df8989;fill-opacity:0.996078;stroke-width:0.778724;stroke-linecap:square;stroke-miterlimit:4;stroke-dasharray:none"
         d="m 71.09972,47.183414 c 0.04797,2.943683 -0.939269,5.717451 -2.854812,7.788872 -1.910109,2.065547 -4.594331,3.259062 -7.446772,3.280003 -2.849943,0.02092 -5.622182,-1.135223 -7.622774,-3.266897 -2.006391,-2.137852 -3.051047,-5.05805 -2.914932,-8.162203 0.135665,-3.093905 1.434131,-6.078408 3.512349,-8.234624 2.082474,-2.16063 4.753744,-3.29762 7.42453,-3.177885 2.674562,0.119904 5.137684,1.483604 6.966052,3.710129 1.818355,2.214332 2.888684,5.137185 2.936359,8.062605 z"
         inkscape:transform-center-y="-1.5737761"
         inkscape:transform-center-x="68.568585"
         id="path4905-6" />
      <path
         style="fill:#ffffff;fill-opacity:0.996078;stroke-width:0.777772;stroke-linecap:square;stroke-miterlimit:4;stroke-dasharray:none"
         d="m 69.655076,46.1569 c 0.01947,2.857727 -1.031413,5.547223 -3.029247,7.552037 -1.992428,1.99939 -4.772046,3.15106 -7.711118,3.168026 -2.936643,0.01695 -5.780057,-1.104707 -7.820731,-3.168617 -2.046486,-2.069787 -3.098339,-4.896602 -2.936774,-7.903048 0.161022,-2.996334 1.515215,-5.891284 3.669745,-7.985637 2.159168,-2.098861 4.922156,-3.207928 7.682952,-3.095002 2.764364,0.113073 5.30588,1.436026 7.181109,3.599737 1.865429,2.152403 2.94471,4.991649 2.964064,7.832504 z"
         inkscape:transform-center-y="-2.3601874"
         inkscape:transform-center-x="70.125714"
         id="path4905" />
      <path
         d="m 87.392438,72.466405 c -0.625615,1.977739 -1.469058,3.915614 -2.749646,5.682963 -1.650166,2.528464 -3.577714,4.963087 -4.77299,7.729361 -0.482429,1.818183 0.512555,3.782597 2.157976,4.907523 1.865317,1.265796 4.4354,1.484905 6.70162,0.870678 2.95201,-0.751155 5.529295,-2.408004 8.070463,-3.934706 0.307813,-0.187187 0.611918,-0.379744 0.914722,-0.57357 C 92.943938,83.136199 88.94404,78.22519 87.392438,72.466405 Z"
         style="fill:#df8989;fill-opacity:1;stroke-width:0.777772;stroke-linecap:square;stroke-miterlimit:4;stroke-dasharray:none"
         id="path4911-2"
         inkscape:transform-center-x="48.023666"
         inkscape:transform-center-y="28.147857" />
      <path
         d="m 93.045238,66.582526 c -1.685892,1.610123 -2.463892,3.749281 -3.342564,5.80334 -1.133602,2.821863 -2.548058,5.670328 -4.832062,8.049857 -2.033322,2.326437 -4.324003,4.528914 -5.928644,7.129425 -0.755001,1.745277 -0.06759,3.807693 1.384806,5.121785 1.647326,1.479808 4.141321,2.012667 6.45719,1.670492 3.013585,-0.397368 5.791941,-1.755352 8.534601,-3.008985 3.26783,-1.514427 6.381045,-3.403644 9.007925,-5.688562 2.91994,-2.496751 5.44337,-5.290571 7.21962,-8.222245 0.97804,-1.631418 1.66702,-3.382705 1.43238,-5.113369 -0.31872,-3.031435 -2.80608,-5.911075 -6.35765,-7.383936 -2.57963,-1.066532 -5.60077,-1.225098 -8.262686,-0.694093 -1.987409,0.38565 -3.827272,1.178603 -5.312916,2.336291 z"
         style="fill:#e9afaf;fill-opacity:0.996078;stroke-width:0.777772;stroke-linecap:square;stroke-miterlimit:4;stroke-dasharray:none"
         id="path4911"
         inkscape:transform-center-x="41.813227"
         inkscape:transform-center-y="25.773537" />
      <path
         style="fill:#916f7c;fill-opacity:0.996078;stroke-width:0.777772;stroke-linecap:square;stroke-miterlimit:4;stroke-dasharray:none"
         d="m 65.837035,47.82496 c 0.0057,1.83212 -1.449516,3.299841 -3.299612,3.279513 -1.849182,-0.02032 -3.337746,-1.532208 -3.307093,-3.408004 0.03066,-1.876212 1.555079,-3.361117 3.354083,-3.310229 1.798096,0.05086 3.246922,1.606978 3.252622,3.43872 z"
         inkscape:transform-center-y="-0.94533142"
         inkscape:transform-center-x="66.965657"
         id="path5030" />
      <g
         style="opacity:1"
         id="g5152"
         transform="matrix(1.0208389,0,0,0.9405466,-0.42303764,7.9909143)"
         inkscape:transform-center-x="45.611065"
         inkscape:transform-center-y="6.2704491">
        <path
           id="path5154"
           d="m 26.640352,85.283873 c 0,0 3.77252,-0.856238 8.286397,-2.7818 4.527559,-1.931398 9.814394,-4.970811 12.891036,-9.564823"
           style="color:#000000;font-style:normal;font-variant:normal;font-weight:normal;font-stretch:normal;font-size:medium;line-height:normal;font-family:sans-serif;font-variant-ligatures:normal;font-variant-position:normal;font-variant-caps:normal;font-variant-numeric:normal;font-variant-alternates:normal;font-variant-east-asian:normal;font-feature-settings:normal;font-variation-settings:normal;text-indent:0;text-align:start;text-decoration:none;text-decoration-line:none;text-decoration-style:solid;text-decoration-color:#000000;letter-spacing:normal;word-spacing:normal;text-transform:none;writing-mode:lr-tb;direction:ltr;text-orientation:mixed;dominant-baseline:auto;baseline-shift:baseline;text-anchor:start;white-space:normal;shape-padding:0;shape-margin:0;inline-size:0;clip-rule:nonzero;display:inline;overflow:visible;visibility:visible;isolation:auto;mix-blend-mode:normal;color-interpolation:sRGB;color-interpolation-filters:linearRGB;solid-color:#000000;solid-opacity:1;vector-effect:none;fill:#000000;fill-opacity:0;fill-rule:nonzero;stroke:none;stroke-width:1.065;stroke-linecap:butt;stroke-linejoin:miter;stroke-miterlimit:4;stroke-dasharray:none;stroke-dashoffset:0;stroke-opacity:1;color-rendering:auto;image-rendering:auto;shape-rendering:auto;text-rendering:auto;enable-background:accumulate;stop-color:#000000;stop-opacity:1" />
        <path
           sodipodi:nodetypes="cccsccsccc"
           d="m 44.210515,67.448834 c 0.180567,0.908571 0.51846,2.674767 0.51846,2.674767 0.57984,1.097105 0.959881,2.002818 2.189522,2.931384 -3.017689,4.166203 -7.986682,7.038393 -12.295635,8.885798 -4.465898,1.914692 -9.758057,3.228462 -9.758057,3.228462 0.387784,0.0921 1.122193,0.246054 1.122193,0.246054 0,0 5.906228,-1.211809 10.479068,-3.15844 4.431446,-1.886442 8.661714,-3.848946 11.862338,-8.312124 2.886903,1.226673 3.702743,1.296358 6.744572,0.751569 -4.461049,-0.288796 -8.965095,-2.884465 -10.862461,-7.24747 z"
           style="color:#000000;font-style:normal;font-variant:normal;font-weight:normal;font-stretch:normal;font-size:medium;line-height:normal;font-family:sans-serif;font-variant-ligatures:normal;font-variant-position:normal;font-variant-caps:normal;font-variant-numeric:normal;font-variant-alternates:normal;font-variant-east-asian:normal;font-feature-settings:normal;font-variation-settings:normal;text-indent:0;text-align:start;text-decoration:none;text-decoration-line:none;text-decoration-style:solid;text-decoration-color:#000000;letter-spacing:normal;word-spacing:normal;text-transform:none;writing-mode:lr-tb;direction:ltr;text-orientation:mixed;dominant-baseline:auto;baseline-shift:baseline;text-anchor:start;white-space:normal;shape-padding:0;shape-margin:0;inline-size:0;clip-rule:nonzero;display:inline;overflow:visible;visibility:visible;isolation:auto;mix-blend-mode:normal;color-interpolation:sRGB;color-interpolation-filters:linearRGB;solid-color:#000000;solid-opacity:1;vector-effect:none;fill:#aa6969;fill-opacity:1;fill-rule:nonzero;stroke:none;stroke-width:1.065;stroke-linecap:butt;stroke-linejoin:miter;stroke-miterlimit:4;stroke-dasharray:none;stroke-dashoffset:0;stroke-opacity:1;color-rendering:auto;image-rendering:auto;shape-rendering:auto;text-rendering:auto;enable-background:accumulate;stop-color:#000000;stop-opacity:1"
           id="path5156" />
        <path
           sodipodi:nodetypes="ccsccccccscccccccccsccccccsccscsscccc"
           d="m 126.92114,26.600133 c -2.75441,-0.313143 -5.11578,1.164086 -5.4644,3.519016 -1.01501,-0.756439 -2.20656,-1.261791 -3.41049,-1.40779 -1.26353,-0.153202 -2.46053,0.100237 -3.3833,0.729838 -0.78791,0.188733 -1.4366,0.629891 -1.83683,1.251866 -0.16857,-0.03962 -0.33762,-0.06906 -0.50604,-0.08797 -1.64355,-0.184016 -3.02589,0.661822 -3.33038,2.081311 -0.76615,-0.682298 -1.72951,-1.132285 -2.70453,-1.237158 -2.08179,-0.22382 -3.7096,1.19034 -3.52953,3.169742 0.18008,1.980343 2.10996,3.625609 4.28179,3.751265 1.79309,0.103752 3.17814,-0.853203 3.40666,-2.293398 0.21112,0.165572 0.43805,0.314028 0.67707,0.44333 -0.65864,0.679145 -0.94291,1.607249 -0.77997,2.58731 0.36967,2.222838 2.8398,3.98009 5.50897,4.019285 2.67729,0.03938 4.35305,-1.593248 3.90083,-3.595492 -0.11745,-0.51986 -0.37022,-1.04335 -0.7384,-1.538242 0.10975,0.01078 0.21922,0.01889 0.32816,0.02453 0.31367,0.01613 0.6225,0.01103 0.9229,-0.01482 -0.18334,0.576993 -0.2041,1.204023 -0.0567,1.839833 0.63316,2.730547 4.04203,4.785041 7.61341,4.748451 3.59164,-0.03681 5.64236,-2.039949 4.87657,-4.399874 -0.4389,-1.35225 -1.73381,-2.714383 -3.4588,-3.662934 2.95713,-0.177828 4.61042,-1.964528 4.19925,-4.292578 -0.45541,-2.577939 -3.25888,-5.242155 -6.46896,-5.6302 -0.0158,-0.002 -0.0315,-0.0039 -0.0472,-0.0057 0,0 -3e-5,3.95e-4 -3e-5,3.95e-4 z m 8.90721,5.715184 c -3.96674,-0.27393 -6.8691,1.902796 -6.11573,4.817936 0.75966,2.939791 4.89586,5.107187 9.17658,5.091429 4.31102,-0.01583 6.6831,-2.076458 5.76042,-4.591401 -0.92394,-2.518277 -4.81142,-5.041682 -8.76513,-5.314092 -0.0187,-0.0013 -0.0375,-0.0026 -0.0561,-0.0039 0,0 -1e-5,-10e-7 -1e-5,-10e-7 z m -11.78138,2.767722 c 0.1267,0.08674 0.25661,0.170093 0.38946,0.249942 -0.15101,0.0076 -0.30017,0.02 -0.44717,0.03717 0.0236,-0.09424 0.0428,-0.189989 0.0577,-0.287109 z"
           style="opacity:1;fill:#e6e6e6;fill-opacity:0.996078;stroke:none;stroke-width:0.456248;stroke-linecap:square;stroke-miterlimit:4;stroke-dasharray:none;stroke-opacity:1"
           id="path5165" />
      </g>
      <g
         transform="matrix(1.0208389,0,0,0.9405466,-47.882931,-0.89669117)"
         style="opacity:1"
         id="g5158"
         inkscape:transform-center-x="78.932117"
         inkscape:transform-center-y="21.227393">
        <path
           id="path5160"
           d="m 91.2492,79.051452 c 1.157232,2.202289 3.827506,4.604663 7.739482,4.880914"
           style="color:#000000;font-style:normal;font-variant:normal;font-weight:normal;font-stretch:normal;font-size:medium;line-height:normal;font-family:sans-serif;font-variant-ligatures:normal;font-variant-position:normal;font-variant-caps:normal;font-variant-numeric:normal;font-variant-alternates:normal;font-variant-east-asian:normal;font-feature-settings:normal;font-variation-settings:normal;text-indent:0;text-align:start;text-decoration:none;text-decoration-line:none;text-decoration-style:solid;text-decoration-color:#000000;letter-spacing:normal;word-spacing:normal;text-transform:none;writing-mode:lr-tb;direction:ltr;text-orientation:mixed;dominant-baseline:auto;baseline-shift:baseline;text-anchor:start;white-space:normal;shape-padding:0;shape-margin:0;inline-size:0;clip-rule:nonzero;display:inline;overflow:visible;visibility:visible;isolation:auto;mix-blend-mode:normal;color-interpolation:sRGB;color-interpolation-filters:linearRGB;solid-color:#000000;solid-opacity:1;vector-effect:none;fill:#000000;fill-opacity:0;fill-rule:nonzero;stroke:none;stroke-width:1.065;stroke-linecap:butt;stroke-linejoin:miter;stroke-miterlimit:4;stroke-dasharray:none;stroke-dashoffset:0;stroke-opacity:1;color-rendering:auto;image-rendering:auto;shape-rendering:auto;text-rendering:auto;enable-background:accumulate;stop-color:#000000;stop-opacity:1" />
      </g>
      <path
         sodipodi:nodetypes="cccc"
         id="path5051"
         d="m 35.65527,88.885582 c 11.586381,0.09345 17.918058,-1.086006 22.419476,-2.869946 4.292806,-1.701265 6.225554,-3.763776 7.980839,-4.892509 -3.478833,4.393607 -6.743648,6.815446 -11.22521,8.303746 -4.550987,1.511357 -10.115829,2.011783 -18.491088,2.69085 -0.235548,-1.068951 -0.463777,-2.145334 -0.684017,-3.232141 z"
         style="fill:#df8989;fill-opacity:1;stroke:none;stroke-width:0.241372px;stroke-linecap:butt;stroke-linejoin:miter;stroke-opacity:1"
         inkscape:transform-center-x="78.386953"
         inkscape:transform-center-y="30.520967" />
      <path
         style="opacity:0.41791;fill:#df8989;fill-opacity:1;stroke:none;stroke-width:1.04356;stroke-linecap:square;stroke-miterlimit:4;stroke-dasharray:none;stroke-opacity:1"
         d="m 70.261001,64.117769 c 0.104768,1.37558 -0.467649,2.70696 -1.608615,3.714458 -1.139687,1.006368 -2.753889,1.605332 -4.481205,1.655025 -1.727432,0.0497 -3.423886,-0.454567 -4.704043,-1.411981 -1.281122,-0.958137 -2.035531,-2.287993 -2.10204,-3.702599 -0.06643,-1.412801 0.559775,-2.788539 1.721398,-3.808104 1.161649,-1.019589 2.760802,-1.596903 4.44974,-1.610019 1.68754,-0.0131 3.334011,0.535831 4.591315,1.505402 1.256625,0.969049 2.02884,2.284315 2.13345,3.657818 z"
         inkscape:transform-center-y="12.204701"
         inkscape:transform-center-x="66.287137"
         id="path5053" />
      <path
         style="opacity:1;fill:#72565f;fill-opacity:0.996078;stroke:none;stroke-width:1.04356;stroke-linecap:square;stroke-miterlimit:4;stroke-dasharray:none;stroke-opacity:1"
         d="m 18.469286,64.96717 c -0.02587,1.303416 -0.923887,2.445516 -2.032919,2.582878 -1.109051,0.137364 -2.001618,-0.780233 -1.970064,-2.076419 0.03156,-1.296563 0.973099,-2.488058 2.073982,-2.629772 1.100922,-0.141719 1.95487,0.820244 1.929001,2.123313 z"
         inkscape:transform-center-y="11.04932"
         inkscape:transform-center-x="105.49945"
         id="path5055" />
      <path
         sodipodi:nodetypes="cccssccsssc"
         d="m 48.492341,88.228559 c -3.896723,0.718493 -6.429739,0.646121 -12.841448,0.785745 1.577349,8.593576 4.56585,14.938546 9.684447,21.721866 3.938761,5.9691 8.011983,10.23777 15.048892,13.54266 6.831304,3.20832 13.528711,4.31993 22.232146,5.08545 8.823958,0.77611 18.336212,-2.77755 28.790152,-5.26219 12.25682,-3.21716 25.4883,-8.54831 37.85834,-15.77752 -3.48132,1.06483 -7.73699,2.50892 -13.21622,4.61471 -6.29138,2.41794 -16.13548,4.39552 -25.33538,5.30721 -9.6565,0.95694 -17.537235,0.66963 -22.177035,0.2583 -4.328761,-0.38375 -11.380289,-3.09001 -18.318095,-6.41163 -6.739609,-3.22673 -13.204977,-6.93408 -14.685833,-8.65776 -1.51971,-1.76891 -3.318731,-5.567781 -4.693363,-8.901474 -1.381458,-3.350249 -2.346603,-6.305367 -2.346603,-6.305367 z"
         style="opacity:0.36194;fill:#f4d7e3;fill-opacity:1;stroke:none;stroke-width:0.259257px;stroke-linecap:butt;stroke-linejoin:miter;stroke-opacity:1"
         id="path5134"
         inkscape:transform-center-x="44.864169"
         inkscape:transform-center-y="49.483065" />
      <path
         sodipodi:nodetypes="cccccsccccccccc"
         d="m 64.172762,101.43509 c -0.152528,0.0326 -0.496967,0.0633 -0.496967,0.0633 -2.518896,0.36259 -4.859539,1.31717 -6.583908,2.77668 -1.436811,1.20896 -2.462098,2.72579 -2.998848,4.39559 -1.022702,3.84313 -0.298015,8.44177 0.728745,12.39539 2.051986,1.72688 2.641321,1.84091 5.562448,3.21282 4.327905,2.03259 8.576414,3.21846 13.376357,4.01782 0.821295,-0.45958 1.632051,-0.9539 2.400034,-1.53627 0.772621,-0.57958 1.476592,-1.26717 2.08736,-2.03492 1.215469,-1.50003 2.145847,-3.23879 2.773124,-5.04558 0.809009,-2.37981 1.051557,-4.89749 0.588987,-7.2721 -0.469964,-2.34543 -1.688881,-4.50292 -3.53232,-6.17435 -1.335809,-1.22278 -2.984499,-2.16667 -4.74503,-2.86538 -2.280986,-0.93174 -4.751982,-1.51339 -7.227738,-1.77551 -0.643059,-0.0733 -1.288865,-0.11814 -1.932244,-0.15745 z"
         style="fill:#df8989;fill-opacity:1;stroke-width:0.777772;stroke-linecap:square;stroke-miterlimit:4;stroke-dasharray:none"
         id="path4915-4"
         inkscape:transform-center-x="67.156112"
         inkscape:transform-center-y="54.684921" />
      <path
         d="m 65.117553,103.67493 c -2.50999,0.36049 -4.844577,1.31021 -6.567901,2.76561 -1.435934,1.20557 -2.463911,2.72003 -3.009977,4.3923 -0.308203,0.92413 -0.442529,1.90358 -0.472349,2.89733 -0.04609,1.45087 0.01535,2.91823 -0.0064,4.37412 -0.0163,0.94906 -0.05783,1.89547 -0.24837,2.79999 -0.128991,0.6039 -0.354717,1.1729 -0.686193,1.66664 -0.493537,0.79796 -1.101862,1.50374 -1.66662,2.22568 -0.20603,0.2159 -0.6256,0.20578 -0.917804,-0.0447 -1.123449,-0.80103 -2.214943,-1.60719 -3.401277,-2.32499 -0.96097,-0.58826 -1.964126,-1.09783 -2.993845,-1.50172 -1.55743,-0.64124 -3.173355,-1.12663 -4.708249,-1.20894 -1.090717,-0.0483 -2.126617,0.14928 -2.791594,0.70225 -0.760026,0.6508 -0.862079,1.80036 -0.382697,2.95928 0.420578,1.06786 1.204987,2.12629 1.977808,3.1395 1.267141,1.63714 2.671889,3.20601 4.049678,4.79668 1.401095,1.60538 2.815879,3.25031 4.147817,4.91488 0.818944,1.00541 1.649626,2.09182 2.51186,3.03878 0.771236,0.87467 1.548998,1.77289 2.196235,2.76905 0.42607,0.62438 0.844231,1.31056 1.401203,1.76412 0.573326,0.40896 1.248476,0.36467 1.803979,0.10296 0.973966,-0.42665 1.86176,-1.09412 2.77449,-1.69011 0.526321,-0.35688 1.060077,-0.70628 1.586679,-1.07406 0.914785,-0.72933 1.827026,-1.47669 2.739002,-2.24201 2.517477,-1.76214 5.055269,-3.64417 7.70225,-5.53933 0.621255,-0.45224 1.272455,-0.86741 1.953289,-1.23828 1.694605,-0.94616 3.473411,-1.78316 5.093913,-3.01976 0.777244,-0.58686 1.488048,-1.28303 2.107522,-2.05907 1.232303,-1.51627 2.184817,-3.27179 2.836683,-5.09425 0.841539,-2.40043 1.121194,-4.93702 0.69532,-7.32615 -0.433724,-2.36023 -1.617206,-4.52649 -3.432336,-6.20279 -1.314964,-1.22619 -2.946068,-2.1712 -4.69226,-2.8702 -2.26195,-0.93211 -4.718858,-1.51352 -7.182072,-1.77695 -0.639773,-0.0736 -1.282252,-0.11843 -1.922554,-0.15835 0.0063,-8e-4 -0.501573,0.0632 -0.495264,0.0624 0,0 2.2e-5,9e-5 2.2e-5,9e-5 z"
         style="fill:#e9afaf;fill-opacity:1;stroke-width:0.777772;stroke-linecap:square;stroke-miterlimit:4;stroke-dasharray:none"
         id="path4915"
         inkscape:transform-center-x="75.103192"
         inkscape:transform-center-y="62.918906" />
    </g>
    <path
       sodipodi:nodetypes="ccccccccccc"
       inkscape:original-d="m 234.39537,89.000752 -0.26727,-58.264757 18.97614,0.267271 29.39964,46.772165 0.80181,-49.979399 12.2944,0.267269 v 62.808338 h -22.18335 l -23.51973,-38.486812 0.53454,37.417734 z"
       inkscape:path-effect="#path-effect8764"
       id="path8762"
       d="m 234.21646,88.983589 -11.94314,-66.718325 31.10506,0.138997 35.8183,42.283858 0.54869,-45.82972 11.72814,0.375722 -1.32984,52.661381 -19.25677,5.535347 -29.57258,-30.244593 4.56923,36.463694 z"
       style="fill:#ffb380;stroke:#000000;stroke-width:0.264583px;stroke-linecap:butt;stroke-linejoin:miter;stroke-opacity:1" />
    <g
       inkscape:path-effect="#path-effect8831"
       style="font-style:normal;font-weight:normal;font-size:10.5833px;line-height:1.25;font-family:sans-serif;fill:#5fbcd3;fill-opacity:1;stroke:none;stroke-width:0.264583"
       id="text8800"
       aria-label="HAPPY DINOSAUR">
      <path
         inkscape:original-d="m 36.866862,155.45867 h 2.340935 v 2.65099 h 2.557975 v -2.65099 h 2.35127 v 7.57574 h -2.35127 v -3.0644 h -2.557975 v 3.0644 h -2.340935 z"
         id="path8802"
         style="font-style:normal;font-variant:normal;font-weight:900;font-stretch:normal;font-family:Arial;-inkscape-font-specification:'Arial Heavy';stroke-width:0.264583;fill:#5fbcd3"
         d="m 35.502931,153.84823 c 0.806099,-0.19085 1.610497,-0.37704 2.413098,-0.5588 -0.344818,0.7216 -0.442263,1.42231 -0.325228,2.38736 0.880607,-0.18762 1.760093,-0.36709 2.638001,-0.53904 -0.106473,-0.97507 -0.01105,-1.67473 0.31258,-2.42883 0.802618,-0.17327 1.60386,-0.34247 2.403529,-0.50782 -0.853015,2.21257 0.735091,3.94778 1.051092,12.47598 -0.779918,0.0273 -1.559623,0.0607 -2.338186,0.10119 -0.128564,-3.19882 -0.632693,-5.58112 -0.969857,-7.16522 -0.866578,0.15549 -1.734032,0.31988 -2.601749,0.49406 0.361689,1.54162 0.897821,3.82385 1.032831,6.82993 -0.77349,0.057 -1.546458,0.12225 -2.318193,0.19688 -0.363241,-7.15574 -2.320132,-9.32849 -1.297918,-11.28569 z" />
      <path
         inkscape:original-d="m 50.344032,161.78384 h -2.666495 l -0.366901,1.25057 h -2.392612 l 2.847363,-7.57574 h 2.552807 l 2.847363,7.57574 h -2.449455 z m -0.490924,-1.63813 -0.837156,-2.72334 -0.831988,2.72334 z"
         id="path8804"
         style="font-style:normal;font-variant:normal;font-weight:900;font-stretch:normal;font-family:Arial;-inkscape-font-specification:'Arial Heavy';stroke-width:0.264583;fill:#5fbcd3"
         d="m 49.935166,160.4405 c -0.890043,0.0618 -1.78068,0.12946 -2.670427,0.20412 8.49e-4,1.1352 -0.01669,2.45643 -0.08694,3.9521 -0.795166,0.0129 -1.59036,0.0308 -2.384375,0.0545 0.696488,-9.60136 -0.41562,-9.80908 1.864427,-13.19328 0.863737,-0.16735 1.72632,-0.33075 2.587306,-0.49039 0.254512,2.33316 2.509861,3.54242 3.779802,13.60771 -0.816039,-0.005 -1.632788,-0.008 -2.448052,-0.007 -0.175449,-1.59308 -0.400351,-2.95813 -0.641738,-4.12778 z m -0.991997,-3.74691 c -0.548585,-1.65631 -1.027145,-2.71414 -1.310133,-3.59626 -0.293642,0.99997 -0.374441,2.08967 -0.378752,3.81101 0.563098,-0.0743 1.12615,-0.14582 1.688885,-0.21475 z" />
      <path
         inkscape:original-d="m 53.899361,155.45867 h 3.891223 c 0.847491,0 1.481386,0.20154 1.901686,0.60461 0.423745,0.40307 0.635618,0.97668 0.635618,1.72082 0,0.76481 -0.230821,1.36253 -0.692462,1.79317 -0.458196,0.43063 -1.159271,0.64595 -2.103224,0.64595 h -1.281571 v 2.81119 h -2.35127 z m 2.35127,3.22976 h 0.573607 c 0.451306,0 0.768254,-0.0775 0.950843,-0.23254 0.182589,-0.15847 0.273884,-0.36001 0.273884,-0.60461 0,-0.23771 -0.07924,-0.43925 -0.237711,-0.60461 -0.158474,-0.16537 -0.456474,-0.24805 -0.893999,-0.24805 h -0.666624 z"
         id="path8806"
         style="font-style:normal;font-variant:normal;font-weight:900;font-stretch:normal;font-family:Arial;-inkscape-font-specification:'Arial Heavy';stroke-width:0.264583;fill:#5fbcd3"
         d="m 52.861667,150.3166 c 1.306849,-0.22837 2.612543,-0.44937 3.914558,-0.6634 0.855702,-0.14067 1.437549,-0.001 1.808675,0.39379 0.373535,0.39358 0.531896,0.98233 0.566732,1.86979 0.03636,0.92621 -0.0806,1.87071 -0.460341,2.69128 -0.380558,0.82968 -1.009544,1.35099 -1.971909,1.43487 -0.43074,0.0375 -0.861669,0.0761 -1.292585,0.11559 0.235826,1.84561 0.562778,4.61503 0.684372,8.44834 -0.783899,-0.0104 -1.569032,-0.0194 -2.352402,-0.026 -0.323576,-10.1722 -1.518237,-11.55706 -0.8971,-14.26421 z m 2.24148,3.252 c 0.194046,-0.0228 0.388064,-0.0454 0.58204,-0.0678 0.459498,-0.053 0.765988,-0.19851 0.933977,-0.42928 0.166552,-0.23395 0.238556,-0.50442 0.22529,-0.79801 -0.01286,-0.28467 -0.09495,-0.50217 -0.253317,-0.66436 -0.157917,-0.16172 -0.455392,-0.20971 -0.899306,-0.14869 -0.22539,0.031 -0.450853,0.0622 -0.676371,0.0937 -0.02724,0.60567 0.0049,1.22659 0.08769,2.01446 z" />
      <path
         inkscape:original-d="m 61.547447,155.45867 h 3.891223 c 0.847491,0 1.481386,0.20154 1.901687,0.60461 0.423745,0.40307 0.635618,0.97668 0.635618,1.72082 0,0.76481 -0.230821,1.36253 -0.692462,1.79317 -0.458196,0.43063 -1.159271,0.64595 -2.103224,0.64595 h -1.281572 v 2.81119 h -2.35127 z m 2.35127,3.22976 h 0.573607 c 0.451306,0 0.768254,-0.0775 0.950843,-0.23254 0.18259,-0.15847 0.273885,-0.36001 0.273885,-0.60461 0,-0.23771 -0.07924,-0.43925 -0.237711,-0.60461 -0.158474,-0.16537 -0.456474,-0.24805 -0.894,-0.24805 h -0.666624 z"
         id="path8808"
         style="font-style:normal;font-variant:normal;font-weight:900;font-stretch:normal;font-family:Arial;-inkscape-font-specification:'Arial Heavy';stroke-width:0.264583;fill:#5fbcd3"
         d="m 60.542944,149.05111 c 1.297865,-0.20177 2.595969,-0.3979 3.890445,-0.5884 0.851012,-0.12524 1.444345,0.064 1.835328,0.53062 0.392248,0.4636 0.573443,1.13307 0.613695,2.09895 0.04187,1.0046 -0.08806,2.01364 -0.475588,2.8786 -0.389113,0.87612 -1.024149,1.42062 -1.983918,1.48508 -0.429769,0.0289 -0.859796,0.0583 -1.28971,0.0882 0.207231,1.98778 0.498993,4.99432 0.637507,9.18905 -0.261919,-0.004 -2.093713,-0.0363 -2.355632,-0.0407 -0.364379,-11.23732 -1.31429,-12.47998 -0.872127,-15.64141 z m 2.305066,3.70277 c 0.0016,-1.5e-4 0.578055,-0.0542 0.57963,-0.0543 0.457465,-0.0426 0.764175,-0.18969 0.932686,-0.43298 0.167001,-0.24661 0.239896,-0.53659 0.225611,-0.85603 -0.01386,-0.30982 -0.09837,-0.55105 -0.259035,-0.73526 -0.160382,-0.18388 -0.458442,-0.24778 -0.89993,-0.196 0.0015,-1.9e-4 -0.67414,0.0796 -0.672591,0.0794 -0.01318,0.67218 0.01925,1.34488 0.09363,2.19523 z" />
      <path
         inkscape:original-d="m 68.44106,155.45867 h 2.599317 l 1.529617,2.55797 1.529618,-2.55797 h 2.583813 l -2.945547,4.40282 v 3.17292 h -2.346103 v -3.17292 z"
         id="path8810"
         style="font-style:normal;font-variant:normal;font-weight:900;font-stretch:normal;font-family:Arial;-inkscape-font-specification:'Arial Heavy';stroke-width:0.264583;fill:#5fbcd3"
         d="m 67.4288,148.03078 c 0.863453,-0.12201 1.727132,-0.24192 2.589525,-0.35966 0.44194,1.22745 0.917076,2.10969 1.510288,3.31547 0.447226,-1.26761 0.97373,-2.32391 1.533729,-3.7228 0.856191,-0.11229 1.712922,-0.22274 2.568437,-0.33117 -1.099174,2.67013 -1.924197,3.78105 -2.675936,7.18024 0.184896,2.14336 0.489088,5.6471 0.673951,10.72013 -0.78374,-1.8e-4 -1.566321,-0.003 -2.35022,-0.007 -0.177716,-4.99943 -0.492174,-8.45431 -0.682633,-10.56551 -1.270527,-3.05561 -2.351825,-4.28064 -3.167141,-6.2294 z" />
      <path
         inkscape:original-d="m 80.998395,155.45867 h 3.477813 c 0.685572,0 1.238508,0.093 1.658808,0.27905 0.423745,0.18603 0.773422,0.45303 1.049029,0.80098 0.275607,0.34795 0.475421,0.75275 0.599444,1.21439 0.124023,0.46165 0.186035,0.95085 0.186035,1.46761 0,0.80959 -0.09302,1.43832 -0.279052,1.88618 -0.182589,0.44442 -0.437526,0.81821 -0.764809,1.12138 -0.327283,0.29972 -0.678681,0.49953 -1.054196,0.59944 -0.513317,0.13781 -0.978404,0.20671 -1.395259,0.20671 h -3.477813 z m 2.340935,1.71565 v 4.13927 h 0.573607 c 0.489202,0 0.837155,-0.0534 1.04386,-0.1602 0.206705,-0.11024 0.368624,-0.29972 0.485757,-0.56844 0.117133,-0.27216 0.1757,-0.71141 0.1757,-1.31774 0,-0.80271 -0.130913,-1.3522 -0.39274,-1.64847 -0.261827,-0.29628 -0.695907,-0.44442 -1.302242,-0.44442 z"
         id="path8812"
         style="font-style:normal;font-variant:normal;font-weight:900;font-stretch:normal;font-family:Arial;-inkscape-font-specification:'Arial Heavy';stroke-width:0.264583;fill:#5fbcd3"
         d="m 79.916342,146.40502 c 1.150102,-0.1374 2.302334,-0.27166 3.452057,-0.40209 0.683272,-0.0775 1.229153,0.0333 1.658543,0.31857 0.428817,0.28225 0.792559,0.70525 1.087995,1.23409 0.295187,0.52839 0.526259,1.13603 0.690535,1.85026 0.165479,0.71948 0.281401,1.52534 0.351119,2.5397 0.10961,1.59477 0.13386,3.28941 0.0331,4.72593 -0.09682,1.40903 -0.27259,2.84695 -0.535084,4.13835 -0.265274,1.28677 -0.569012,2.26124 -0.92545,2.76746 -0.486869,0.69791 -0.931676,1.07184 -1.351646,1.08589 -1.160453,0.0388 -2.318346,0.0705 -3.479404,0.0956 -0.503875,-12.84667 -0.985102,-13.98447 -0.981767,-18.35374 z m 2.383661,2.45009 c 0.08064,2.05651 0.288609,4.12803 0.574999,8.6874 -6.72e-4,3e-5 0.574826,-0.0257 0.574154,-0.0257 0.490685,-0.0221 0.825874,-0.21652 1.012376,-0.56748 0.185298,-0.36095 0.308773,-0.95683 0.376732,-1.70177 0.0677,-0.75869 0.04617,-1.87226 -0.03906,-3.07577 -0.108818,-1.53665 -0.29012,-2.35918 -0.57502,-2.79276 -0.285516,-0.43453 -0.730766,-0.62148 -1.338399,-0.57194 -2.68e-4,2e-5 -0.585514,0.048 -0.585782,0.048 z" />
      <path
         inkscape:original-d="m 89.287267,155.45867 h 2.346102 v 7.57574 h -2.346102 z"
         id="path8814"
         style="font-style:normal;font-variant:normal;font-weight:900;font-stretch:normal;font-family:Arial;-inkscape-font-specification:'Arial Heavy';stroke-width:0.264583;fill:#5fbcd3"
         d="m 88.143238,145.48218 c 0.776015,-0.0811 1.552816,-0.16051 2.329087,-0.23795 0.233765,4.98729 0.506591,6.11713 1.060119,19.08989 -0.781721,0.0456 -1.562666,0.0881 -2.344611,0.12751 -0.545959,-12.99288 -0.863552,-14.12445 -1.044595,-18.97945 z" />
      <path
         inkscape:original-d="m 93.323186,155.45867 h 2.185906 l 2.85253,4.19094 v -4.19094 h 2.206578 v 7.57574 h -2.206578 l -2.837027,-4.15994 v 4.15994 h -2.201409 z"
         id="path8816"
         style="font-style:normal;font-variant:normal;font-weight:900;font-stretch:normal;font-family:Arial;-inkscape-font-specification:'Arial Heavy';stroke-width:0.264583;fill:#5fbcd3"
         d="m 92.150467,145.07984 c 0.378957,-0.0364 0.75804,-0.0724 1.137107,-0.10784 0.344828,-0.0323 0.689771,-0.0641 1.034697,-0.0956 1.123285,2.79096 2.209879,4.4241 3.349114,7.44125 -0.156927,-2.65245 -0.326283,-5.13451 -0.512779,-7.69135 0.73147,-0.0622 1.464105,-0.1228 2.196333,-0.18154 0.340315,4.1833 0.605012,7.89208 1.102941,19.24273 -0.735041,0.0626 -1.469074,0.12306 -2.204083,0.18139 -1.252519,-6.93788 -2.417966,-10.42781 -3.538388,-12.99041 0.144358,2.26461 0.411597,6.47296 0.704542,13.20372 -0.351904,0.025 -0.703728,0.0494 -1.055652,0.0732 -0.381184,0.0258 -0.762277,0.0509 -1.1435,0.0753 -0.557558,-12.94135 -0.798332,-14.06973 -1.070332,-19.15091 z" />
      <path
         inkscape:original-d="m 101.83943,159.25171 c 0,-1.23679 0.34451,-2.19969 1.03353,-2.88871 0.68901,-0.68901 1.64847,-1.03352 2.87836,-1.03352 1.26091,0 2.23242,0.33934 2.91455,1.01802 0.68213,0.67523 1.02319,1.62263 1.02319,2.84219 0,0.88539 -0.14986,1.6123 -0.44959,2.18074 -0.29627,0.56499 -0.72691,1.00597 -1.2919,1.32292 -0.56155,0.3135 -1.26263,0.47025 -2.10323,0.47025 -0.85438,0 -1.56234,-0.13608 -2.12389,-0.40824 -0.55811,-0.27217 -1.01114,-0.7028 -1.35909,-1.29191 -0.34795,-0.58911 -0.52193,-1.32635 -0.52193,-2.21174 z m 2.34094,0.0103 c 0,0.76481 0.14125,1.3143 0.42374,1.64847 0.28594,0.33417 0.67351,0.50126 1.16272,0.50126 0.50298,0 0.89227,-0.16364 1.16788,-0.49092 0.27561,-0.32729 0.41341,-0.91467 0.41341,-1.76216 0,-0.71313 -0.14469,-1.23334 -0.43408,-1.56062 -0.28594,-0.33073 -0.67523,-0.4961 -1.16788,-0.4961 -0.47198,0 -0.85094,0.16709 -1.13688,0.50126 -0.28594,0.33417 -0.42891,0.88711 -0.42891,1.65881 z"
         id="path8818"
         style="font-style:normal;font-variant:normal;font-weight:900;font-stretch:normal;font-family:Arial;-inkscape-font-specification:'Arial Heavy';stroke-width:0.264583;fill:#5fbcd3"
         d="m 101.13203,151.33918 c -0.14505,-2.49371 0.0969,-3.89214 0.68038,-5.23022 0.5883,-1.34903 1.45013,-2.25967 2.68211,-2.34736 1.26571,-0.0901 2.31082,0.6842 3.15007,2.02981 0.82375,1.31502 1.31154,2.79429 1.43615,5.20035 0.0884,1.70642 0.007,3.61183 -0.22169,5.4058 -0.22626,1.78662 -0.58836,3.59711 -1.09374,5.03943 -0.51044,1.44913 -1.16147,2.32506 -2.00861,2.40973 -0.86101,0.0861 -1.5834,-0.54646 -2.20793,-1.76812 -0.61491,-1.20992 -1.14797,-3.04587 -1.59337,-5.01383 -0.44337,-1.95897 -0.71953,-3.94041 -0.82337,-5.72559 z m 2.36858,-0.0621 c 0.0859,1.53048 0.29778,2.99316 0.62815,3.94847 0.33825,0.9677 0.74366,1.5076 1.24007,1.48128 0.50921,-0.027 0.87002,-0.59404 1.10998,-1.55538 0.23523,-0.94247 0.31019,-2.52507 0.22069,-4.17175 -0.0764,-1.40635 -0.28676,-2.26218 -0.62428,-2.82677 -0.33458,-0.57089 -0.75508,-0.85274 -1.25269,-0.8336 -0.47707,0.0183 -0.83567,0.33207 -1.08163,0.92011 -0.24646,0.58926 -0.3276,1.48234 -0.24029,3.03764 z" />
      <path
         inkscape:original-d="m 110.55205,160.52811 2.22725,-0.13953 c 0.0483,0.36173 0.14645,0.63734 0.29455,0.82682 0.24116,0.30661 0.58567,0.45992 1.03353,0.45992 0.33417,0 0.59083,-0.0775 0.76998,-0.23254 0.18259,-0.15847 0.27388,-0.34106 0.27388,-0.54777 0,-0.19637 -0.0861,-0.37207 -0.25838,-0.5271 -0.17225,-0.15503 -0.57188,-0.30144 -1.19889,-0.43925 -1.02663,-0.23082 -1.75871,-0.53743 -2.19624,-0.91983 -0.44097,-0.38241 -0.66146,-0.86989 -0.66146,-1.46244 0,-0.38929 0.11197,-0.7562 0.3359,-1.10071 0.22737,-0.34795 0.56671,-0.62011 1.01802,-0.81648 0.45475,-0.19981 1.07659,-0.29972 1.86551,-0.29972 0.96807,0 1.70532,0.18087 2.21175,0.5426 0.50987,0.35829 0.81304,0.93017 0.9095,1.71565 l -2.20658,0.12919 c -0.0586,-0.34106 -0.18262,-0.58911 -0.37207,-0.74414 -0.18603,-0.15503 -0.44441,-0.23254 -0.77514,-0.23254 -0.27216,0 -0.47714,0.0586 -0.61495,0.1757 -0.1378,0.11369 -0.2067,0.25321 -0.2067,0.41858 0,0.12057 0.0568,0.22909 0.17053,0.32556 0.11024,0.0999 0.37207,0.19292 0.78548,0.27905 1.02319,0.22049 1.75527,0.44442 2.19624,0.67179 0.44441,0.22393 0.76653,0.50299 0.96635,0.83716 0.20326,0.33417 0.30489,0.70796 0.30489,1.12137 0,0.48576 -0.13436,0.93362 -0.40308,1.34358 -0.26871,0.40997 -0.64423,0.72175 -1.12654,0.93534 -0.48231,0.21015 -1.09037,0.31523 -1.82417,0.31523 -1.28847,0 -2.18075,-0.24805 -2.67684,-0.74414 -0.49609,-0.49609 -0.77686,-1.12654 -0.84232,-1.89135 z"
         id="path8820"
         style="font-style:normal;font-variant:normal;font-weight:900;font-stretch:normal;font-family:Arial;-inkscape-font-specification:'Arial Heavy';stroke-width:0.264583;fill:#5fbcd3"
         d="m 110.09005,153.9596 c 0.74726,-0.13976 1.49579,-0.27366 2.24556,-0.40124 0.0816,0.88178 0.20743,1.6521 0.37683,2.20483 0.27903,0.90527 0.63741,1.40191 1.09289,1.38106 0.33846,-0.0155 0.58695,-0.28219 0.7541,-0.76517 0.16924,-0.49052 0.24558,-1.02114 0.22836,-1.57429 -0.0164,-0.52517 -0.11754,-0.95996 -0.3052,-1.32845 -0.18734,-0.3679 -0.60643,-0.6978 -1.25653,-0.99591 -1.06398,-0.4991 -1.83936,-1.13853 -2.32251,-1.86529 -0.4886,-0.72967 -0.76456,-1.59858 -0.85057,-2.64795 -0.057,-0.6957 -0.007,-1.37341 0.14687,-2.07122 0.15641,-0.70247 0.42934,-1.3255 0.82721,-1.80815 0.40309,-0.49428 0.98858,-0.78628 1.78462,-0.82382 0.97962,-0.0462 1.77593,0.40334 2.40908,1.25097 0.62273,0.82233 1.09807,2.0787 1.31836,3.50411 -0.74788,0.071 -1.49516,0.14497 -2.24152,0.22183 -0.10975,-0.6165 -0.28377,-1.08607 -0.50657,-1.38131 -0.22071,-0.29713 -0.49959,-0.44733 -0.8368,-0.44207 -0.27747,0.004 -0.47311,0.12372 -0.5913,0.35019 -0.11863,0.21955 -0.16362,0.4822 -0.13651,0.78528 0.0198,0.22102 0.0943,0.41672 0.22456,0.58987 0.12723,0.17938 0.4075,0.34461 0.84176,0.49891 1.075,0.39478 1.85407,0.80687 2.32901,1.2289 0.47807,0.41573 0.83634,0.94155 1.0655,1.60799 0.23418,0.67085 0.36172,1.45899 0.38915,2.46511 0.0322,1.18087 -0.0722,2.46895 -0.30259,3.85048 -0.23077,1.38408 -0.5662,2.66029 -1.0171,3.61071 -0.45522,0.94367 -1.03614,1.50586 -1.77466,1.58389 -1.30146,0.1375 -2.21921,-0.98623 -2.80905,-2.98566 -0.57582,-1.95192 -0.93984,-4.1081 -1.08295,-6.0436 z" />
      <path
         inkscape:original-d="m 123.26958,161.78384 h -2.6665 l -0.3669,1.25057 h -2.39261 l 2.84736,-7.57574 h 2.55281 l 2.84736,7.57574 h -2.44945 z m -0.49092,-1.63813 -0.83716,-2.72334 -0.83199,2.72334 z"
         id="path8822"
         style="font-style:normal;font-variant:normal;font-weight:900;font-stretch:normal;font-family:Arial;-inkscape-font-specification:'Arial Heavy';stroke-width:0.264583;fill:#5fbcd3"
         d="m 123.09734,157.19042 c -0.90392,0.012 -1.8075,0.0306 -2.70893,0.0547 -0.0953,1.2976 -0.18023,2.7922 -0.24603,4.55979 -0.80082,0.0712 -1.60246,0.14521 -2.40218,0.22084 0.56398,-11.06147 1.88351,-11.80771 1.82941,-18.63812 0.86514,-0.0135 1.73318,-0.0216 2.60216,-0.0234 2.11815,7.20528 2.6632,8.12377 3.86519,17.97776 -0.82365,0.0542 -1.64719,0.11363 -2.46919,0.17709 -0.17072,-1.66287 -0.3241,-3.08225 -0.47043,-4.32866 z m -0.56119,-4.13414 c -0.3211,-1.95569 -0.66271,-3.46547 -1.11922,-5.23197 -0.11915,1.73336 -0.35417,3.2244 -0.59578,5.18157 0.57096,0.0138 1.14275,0.0305 1.715,0.0504 z" />
      <path
         inkscape:original-d="m 131.41376,155.45867 h 2.33577 v 4.5165 c 0,0.44786 -0.0706,0.87161 -0.21187,1.27124 -0.13781,0.39619 -0.35657,0.74414 -0.65629,1.04386 -0.29628,0.29628 -0.60806,0.50471 -0.93534,0.62528 -0.45475,0.16881 -1.0008,0.25322 -1.63814,0.25322 -0.36863,0 -0.7717,-0.0258 -1.20922,-0.0775 -0.43409,-0.0517 -0.79754,-0.1533 -1.09037,-0.30489 -0.29283,-0.15503 -0.56155,-0.37379 -0.80615,-0.65629 -0.24116,-0.28249 -0.40653,-0.5736 -0.4961,-0.87333 -0.14469,-0.48231 -0.21704,-0.9095 -0.21704,-1.28157 v -4.5165 h 2.33577 v 4.62502 c 0,0.41341 0.11369,0.73725 0.34106,0.97152 0.23083,0.23082 0.5495,0.34623 0.95602,0.34623 0.40307,0 0.7183,-0.11369 0.94567,-0.34106 0.23082,-0.23083 0.34623,-0.55639 0.34623,-0.97669 z"
         id="path8824"
         style="font-style:normal;font-variant:normal;font-weight:900;font-stretch:normal;font-family:Arial;-inkscape-font-specification:'Arial Heavy';stroke-width:0.264583;fill:#5fbcd3"
         d="m 130.58756,143.57151 c 0.8091,0.0446 1.6211,0.0973 2.43498,0.15923 0.85605,4.86902 0.95274,7.13968 0.90254,9.90684 -0.0149,0.82359 -0.11625,1.6532 -0.2851,2.52707 -0.16421,0.86205 -0.41028,1.7396 -0.72331,2.57211 -0.31252,0.83118 -0.62582,1.50612 -0.95753,1.91714 -0.46173,0.57646 -1.00425,0.9134 -1.65196,0.94571 -0.37382,0.0186 -0.78115,-0.0549 -1.22771,-0.22322 -0.44345,-0.16863 -0.81515,-0.52551 -1.12121,-1.04826 -0.30575,-0.53401 -0.58677,-1.26741 -0.84424,-2.12948 -0.25311,-0.85921 -0.42601,-1.66902 -0.51993,-2.42774 -0.15171,-1.22091 -0.22717,-2.13089 -0.23365,-2.87798 -0.0262,-3.01911 -0.14587,-5.12051 -0.863,-9.50332 0.8002,0.0143 1.60302,0.0349 2.40723,0.0625 0.77996,4.63618 0.88074,6.78187 0.8789,9.83695 -4.9e-4,0.82117 0.11133,1.54637 0.34204,2.1047 0.23658,0.55581 0.55787,0.8594 0.97861,0.88135 0.41638,0.0217 0.74138,-0.24206 0.98571,-0.73973 0.24545,-0.49997 0.38044,-1.18572 0.38878,-1.98969 0.0307,-2.95597 -0.0604,-5.16097 -0.89115,-9.97419 z" />
      <path
         inkscape:original-d="m 135.34115,163.03441 v -7.57574 h 3.90156 c 0.72347,0 1.2764,0.062 1.65881,0.18603 0.38241,0.12403 0.69074,0.35485 0.92501,0.69246 0.23426,0.33417 0.35139,0.74242 0.35139,1.22473 0,0.4203 -0.0896,0.78376 -0.26871,1.09037 -0.17915,0.30317 -0.42547,0.54949 -0.73897,0.73897 -0.19982,0.12058 -0.47371,0.22049 -0.82166,0.29972 0.27905,0.093 0.48231,0.18604 0.60978,0.27906 0.0861,0.062 0.21015,0.19463 0.37207,0.3979 0.16537,0.20326 0.27561,0.36001 0.33073,0.47026 l 1.13171,2.19624 h -2.64582 l -1.25057,-2.3151 c -0.15847,-0.29972 -0.29972,-0.49437 -0.42374,-0.58394 -0.16881,-0.11713 -0.36002,-0.1757 -0.57361,-0.1757 h -0.20671 v 3.07474 z m 2.35127,-4.50617 h 0.98702 c 0.1068,0 0.31351,-0.0345 0.62012,-0.10335 0.15503,-0.031 0.28077,-0.11024 0.37723,-0.23772 0.0999,-0.12747 0.14986,-0.27388 0.14986,-0.43924 0,-0.24461 -0.0775,-0.43236 -0.23254,-0.56327 -0.15503,-0.13091 -0.44614,-0.19637 -0.87333,-0.19637 h -1.02836 z"
         id="path8826"
         style="font-style:normal;font-variant:normal;font-weight:900;font-stretch:normal;font-family:Arial;-inkscape-font-specification:'Arial Heavy';stroke-width:0.264583;fill:#5fbcd3"
         d="m 135.41529,161.01046 c 0.0348,-7.87256 0.74068,-8.88822 -0.72505,-17.13994 1.3648,0.12521 2.73935,0.27847 4.11975,0.46512 0.77089,0.10423 1.3963,0.41645 1.88459,0.91975 0.48524,0.50015 0.95327,1.35556 1.35708,2.41832 0.40063,1.04819 0.66677,2.17101 0.75561,3.24226 0.0771,0.92951 0.002,1.59758 -0.1845,2.09925 -0.18577,0.49376 -0.46447,0.84351 -0.80835,1.07818 -0.22024,0.14997 -0.52052,0.24659 -0.89689,0.29524 0.29089,0.22308 0.49996,0.42798 0.62682,0.61339 0.085,0.12283 0.20593,0.37521 0.35291,0.75203 0.15103,0.37863 0.24635,0.67197 0.28911,0.87428 0.29524,1.34343 0.56429,2.82003 0.86706,4.70696 -0.90935,-0.0801 -1.81693,-0.14368 -2.72223,-0.19256 -0.36713,-2.16095 -0.69273,-3.81103 -1.04845,-5.29209 -0.13385,-0.57155 -0.26884,-0.94069 -0.39179,-1.12022 -0.16881,-0.23761 -0.36828,-0.37825 -0.5939,-0.42033 -0.0729,-0.0136 -0.1458,-0.0271 -0.21867,-0.0405 -0.0666,1.79085 -0.21678,3.71513 -0.26234,6.77344 -0.80149,-0.0207 -1.60191,-0.0311 -2.40076,-0.0326 z m 2.68006,-9.25606 c 0.35106,0.0699 0.70258,0.14211 1.05451,0.21686 0.11383,0.0242 0.33412,0.008 0.65819,-0.0475 0.1637,-0.021 0.29499,-0.13844 0.38664,-0.36116 0.0956,-0.22248 0.13286,-0.50163 0.10708,-0.84817 -0.0382,-0.51303 -0.16503,-0.96259 -0.36458,-1.30528 -0.20088,-0.34499 -0.532,-0.56974 -0.99035,-0.65711 -0.36733,-0.07 -0.73417,-0.13743 -1.10044,-0.20234 0.14634,1.23441 0.22036,2.2622 0.24895,3.20466 z" />
    </g>
    <g
       inkscape:path-effect="#path-effect8882"
       transform="translate(-20.788691,23.056548)"
       id="g8880">
      <path
         inkscape:original-d="m 397.89844,739.43164 c -56.12808,0.15368 -95.62726,21.34584 -136.07339,41.41566 L 81.060547,791.95898 C 69.613439,779.51656 47.400586,771.75591 23.234375,771.75586 c -36.263683,-8e-5 -65.661032,17.18641 -65.660156,38.38672 9.76e-4,21.19954 29.397782,38.38484 65.660156,38.38476 19.74149,-9e-5 38.435209,-5.19298 50.904297,-14.14062 l 174.553218,9.09137 c 43.23721,24.23475 90.78977,47.47703 149.81397,47.47699 57.69081,-3.6e-4 122.60049,-7.07165 138.75347,-39.39654 L 904.0861,804.08137 735.39062,797.00977 542.69837,785.89809 c -38.56946,-22.70795 -84.50358,-46.46624 -144.19251,-46.46645 -0.20247,-2.8e-4 -0.40495,-2.8e-4 -0.60742,0 z"
         id="path8835"
         style="fill:#5fbcd3;fill-opacity:0.996078;stroke-width:4.0252;stroke-linecap:square"
         d="m 398.96539,774.33526 c -56.18691,-2.50904 -97.61206,12.50591 -143.79493,28.23373 -0.49818,-0.0166 -0.9965,-0.0331 -1.49495,-0.0495 -1.40669,1.29998 -5.30789,0.15949 -9.06705,-1.78802 -5.72359,-3.06839 -11.83362,-11.2704 -19.63915,-21.92291 0,0 0,0 0,0 -7.73456,-11.21392 -15.38304,-25.04314 -24.48715,-40.26474 -7.77748,-13.62593 -18.0527,-29.68811 -32.70853,-45.87848 -1.85666,-1.91441 -3.75054,-3.73477 -5.6777,-5.4616 -5.16105,-12.89592 -18.61538,-28.93906 -39.13649,-37.33677 -17.34206,-7.2519 -35.310005,-10.59124 -50.13719,-9.80566 10e-7,0 -5e-6,0 -5e-6,0 -1.966865,0.037 -3.915484,0.1142 -5.842368,0.23052 -23.703541,1.431 -40.082649,8.31425 -50.022872,15.69398 -9.8720905,7.32915 -15.99941913,17.00824 -15.8766675,26.89248 0.1279501,10.29913 7.0965882,19.29051 20.3873845,24.95339 13.499156,5.75166 30.775594,7.08341 49.897808,5.94368 1.521857,-0.0907 3.035931,-0.19567 4.538074,-0.31241 10e-7,0 2e-6,0 3e-6,0 11.021169,-0.81098 21.171728,-2.28275 31.055643,-2.85258 7.04489,-0.41331 13.60396,-0.20747 20.38523,0.42474 3.38441,2.54609 6.48194,5.48974 9.18629,8.81173 9.92222,12.56787 16.84644,26.51438 23.25207,40.20937 0,0 0,0 0,0 7.07293,15.03462 13.50636,30.15014 21.13102,44.64552 7.27426,13.79191 15.53865,27.20756 26.83945,38.08879 7.90216,7.60959 17.54097,13.62816 28.14798,17.16392 3.47208,3.14253 7.44789,6.03106 11.95373,8.51211 40.00638,24.16584 85.86742,48.17835 144.7117,51.0494 0.40329,0.0197 0.80699,0.0389 1.21109,0.0577 31.82914,1.6215 65.16323,0.42963 94.20176,-7.03079 28.66234,-7.36377 49.7277,-20.14143 55.58845,-37.01945 0.36984,-0.11215 0.73951,-0.22483 1.109,-0.33804 10e-6,0 10e-6,0 2e-5,-10e-6 69.28433,-21.51015 139.39386,-41.18668 213.08024,-50.5636 31.38058,-3.99666 63.68489,-5.90464 96.85982,-3.51404 28.84647,2.00914 58.67938,7.87841 88.0475,20.2552 -27.38297,-15.98754 -56.76531,-26.23718 -85.81223,-32.41385 -10e-6,0 -10e-6,0 -10e-6,0 -33.3724,-7.22836 -66.82984,-10.25116 -99.41408,-10.93664 -2.53384,-0.0551 -5.06614,-0.0987 -7.59687,-0.13099 -72.13318,-1.89071 -143.24639,5.35176 -212.07132,14.65678 -1.68821,-0.51613 -3.38732,-1.03016 -5.09768,-1.54094 -35.65725,-13.42187 -77.08999,-34.35446 -132.03022,-36.58132 -0.35938,-0.0182 -0.71946,-0.0357 -1.08023,-0.0526 -0.19879,-0.01 -0.39766,-0.0189 -0.59657,-0.0281 z"
         transform="scale(0.26458333)"
         sodipodi:nodetypes="cccsssccccccccc" />
      <path
         inkscape:original-d="m 717.20898,822.26367 c 0,0 -172.73613,1.1e-4 -219.20312,35.35547 -46.46702,35.35533 -151.52351,14.14218 -171.72656,10.10156 -20.20305,-4.04061 -60.60938,-43.43554 -60.60938,-43.43554 L 79.802734,823.27344 67.259766,838.60352 c 2.451288,-1.29593 4.761315,-2.69725 6.878906,-4.2168 l 174.552738,9.0918 c 43.23721,24.23474 90.79023,47.4766 149.81445,47.47656 57.69082,-3.4e-4 122.60092,-7.07162 138.75391,-39.39649 l 184.34961,-23.85937 z"
         id="path8856"
         style="fill:#9bd5e4;fill-opacity:0.996078;stroke:none;stroke-width:0.999999px;stroke-linecap:butt;stroke-linejoin:miter;stroke-opacity:1"
         d="m 730.59908,822.76326 c 0,0 -30.1594,1.1893 -68.76707,7.86343 -39.50482,6.82921 -84.32021,18.62092 -119.08882,34.21856 -16.76928,7.54456 -31.34517,14.45156 -40.85395,22.04713 -25.35256,20.25148 -68.84817,23.23065 -107.494,19.62475 -36.13754,-3.24441 -68.35655,-12.07319 -78.29709,-14.76506 -21.15014,-5.72739 -60.51842,-47.32155 -60.51842,-47.32155 -1.85179,-0.17452 -3.70423,-0.34813 -5.55734,-0.52062 -11.08201,-0.88397 -22.16979,-6.23032 -30.99194,-13.98889 -9.70518,-8.36402 -17.48122,-20.11741 -25.07159,-32.88639 -10e-6,0 -10e-6,-10e-6 -10e-6,-10e-6 -7.82409,-13.42564 -14.79948,-28.08976 -22.63821,-43.07697 -6.96789,-13.58378 -15.01532,-28.03011 -26.37667,-41.43039 -1.59685,-1.78865 -3.26936,-3.47112 -5.0076,-5.04687 -7.93353,-0.57111 -15.20477,0.62395 -21.59976,2.96525 3.06849,0.0963 6.01891,0.31077 9.00787,0.58943 3.3844,2.5461 6.48193,5.48975 9.18627,8.81175 9.92219,12.56789 16.84638,26.51441 23.25198,40.20941 7.07289,15.03463 13.50628,30.15017 21.13091,44.64559 7.27424,13.79194 15.53861,27.20763 26.83943,38.08893 7.90206,7.60953 17.54073,13.62808 28.14761,17.1639 3.47222,3.14269 7.44821,6.03136 11.95429,8.5125 40.00633,24.16568 85.86767,48.17772 144.71175,51.04876 0.40329,0.0197 0.80699,0.0389 1.21109,0.0577 31.82915,1.62151 65.16335,0.42965 94.20202,-7.03078 28.66246,-7.36378 49.72793,-20.14147 55.58867,-37.0195 0.36969,-0.1121 0.7392,-0.22473 1.10854,-0.3379 62.3015,-19.34212 125.27024,-37.2016 190.90688,-47.42287 -1.65228,-1.67143 -3.31398,-3.33785 -4.98484,-4.99932 z"
         transform="scale(0.26458333)" />
      <path
         sodipodi:type="rect"
         d="m 85.672951,235.60402 c 4.560776,0.38836 9.141857,0.74287 13.745849,1.0229 l -1.196688,19.6983 c -4.8229,-0.2944 -9.564097,-0.65952 -14.226197,-1.05472 z"
         style="fill:#5fbcd3;fill-opacity:0.996078;stroke-width:1.065;stroke-linecap:square"
         id="rect8841"
         width="12.828938"
         height="20.579754"
         x="88.198944"
         y="229.04999" />
      <path
         sodipodi:type="rect"
         d="m 112.711,236.95848 c 4.93954,0.12027 9.92362,0.10291 14.9283,-0.1524 l 1.00582,20.21873 c -5.64309,0.30936 -11.12537,0.34728 -16.42291,0.21411 z"
         style="fill:#5fbcd3;fill-opacity:0.996078;stroke-width:1.065;stroke-linecap:square"
         id="rect8843"
         width="13.630746"
         height="21.114292"
         x="113.32228"
         y="228.78271" />
      <circle
         d="m 29.467545,176.63008 c -0.381251,1.8995 -3.307384,3.01165 -5.868612,2.90277 -1.640071,-0.0697 -3.088117,-0.6175 -3.969449,-1.56167 -0.517803,-0.56497 -0.820215,-1.24124 -0.856764,-1.94621 -0.03653,-0.70467 0.194675,-1.41108 0.690165,-2.02238 0.847146,-1.06749 2.416476,-1.74739 4.38892,-1.65415 1.54823,0.0732 3.112302,0.62296 4.216656,1.47331 1.108708,0.8537 1.586572,1.87422 1.399084,2.80833 z"
         style="fill:#ffffff;fill-opacity:0.996078;stroke-width:1.20148;stroke-linecap:square"
         id="path8847"
         cx="10.423512"
         cy="211.14293"
         r="3.7417734" />
      <path
         inkscape:original-d="m 2.4568452,223.95089 c 0,0 9.1659228,-1.5119 11.8117558,-5.48065"
         style="fill:none;stroke:#000000;stroke-width:0.264583px;stroke-linecap:butt;stroke-linejoin:miter;stroke-opacity:1"
         d="m 14.984049,188.63709 c 0,0 2.316391,-0.6221 5.027836,-1.55666 2.277758,-0.78535 6.553513,-2.32352 8.205952,-3.5497"
         id="path8849" />
    </g>
  </g>
</svg>
