<?xml version="1.0" encoding="UTF-8" standalone="no"?>
<svg
   xmlns:dc="http://purl.org/dc/elements/1.1/"
   xmlns:cc="http://creativecommons.org/ns#"
   xmlns:rdf="http://www.w3.org/1999/02/22-rdf-syntax-ns#"
   xmlns:svg="http://www.w3.org/2000/svg"
   xmlns="http://www.w3.org/2000/svg"
   xmlns:xlink="http://www.w3.org/1999/xlink"
   xmlns:sodipodi="http://sodipodi.sourceforge.net/DTD/sodipodi-0.dtd"
   xmlns:inkscape="http://www.inkscape.org/namespaces/inkscape"
   sodipodi:docname="drawing-firekitty-gradient.svg"
   inkscape:version="1.0 (4035a4fb49, 2020-05-01)"
   id="svg8"
   version="1.1"
   viewBox="0 0 210 297"
   height="297mm"
   width="210mm">
  <defs
     id="defs2">
    <linearGradient
       id="linearGradient6776"
       inkscape:collect="always">
      <stop
         style="stop-color:#ffffff;stop-opacity:0;"
         offset="0"
         id="stop6774" />
      <stop
         style="stop-color:#58ffff;stop-opacity:1"
         offset="1"
         id="stop6772" />
    </linearGradient>
    <linearGradient
       id="linearGradient6766"
       inkscape:collect="always">
      <stop
         id="stop6762"
         offset="0"
         style="stop-color:#fece12;stop-opacity:1" />
      <stop
         id="stop6764"
         offset="1"
         style="stop-color:#e77d05;stop-opacity:0;" />
    </linearGradient>
    <linearGradient
       id="linearGradient6756"
       inkscape:collect="always">
      <stop
         id="stop6752"
         offset="0"
         style="stop-color:#fbb30e;stop-opacity:1" />
      <stop
         id="stop6754"
         offset="1"
         style="stop-color:#f6a80c;stop-opacity:1" />
    </linearGradient>
    <linearGradient
       id="linearGradient1443"
       inkscape:collect="always">
      <stop
         id="stop1439"
         offset="0"
         style="stop-color:#ffd712;stop-opacity:1" />
      <stop
         id="stop1441"
         offset="1"
         style="stop-color:#f9880e;stop-opacity:1" />
    </linearGradient>
    <linearGradient
       inkscape:collect="always"
       id="linearGradient2145">
      <stop
         style="stop-color:#abdce8;stop-opacity:1"
         offset="0"
         id="stop2141" />
      <stop
         style="stop-color:#87cdde;stop-opacity:1"
         offset="1"
         id="stop2143" />
    </linearGradient>
    <linearGradient
       inkscape:collect="always"
       id="linearGradient2137">
      <stop
         style="stop-color:#89c7ff;stop-opacity:1"
         offset="0"
         id="stop2133" />
      <stop
         style="stop-color:#0062f7;stop-opacity:1"
         offset="1"
         id="stop2135" />
    </linearGradient>
    <inkscape:path-effect
       only_selected="false"
       apply_with_weight="true"
       apply_no_weight="true"
       helper_size="0"
       steps="2"
       weight="33.333333"
       lpeversion="1"
       is_visible="true"
       id="path-effect951"
       effect="bspline" />
    <clipPath
       id="clipPath910"
       clipPathUnits="userSpaceOnUse">
      <path
         d="M 220,387.85742 V 506.42773 H 336.42773 V 387.85742 h -17.08789 c -0.22138,0.26284 -0.4338,0.5339 -0.67187,0.78125 -0.38816,0.40347 -0.81067,0.77089 -1.2168,1.15625 -0.41881,0.22383 -0.82542,0.47572 -1.25781,0.67188 -0.13973,0.0635 -0.29427,0.0902 -0.44727,0.10156 -0.0684,0.005 -0.14223,-0.089 -0.19921,-0.0508 -2.22541,1.49076 -3.34673,4.17443 -5.21094,6.00976 -1.04099,0.98892 -1.99412,2.07963 -3.12305,2.9668 -3.77755,2.96867 -9.34974,4.64274 -14.13477,4.21289 -1.27917,-0.1149 -2.526,-0.46445 -3.78906,-0.69726 -0.84837,-0.56123 -1.82077,-0.96923 -2.54492,-1.6836 -2.96751,-2.92743 -4.29462,-8.45158 -5.15039,-13.46875 z m 64.63086,0 c 0.42333,2.04445 0.9381,4.06829 1.62695,6.03906 0.6163,1.76319 1.53436,4.20509 3.07031,5.53125 0.44696,0.38589 1.07667,0.4843 1.61524,0.72657 0.86696,0.0616 1.73292,0.21578 2.60156,0.18554 2.80714,-0.0979 6.59497,-1.02087 9.07227,-2.34375 2.42376,-1.2943 2.92464,-2.27139 4.7539,-4.34961 1.62247,-1.87215 2.89763,-4.17588 4.82422,-5.78906 z"
         style="fill:#ff0000;fill-opacity:1;fill-rule:nonzero;stroke:none"
         id="path912" />
    </clipPath>
    <clipPath
       id="clipPath1018"
       clipPathUnits="userSpaceOnUse">
      <path
         d="m 72.567662,39.960867 v 17.364316 h 7.33909 c -0.132877,-0.506574 -0.265531,-1.013203 -0.398426,-1.519803 -0.375325,-1.430727 0.307705,0.206557 0.857311,1.519803 h 0.202054 L 80.05558,55.68859 c -0.07551,0.02178 -0.08112,0.01865 -0.0072,-0.02326 l 0.0072,0.02326 c 0.03481,-0.01003 0.04943,-0.01349 0.14056,-0.04237 0.176,-0.05579 0.344942,-0.135356 0.524515,-0.178284 0.846402,-0.202359 0.871582,-0.186585 1.702221,-0.104905 0.1418,0.01394 0.281908,0.04329 0.422714,0.06511 -0.469591,0.112456 0.598956,-0.07302 0.80822,-0.130741 0.803632,-0.221668 0.851807,-0.311841 1.634524,-0.453721 0.07434,-0.01344 0.150792,0.0011 0.226343,0.0016 0.171982,-0.06595 0.344266,-0.131968 0.516247,-0.197918 -0.0051,0.01643 -0.03239,0.05291 -0.0155,0.04961 0.062,-0.0122 0.156062,-0.141229 0.172082,-0.0801 0.0041,0.01564 -7.94e-4,0.02998 -0.0047,0.04444 0.07323,-0.151961 0.146394,-0.303826 0.219625,-0.455787 -0.03631,0.116978 -0.167317,0.458613 -0.109038,0.350885 0.06581,-0.121642 0.113851,-0.251867 0.160714,-0.382408 -0.0072,0.0034 -0.01283,0.0043 -0.01138,-0.0026 0.01093,-0.05141 0.05238,-0.139237 0.07028,-0.172083 0.03437,-0.221736 0.05728,-0.445151 0.08682,-0.66766 0.07305,-0.364302 0.146058,-0.728654 0.219109,-1.092957 0.07928,-0.304704 0.298527,-1.264065 0.513662,-1.749763 l -0.07855,-0.132808 c -0.06296,-0.321106 -0.18292,-0.636082 -0.188619,-0.96325 -0.0084,-0.477507 0.09323,-0.937937 0.254246,-1.382861 -0.237768,-0.03904 -0.474083,-0.08481 -0.706417,-0.149346 -0.109309,-0.03036 -0.03852,-0.223933 -0.04857,-0.336929 -0.01831,-0.205501 -0.03198,-0.411779 -0.03617,-0.61805 -0.02249,-1.102128 0.04451,-2.204167 0.218591,-3.293341 0.195744,-1.224687 0.879115,-1.778391 1.506884,-1.752346 0.509772,0.02114 0.981988,0.425522 1.12758,1.163236 0.133297,-0.247753 0.261691,-0.522783 0.495578,-0.481108 0.01871,0.0033 0.03624,0.01013 0.05478,0.01394 V 39.96083 Z m 13.945405,14.038422 c -0.0013,0.0078 -0.0024,0.0155 -0.0036,0.02326 0.0061,-0.01617 0.01185,-0.0325 0.0181,-0.04858 0.0069,-0.01773 -0.008,0.01344 -0.01447,0.02532 z m -0.0036,0.02326 c -0.01881,0.05028 -0.03712,0.100801 -0.05529,0.15141 0.01413,-0.0066 0.03669,-0.02662 0.03928,-0.04031 0.0069,-0.03682 0.01011,-0.07413 0.01601,-0.111103 z m 3.422531,-5.327841 c -0.08865,0.205886 -0.169505,0.415108 -0.225825,0.631486 -0.1413,0.542812 0.0047,0.343395 0.101286,0.239261 -0.01132,-0.05749 -0.09253,-0.168098 -0.03411,-0.172599 0.06773,-0.0052 0.09325,0.102561 0.117822,0.165881 0.01228,0.03161 0.02723,0.0635 0.04082,0.09509 z m 0,2.538346 c -0.120237,0.32107 -0.261358,0.641771 -0.342614,0.907439 -0.07504,0.245343 -0.118864,0.499206 -0.178285,0.74879 -0.222985,0.735814 -0.164793,1.498078 -0.462504,2.211752 -0.06154,0.147511 -0.08769,0.468215 -0.238745,0.415994 -0.0035,-0.0013 -0.0053,-0.0039 -0.0083,-0.0057 -0.03895,0.08054 -0.07949,0.160239 -0.119372,0.240294 0.198533,-0.07055 0.261433,-0.103939 -0.223242,0.464055 -0.285345,0.334399 -0.675904,0.674955 -1.097608,0.845426 -0.824643,0.333357 -0.440896,0.03694 -0.694015,0.240813 -0.04906,0.0053 -0.09698,0.0163 -0.145727,0.02326 h 3.51038 z m -3.774445,3.480409 c -0.03364,0.04643 -0.08328,0.09151 -0.100254,0.143658 -0.01693,0.05205 0.06386,-0.08924 0.0956,-0.133842 0.0016,-0.0033 0.0031,-0.0066 0.0047,-0.0098 z"
         style="fill:#ff0000;fill-opacity:1;fill-rule:nonzero;stroke:none;stroke-width:0.264583"
         id="path1020" />
    </clipPath>
    <clipPath
       clipPathUnits="userSpaceOnUse"
       id="clipPath1018-9">
      <path
         id="path1020-1"
         style="fill:#ff0000;fill-opacity:1;fill-rule:nonzero;stroke:none;stroke-width:0.264583"
         d="m 72.567662,39.960867 v 17.364316 h 7.33909 c -0.132877,-0.506574 -0.265531,-1.013203 -0.398426,-1.519803 -0.375325,-1.430727 0.307705,0.206557 0.857311,1.519803 h 0.202054 L 80.05558,55.68859 c -0.07551,0.02178 -0.08112,0.01865 -0.0072,-0.02326 l 0.0072,0.02326 c 0.03481,-0.01003 0.04943,-0.01349 0.14056,-0.04237 0.176,-0.05579 0.344942,-0.135356 0.524515,-0.178284 0.846402,-0.202359 0.871582,-0.186585 1.702221,-0.104905 0.1418,0.01394 0.281908,0.04329 0.422714,0.06511 -0.469591,0.112456 0.598956,-0.07302 0.80822,-0.130741 0.803632,-0.221668 0.851807,-0.311841 1.634524,-0.453721 0.07434,-0.01344 0.150792,0.0011 0.226343,0.0016 0.171982,-0.06595 0.344266,-0.131968 0.516247,-0.197918 -0.0051,0.01643 -0.03239,0.05291 -0.0155,0.04961 0.062,-0.0122 0.156062,-0.141229 0.172082,-0.0801 0.0041,0.01564 -7.94e-4,0.02998 -0.0047,0.04444 0.07323,-0.151961 0.146394,-0.303826 0.219625,-0.455787 -0.03631,0.116978 -0.167317,0.458613 -0.109038,0.350885 0.06581,-0.121642 0.113851,-0.251867 0.160714,-0.382408 -0.0072,0.0034 -0.01283,0.0043 -0.01138,-0.0026 0.01093,-0.05141 0.05238,-0.139237 0.07028,-0.172083 0.03437,-0.221736 0.05728,-0.445151 0.08682,-0.66766 0.07305,-0.364302 0.146058,-0.728654 0.219109,-1.092957 0.07928,-0.304704 0.298527,-1.264065 0.513662,-1.749763 l -0.07855,-0.132808 c -0.06296,-0.321106 -0.18292,-0.636082 -0.188619,-0.96325 -0.0084,-0.477507 0.09323,-0.937937 0.254246,-1.382861 -0.237768,-0.03904 -0.474083,-0.08481 -0.706417,-0.149346 -0.109309,-0.03036 -0.03852,-0.223933 -0.04857,-0.336929 -0.01831,-0.205501 -0.03198,-0.411779 -0.03617,-0.61805 -0.02249,-1.102128 0.04451,-2.204167 0.218591,-3.293341 0.195744,-1.224687 0.879115,-1.778391 1.506884,-1.752346 0.509772,0.02114 0.981988,0.425522 1.12758,1.163236 0.133297,-0.247753 0.261691,-0.522783 0.495578,-0.481108 0.01871,0.0033 0.03624,0.01013 0.05478,0.01394 V 39.96083 Z m 13.945405,14.038422 c -0.0013,0.0078 -0.0024,0.0155 -0.0036,0.02326 0.0061,-0.01617 0.01185,-0.0325 0.0181,-0.04858 0.0069,-0.01773 -0.008,0.01344 -0.01447,0.02532 z m -0.0036,0.02326 c -0.01881,0.05028 -0.03712,0.100801 -0.05529,0.15141 0.01413,-0.0066 0.03669,-0.02662 0.03928,-0.04031 0.0069,-0.03682 0.01011,-0.07413 0.01601,-0.111103 z m 3.422531,-5.327841 c -0.08865,0.205886 -0.169505,0.415108 -0.225825,0.631486 -0.1413,0.542812 0.0047,0.343395 0.101286,0.239261 -0.01132,-0.05749 -0.09253,-0.168098 -0.03411,-0.172599 0.06773,-0.0052 0.09325,0.102561 0.117822,0.165881 0.01228,0.03161 0.02723,0.0635 0.04082,0.09509 z m 0,2.538346 c -0.120237,0.32107 -0.261358,0.641771 -0.342614,0.907439 -0.07504,0.245343 -0.118864,0.499206 -0.178285,0.74879 -0.222985,0.735814 -0.164793,1.498078 -0.462504,2.211752 -0.06154,0.147511 -0.08769,0.468215 -0.238745,0.415994 -0.0035,-0.0013 -0.0053,-0.0039 -0.0083,-0.0057 -0.03895,0.08054 -0.07949,0.160239 -0.119372,0.240294 0.198533,-0.07055 0.261433,-0.103939 -0.223242,0.464055 -0.285345,0.334399 -0.675904,0.674955 -1.097608,0.845426 -0.824643,0.333357 -0.440896,0.03694 -0.694015,0.240813 -0.04906,0.0053 -0.09698,0.0163 -0.145727,0.02326 h 3.51038 z m -3.774445,3.480409 c -0.03364,0.04643 -0.08328,0.09151 -0.100254,0.143658 -0.01693,0.05205 0.06386,-0.08924 0.0956,-0.133842 0.0016,-0.0033 0.0031,-0.0066 0.0047,-0.0098 z" />
    </clipPath>
    <radialGradient
       inkscape:collect="always"
       xlink:href="#linearGradient2137"
       id="radialGradient2139"
       cx="97.632599"
       cy="25.954838"
       fx="97.632599"
       fy="25.954838"
       r="35.907738"
       gradientUnits="userSpaceOnUse"
       gradientTransform="matrix(0.19703751,0.79952498,-0.97094963,0.23928396,114.00627,-65.173204)" />
    <linearGradient
       inkscape:collect="always"
       xlink:href="#linearGradient2145"
       id="linearGradient2147"
       x1="348.24936"
       y1="48.450474"
       x2="363.91272"
       y2="81.921387"
       gradientUnits="userSpaceOnUse" />
    <meshgradient
       inkscape:collect="always"
       id="meshgradient2149"
       gradientUnits="userSpaceOnUse"
       x="72.575165"
       y="17.17753">
      <meshrow
         id="meshrow6700">
        <meshpatch
           id="meshpatch6702">
          <stop
             id="stop6704"
             style="stop-color:#ffffff;stop-opacity:1"
             path="c 11.4998,-5.29168  0.886962,-2.45687  13.5215,-2.45684" />
          <stop
             id="stop6706"
             style="stop-color:#ff9711;stop-opacity:1"
             path="c -0.000778887,7.98904  0.944305,7.85133  0.189022,15.8407" />
          <stop
             id="stop6708"
             style="stop-color:#ffdc11;stop-opacity:1"
             path="c -5.64244,-1.32294  -10.3387,-3.77986  -22.9715,-3.77936" />
          <stop
             id="stop6710"
             style="stop-color:#dc7c00;stop-opacity:1"
             path="c 7.93684,-7.42263  1.88945,-2.74926  9.26098,-9.6045" />
        </meshpatch>
        <meshpatch
           id="meshpatch6712">
          <stop
             id="stop6714"
             path="c 12.6329,-2.25308e-05  20.5418,23.2463  24.4829,27.5923" />
          <stop
             id="stop6716"
             style="stop-color:#ffffff;stop-opacity:1"
             path="c 3.40219,7.61039  10.7719,-21.8199  25.3244,-5.51499" />
          <stop
             id="stop6718"
             style="stop-color:#ffb211;stop-opacity:1"
             path="c -12.2564,-13.0408  -40.387,-4.72527  -49.6183,-6.23661" />
        </meshpatch>
      </meshrow>
      <meshrow
         id="meshrow6720">
        <meshpatch
           id="meshpatch6722">
          <stop
             id="stop6724"
             path="c -0.0016483,7.98904  -0.379334,28.2625  -0.378782,36.2514" />
          <stop
             id="stop6726"
             style="stop-color:#ff9711;stop-opacity:1"
             path="c -12.6342,8.14624e-05  -6.93579,8.1266  -19.5697,8.12657" />
          <stop
             id="stop6728"
             style="stop-color:#dc3a00;stop-opacity:1"
             path="c -12.8509,-18.3834  -10.9611,-39.4131  -3.02302,-48.1573" />
        </meshpatch>
        <meshpatch
           id="meshpatch6730">
          <stop
             id="stop6732"
             path="c -0.000522666,7.98853  0.377437,5.77198  0.377961,13.7618" />
          <stop
             id="stop6734"
             style="stop-color:#dc7c00;stop-opacity:1"
             path="c -7.53151,11.9056  -27.1577,30.6152  -50.375,16.253" />
        </meshpatch>
      </meshrow>
      <meshrow
         id="meshrow6736">
        <meshpatch
           id="meshpatch6738">
          <stop
             id="stop6740"
             path="c -0.000555225,7.98914  11.3386,11.6314  11.3386,19.6204" />
          <stop
             id="stop6742"
             style="stop-color:#eb4500;stop-opacity:1"
             path="c -12.6337,0  -4.28967,-0.944914  -16.9233,-0.94494" />
          <stop
             id="stop6744"
             style="stop-color:#d64902;stop-opacity:1"
             path="c -6.99266,-5.91019  -13.9851,-2.55985  -13.985,-10.5489" />
        </meshpatch>
        <meshpatch
           id="meshpatch6746">
          <stop
             id="stop6748"
             path="c -0.000516392,7.98829  -1.13444,27.8836  -1.13444,35.8727" />
          <stop
             id="stop6750"
             style="stop-color:#ff9711;stop-opacity:1"
             path="c -12.6337,0  -25.2673,0  -37.902,0.00069" />
        </meshpatch>
      </meshrow>
    </meshgradient>
    <radialGradient
       gradientUnits="userSpaceOnUse"
       gradientTransform="matrix(-0.67728134,-0.73572413,0.83838967,-0.77179157,111.002,173.08513)"
       r="15.55384"
       fy="57.435955"
       fx="96.783691"
       cy="57.435955"
       cx="96.783691"
       id="radialGradient1445"
       xlink:href="#linearGradient1443"
       inkscape:collect="always" />
    <linearGradient
       gradientUnits="userSpaceOnUse"
       y2="42.72702"
       x2="103.1875"
       y1="46.317795"
       x1="84.074921"
       id="linearGradient6758"
       xlink:href="#linearGradient6756"
       inkscape:collect="always" />
    <linearGradient
       gradientUnits="userSpaceOnUse"
       y2="58.322899"
       x2="123.30667"
       y1="72.955902"
       x1="97.58287"
       id="linearGradient6768"
       xlink:href="#linearGradient6766"
       inkscape:collect="always" />
    <linearGradient
       gradientUnits="userSpaceOnUse"
       y2="-6.8924251"
       x2="91.93425"
       y1="66.056984"
       x1="93.446159"
       id="linearGradient6784"
       xlink:href="#linearGradient6776"
       inkscape:collect="always" />
  </defs>
  <sodipodi:namedview
     inkscape:window-maximized="0"
     inkscape:window-y="0"
     inkscape:window-x="-7"
     inkscape:window-height="688"
     inkscape:window-width="1278"
     inkscape:snap-global="false"
     showgrid="false"
     inkscape:document-rotation="0"
     inkscape:current-layer="g1420"
     inkscape:document-units="mm"
     inkscape:cy="128.61505"
     inkscape:cx="357.55445"
     inkscape:zoom="1.4"
     inkscape:pageshadow="2"
     inkscape:pageopacity="0.0"
     borderopacity="1.0"
     bordercolor="#666666"
     pagecolor="#ffffff"
     id="base" />
  <metadata
     id="metadata5">
    <rdf:RDF>
      <cc:Work
         rdf:about="">
        <dc:format>image/svg+xml</dc:format>
        <dc:type
           rdf:resource="http://purl.org/dc/dcmitype/StillImage" />
        <dc:title />
      </cc:Work>
    </rdf:RDF>
  </metadata>
  <g
     id="layer1"
     inkscape:groupmode="layer"
     inkscape:label="Layer 1">
    <path
       d="m 82.036815,9.2670677 c -0.17248,-0.00851 -0.327038,0.054925 -0.45992,0.2025716 -0.882607,0.9806747 -2.521648,4.0879967 -3.901054,6.8610807 l -6.49366,-4.026111 -1.692404,10.49445 c -0.512426,0.469319 -1.024846,0.949543 -1.533239,1.453141 -0.799282,0.768676 -1.857308,1.995074 -2.958476,3.63027 -0.02398,0.03564 -0.04781,0.06938 -0.07183,0.105419 -0.09615,0.144107 -0.192795,0.294078 -0.289388,0.444418 -0.03612,0.05628 -0.07184,0.111316 -0.108004,0.168465 -0.09554,0.150853 -0.191202,0.306152 -0.286804,0.463021 -0.03675,0.06037 -0.07334,0.120134 -0.110071,0.181385 -0.0998,0.166243 -0.199248,0.336283 -0.29869,0.509011 -0.02839,0.04936 -0.05641,0.09895 -0.08475,0.148828 -0.105113,0.184817 -0.209427,0.37283 -0.313676,0.564825 -0.02254,0.04155 -0.04521,0.08369 -0.0677,0.125574 -0.104548,0.194532 -0.208391,0.391027 -0.311608,0.592727 -0.02802,0.05478 -0.05581,0.111096 -0.08372,0.166399 -0.94485,1.871763 -1.819997,4.042114 -2.481503,6.486943 -1.82e-4,6.75e-4 -3.33e-4,0.0014 -5.16e-4,0.0021 -0.108037,0.399385 -0.209478,0.806783 -0.305408,1.220597 -0.0096,0.04127 -0.01847,0.08312 -0.02791,0.124539 -0.08653,0.379598 -0.167598,0.76508 -0.242877,1.15652 -0.01515,0.07887 -0.02978,0.157845 -0.04444,0.237194 -0.05948,0.32132 -0.114609,0.646583 -0.165883,0.975651 -0.01608,0.103378 -0.0323,0.206441 -0.04754,0.310576 -0.02945,0.20093 -0.05802,0.402431 -0.08423,0.606165 -3.57e-4,0.0028 -6.8e-4,0.0055 -10e-4,0.0083 -0.29387,2.288002 -0.379536,4.751826 -0.174667,7.376292 0,0 0,5.18e-4 0,5.18e-4 0.08515,1.090616 0.218104,2.207403 0.409795,3.35225 0.0083,0.05003 0.01728,0.100243 0.02584,0.150379 0.06179,0.360518 0.12736,0.722587 0.200504,1.088305 0.03919,0.195979 0.08092,0.390223 0.121957,0.584978 0.627494,2.97806 1.469313,5.81189 2.514573,8.47235 0.0013,0.0033 0.0028,0.0065 0.0041,0.0098 0.33378,0.849009 0.688223,1.680163 1.062984,2.49287 0.0051,0.01107 0.01039,0.02202 0.0155,0.03307 1.502623,3.251774 3.329785,6.205286 5.458581,8.79843 0.0043,0.0053 0.0086,0.01073 0.01292,0.01602 0.274196,0.333623 0.554078,0.660807 0.838192,0.982369 0.02433,0.02753 0.04898,0.05472 0.07338,0.08216 2.390781,2.689122 5.127108,4.949058 8.180896,6.701401 3.34e-4,1.91e-4 7e-4,3.26e-4 0.001,5.16e-4 0.144079,0.08267 0.289632,0.162991 0.435116,0.243396 0.07876,0.04353 0.15699,0.08788 0.236161,0.130743 0.134508,0.07282 0.270489,0.143571 0.406177,0.214456 0.08263,0.04317 0.164983,0.08674 0.248046,0.129191 0.140351,0.07172 0.28164,0.141713 0.42323,0.211357 0.08388,0.04127 0.167866,0.08245 0.252181,0.122991 0.133685,0.06426 0.267788,0.127757 0.40256,0.19017 0.09516,0.04407 0.190591,0.08759 0.286287,0.130741 0.136072,0.06134 0.272635,0.121922 0.409794,0.181382 0.09283,0.04025 0.186244,0.07947 0.27957,0.118856 0.137955,0.05821 0.275925,0.116293 0.414962,0.172601 0.08886,0.03599 0.178381,0.07072 0.267683,0.105937 0.146605,0.05779 0.293015,0.115882 0.440801,0.171564 0.07402,0.0279 0.148921,0.05429 0.223242,0.08165 3.529302,1.299154 7.391338,1.995405 11.550199,2.000911 0.05405,1.14e-4 0.108121,6.3e-4 0.162264,5.16e-4 0.180572,-5.42e-4 0.361437,-0.002 0.543119,-0.0052 0.136512,-0.0022 0.273688,-0.0061 0.410828,-0.0098 0.115549,-0.0032 0.230758,-0.0055 0.346749,-0.0098 0.275292,-0.01 0.551524,-0.02257 0.829406,-0.03876 0.473466,-0.02758 0.946893,-0.06305 1.420069,-0.103354 0.03343,-0.0029 0.06682,-0.0058 0.100252,-0.0088 3.578915,-0.311666 7.139115,-0.987012 10.556455,-2.015897 0.0508,-0.01532 0.10167,-0.03052 0.15245,-0.04599 0.90069,-0.274299 1.79151,-0.572672 2.6696,-0.896069 0.002,-6.43e-4 0.003,-0.0014 0.005,-0.0021 2.34101,-0.862491 4.59435,-1.8972 6.71432,-3.104203 0.25199,-0.14347 0.50166,-0.289396 0.74982,-0.4377 0.0321,-0.01919 0.0636,-0.03913 0.0956,-0.05839 0.19423,-0.116803 0.38749,-0.234736 0.57929,-0.354502 0.083,-0.0518 0.16502,-0.104744 0.24753,-0.157097 0.15714,-0.09973 0.3138,-0.200054 0.46922,-0.301789 0.0747,-0.0489 0.14893,-0.09843 0.22324,-0.147796 0.15692,-0.104254 0.31311,-0.209431 0.46819,-0.315743 0.0845,-0.05792 0.16873,-0.116131 0.2527,-0.174665 0.13238,-0.09231 0.26383,-0.185745 0.39481,-0.279569 0.0974,-0.06974 0.19486,-0.139235 0.29145,-0.209807 0.13146,-0.09607 0.26173,-0.193326 0.39171,-0.290938 0.0875,-0.06574 0.17564,-0.130958 0.26251,-0.197403 0.14622,-0.111845 0.29035,-0.225692 0.4346,-0.339516 2.01269,-1.588069 3.83146,-3.369416 5.40381,-5.339726 0.0456,-0.05719 0.0922,-0.113535 0.13746,-0.171048 0.11106,-0.141237 0.21963,-0.28421 0.32814,-0.427365 0.0549,-0.0725 0.11058,-0.144569 0.16485,-0.217556 0.10438,-0.140322 0.20661,-0.282128 0.30851,-0.424265 0.0522,-0.0729 0.10448,-0.145735 0.15606,-0.219107 0.10502,-0.149317 0.20831,-0.299847 0.31058,-0.451136 0.0454,-0.06724 0.091,-0.134421 0.13591,-0.202054 0.10513,-0.158348 0.20848,-0.318045 0.31057,-0.478525 0.0381,-0.0599 0.0755,-0.120153 0.11317,-0.180351 0.10342,-0.165227 0.20577,-0.331219 0.30593,-0.498676 0.034,-0.05685 0.0677,-0.113951 0.10128,-0.171051 0.10403,-0.176683 0.20661,-0.354158 0.30696,-0.533299 0.0236,-0.04214 0.0464,-0.08484 0.0698,-0.127124 0.10772,-0.19463 0.21448,-0.390057 0.31781,-0.587561 0,0 0,-5.18e-4 0,-5.18e-4 0.91173,-1.742771 1.65184,-3.596381 2.19314,-5.560901 0.0119,-0.04328 0.0224,-0.08735 0.0341,-0.130742 0.0681,-0.251719 0.1338,-0.504851 0.19534,-0.760158 0.0177,-0.07379 0.0335,-0.148635 0.0506,-0.222726 0.0554,-0.238221 0.1095,-0.47751 0.15916,-0.71882 0.0104,-0.05088 0.0193,-0.10246 0.0295,-0.15348 0.054,-0.269666 0.10471,-0.540925 0.15141,-0.814419 0.005,-0.02714 0.009,-0.05447 0.0134,-0.08165 0.0497,-0.296169 0.0954,-0.594405 0.13642,-0.895038 0.002,-0.01581 0.004,-0.03172 0.006,-0.04754 0.0426,-0.316037 0.0803,-0.63455 0.11317,-0.955498 6e-4,-0.0058 9.6e-4,-0.01176 0.002,-0.01757 0.0331,-0.324927 0.0613,-0.652422 0.0842,-0.982368 3.6e-4,-0.0053 6.6e-4,-0.01072 10e-4,-0.01602 0.0758,-1.099209 0.0981,-2.224561 0.0568,-3.379121 -0.0215,-0.60266 -0.05,-1.18075 -0.0817,-1.746146 -0.005,-0.08826 -0.009,-0.178245 -0.0145,-0.265618 -0.0317,-0.534482 -0.0677,-1.051132 -0.108,-1.552877 -0.008,-0.09871 -0.0161,-0.196048 -0.0243,-0.293521 -0.0411,-0.486045 -0.0856,-0.960202 -0.13435,-1.415933 -0.0101,-0.09448 -0.0211,-0.184817 -0.0315,-0.278019 -0.044,-0.394044 -0.0906,-0.777142 -0.14004,-1.148768 -0.0118,-0.08908 -0.0225,-0.181414 -0.0346,-0.269235 -0.0522,-0.377296 -0.10843,-0.739063 -0.16589,-1.093472 -0.0239,-0.147847 -0.0481,-0.295291 -0.0729,-0.439251 -0.0555,-0.321773 -0.11245,-0.634659 -0.17208,-0.937411 -0.0312,-0.158996 -0.0638,-0.312245 -0.0961,-0.466122 -0.0393,-0.186573 -0.0791,-0.368585 -0.11989,-0.547769 -0.0583,-0.256868 -0.11811,-0.505714 -0.17932,-0.747758 -0.0304,-0.119885 -0.0609,-0.238683 -0.092,-0.355018 -0.0803,-0.301638 -0.16307,-0.590322 -0.24753,-0.86868 -0.0222,-0.07303 -0.0437,-0.148156 -0.0661,-0.219625 -0.99962,-3.186165 -2.25333,-4.831035 -3.36983,-5.664771 a 35.907739,35.907739 0 0 0 -21.70823,-19.609138 35.907739,35.907739 0 0 0 -0.0424,-0.01395 35.907739,35.907739 0 0 0 -0.20463,-0.06563 35.907739,35.907739 0 0 0 -0.24702,-0.07751 35.907739,35.907739 0 0 0 -0.0429,-0.01344 35.907739,35.907739 0 0 0 -0.20515,-0.06253 35.907739,35.907739 0 0 0 -0.0424,-0.01292 35.907739,35.907739 0 0 0 -0.20567,-0.06098 35.907739,35.907739 0 0 0 -0.24908,-0.07235 35.907739,35.907739 0 0 0 -0.0429,-0.0124 35.907739,35.907739 0 0 0 -0.20671,-0.05839 35.907739,35.907739 0 0 0 -0.0429,-0.01189 35.907739,35.907739 0 0 0 -0.20671,-0.05684 35.907739,35.907739 0 0 0 -0.005,-10e-4 35.907739,35.907739 0 0 0 -0.24598,-0.06563 35.907739,35.907739 0 0 0 -0.0429,-0.01137 35.907739,35.907739 0 0 0 -0.20774,-0.05374 35.907739,35.907739 0 0 0 -0.14211,-0.03566 35.907739,35.907739 0 0 0 -0.15296,-0.03824 35.907739,35.907739 0 0 0 -0.0889,-0.0217 35.907739,35.907739 0 0 0 -0.11938,-0.02894 35.907739,35.907739 0 0 0 -0.17363,-0.04134 35.907739,35.907739 0 0 0 -0.12196,-0.02842 35.907739,35.907739 0 0 0 -0.20928,-0.04806 35.907739,35.907739 0 0 0 -0.0434,-0.0098 35.907739,35.907739 0 0 0 -0.20981,-0.04599 35.907739,35.907739 0 0 0 -0.0434,-0.0093 35.907739,35.907739 0 0 0 -0.2098,-0.04496 35.907739,35.907739 0 0 0 -0.0439,-0.0093 35.907739,35.907739 0 0 0 -0.21032,-0.04289 35.907739,35.907739 0 0 0 -0.0434,-0.0088 35.907739,35.907739 0 0 0 -0.21084,-0.04186 35.907739,35.907739 0 0 0 -0.0434,-0.0083 35.907739,35.907739 0 0 0 -0.21084,-0.04031 35.907739,35.907739 0 0 0 -0.0439,-0.0083 35.907739,35.907739 0 0 0 -0.0667,-0.0124 35.907739,35.907739 0 0 0 -0.18861,-0.03411 35.907739,35.907739 0 0 0 -0.25529,-0.04444 35.907739,35.907739 0 0 0 -0.15709,-0.02636 35.907739,35.907739 0 0 0 -0.20567,-0.03359 35.907739,35.907739 0 0 0 -0.0501,-0.0083 35.907739,35.907739 0 0 0 -0.0987,-0.0155 35.907739,35.907739 0 0 0 -0.15762,-0.02429 35.907739,35.907739 0 0 0 -0.0207,-0.0031 35.907739,35.907739 0 0 0 -0.15554,-0.02325 35.907739,35.907739 0 0 0 -0.13746,-0.01964 35.907739,35.907739 0 0 0 -0.0413,-0.0062 35.907739,35.907739 0 0 0 -0.15813,-0.0217 35.907739,35.907739 0 0 0 -0.20568,-0.02791 35.907739,35.907739 0 0 0 -0.12764,-0.01602 35.907739,35.907739 0 0 0 -0.0222,-0.0031 35.907739,35.907739 0 0 0 -0.15813,-0.01964 35.907739,35.907739 0 0 0 -0.17363,-0.02067 35.907739,35.907739 0 0 0 -0.18293,-0.02119 35.907739,35.907739 0 0 0 -0.15865,-0.01757 35.907739,35.907739 0 0 0 -0.0139,-0.0016 35.907739,35.907739 0 0 0 -0.21343,-0.02222 35.907739,35.907739 0 0 0 -0.0305,-0.0031 35.907739,35.907739 0 0 0 -0.0992,-0.0098 35.907739,35.907739 0 0 0 -0.15865,-0.01499 35.907739,35.907739 0 0 0 -0.0103,-10e-4 35.907739,35.907739 0 0 0 -0.1819,-0.01602 35.907739,35.907739 0 0 0 -0.0661,-0.0062 35.907739,35.907739 0 0 0 -0.0992,-0.0083 35.907739,35.907739 0 0 0 -0.158649,-0.01292 35.907739,35.907739 0 0 0 -0.0997,-0.0078 35.907739,35.907739 0 0 0 -0.0486,-0.0036 35.907739,35.907739 0 0 0 -0.18138,-0.01292 35.907739,35.907739 0 0 0 -0.0284,-0.0021 35.907739,35.907739 0 0 0 -0.15916,-0.01034 35.907739,35.907739 0 0 0 -0.24391,-0.01499 35.907739,35.907739 0 0 0 -0.015,-10e-4 35.907739,35.907739 0 0 0 -0.01,-5.16e-4 35.907739,35.907739 0 0 0 -0.248564,-0.01292 35.907739,35.907739 0 0 0 -0.253215,-0.01137 35.907739,35.907739 0 0 0 -0.0186,-0.001 35.907739,35.907739 0 0 0 -0.08682,-0.0036 35.907739,35.907739 0 0 0 -0.04341,-0.0016 35.907739,35.907739 0 0 0 -0.215491,-0.0078 35.907739,35.907739 0 0 0 -0.226342,-0.0067 35.907739,35.907739 0 0 0 -0.03307,-10e-4 35.907739,35.907739 0 0 0 -0.179317,-0.0041 35.907739,35.907739 0 0 0 -0.239262,-0.0036 35.907739,35.907739 0 0 0 -0.238745,-0.0026 35.907739,35.907739 0 0 0 -0.02015,0 35.907739,35.907739 0 0 0 -0.129708,-5.16e-4 35.907739,35.907739 0 0 0 -0.216008,0 35.907739,35.907739 0 0 0 -0.173116,0.001 35.907739,35.907739 0 0 0 -0.258898,0.0031 35.907739,35.907739 0 0 0 -0.158647,0.0031 35.907739,35.907739 0 0 0 -0.199988,0.0041 35.907739,35.907739 0 0 0 -0.21239,0.0057 35.907739,35.907739 0 0 0 -0.189136,0.0067 35.907739,35.907739 0 0 0 -0.02532,0.001 35.907739,35.907739 0 0 0 -0.182935,0.0072 35.907739,35.907739 0 0 0 -0.113171,0.0047 35.907739,35.907739 0 0 0 -0.213424,0.01085 35.907739,35.907739 0 0 0 -0.151929,0.0083 35.907739,35.907739 0 0 0 -0.206705,0.01189 35.907739,35.907739 0 0 0 -0.220659,0.01395 35.907739,35.907739 0 0 0 -0.09457,0.0067 35.907739,35.907739 0 0 0 -0.201539,0.01499 35.907739,35.907739 0 0 0 -0.159163,0.0124 35.907739,35.907739 0 0 0 -0.0021,0 35.907739,35.907739 0 0 0 -0.242879,0.02067 35.907739,35.907739 0 0 0 -0.01344,10e-4 35.907739,35.907739 0 0 0 -0.02481,0.0021 35.907739,35.907739 0 0 0 -0.114722,0.01034 35.907739,35.907739 0 0 0 -0.199987,0.01912 35.907739,35.907739 0 0 0 -0.0646,0.0062 35.907739,35.907739 0 0 0 -0.170532,0.01757 35.907739,35.907739 0 0 0 -0.134876,0.01447 35.907739,35.907739 0 0 0 -0.0925,0.0098 35.907739,35.907739 0 0 0 -0.13746,0.0155 35.907739,35.907739 0 0 0 -0.189135,0.02222 35.907739,35.907739 0 0 0 -0.0016,0 35.907739,35.907739 0 0 0 -0.0031,5.17e-4 35.907739,35.907739 0 0 0 -0.205156,0.02481 35.907739,35.907739 0 0 0 -0.202055,0.02636 35.907739,35.907739 0 0 0 -0.0078,10e-4 35.907739,35.907739 0 0 0 -0.192236,0.02584 35.907739,35.907739 0 0 0 -0.124024,0.01705 35.907739,35.907739 0 0 0 -0.110071,0.01602 35.907739,35.907739 0 0 0 -0.124023,0.01757 35.907739,35.907739 0 0 0 -0.118339,0.01809 35.907739,35.907739 0 0 0 -0.196887,0.02997 35.907739,35.907739 0 0 0 -0.204639,0.03256 35.907739,35.907739 0 0 0 -0.19172,0.03204 35.907739,35.907739 0 0 0 -0.02687,0.0041 35.907739,35.907739 0 0 0 -0.176734,0.03049 35.907739,35.907739 0 0 0 -0.137459,0.02429 35.907739,35.907739 0 0 0 -0.08837,0.01602 35.907739,35.907739 0 0 0 -0.143143,0.02584 35.907739,35.907739 0 0 0 -0.106454,0.02015 35.907739,35.907739 0 0 0 -0.201021,0.03824 35.907739,35.907739 0 0 0 -0.250631,0.04961 35.907739,35.907739 0 0 0 -0.0072,0.0015 35.907739,35.907739 0 0 0 -0.25063,0.05116 35.907739,35.907739 0 0 0 -0.248564,0.05271 35.907739,35.907739 0 0 0 -0.01809,0.0041 35.907739,35.907739 0 0 0 -0.206705,0.04547 35.907739,35.907739 0 0 0 -0.106454,0.02377 35.907739,35.907739 0 0 0 -0.123506,0.02791 35.907739,35.907739 0 0 0 -0.111622,0.02635 35.907739,35.907739 0 0 0 -0.188619,0.04392 35.907739,35.907739 0 0 0 -0.02325,0.0057 35.907739,35.907739 0 0 0 -0.19327,0.04702 35.907739,35.907739 0 0 0 -0.183451,0.04548 35.907739,35.907739 0 0 0 -0.0217,0.0057 35.907739,35.907739 0 0 0 -0.178801,0.04547 35.907739,35.907739 0 0 0 -0.122473,0.03152 35.907739,35.907739 0 0 0 -0.127641,0.03359 35.907739,35.907739 0 0 0 -0.0987,0.02635 35.907739,35.907739 0 0 0 -0.163814,0.04444 35.907739,35.907739 0 0 0 -0.08372,0.02274 35.907739,35.907739 0 0 0 -0.132291,0.03669 35.907739,35.907739 0 0 0 -0.182935,0.05168 35.907739,35.907739 0 0 0 -0.202571,0.05839 35.907739,35.907739 0 0 0 -0.04651,0.01344 35.907739,35.907739 0 0 0 -0.152963,0.04547 35.907739,35.907739 0 0 0 -0.205155,0.06201 35.907739,35.907739 0 0 0 -0.07958,0.02429 35.907739,35.907739 0 0 0 -0.161747,0.05064 35.907739,35.907739 0 0 0 -0.04909,0.01499 35.907739,35.907739 0 0 0 -0.09508,0.02997 35.907739,35.907739 0 0 0 -0.07545,0.02377 C 84.753473,11.98004 83.07572,9.3183085 82.036815,9.2670677 Z"
       style="fill:#5598ff;fill-opacity:1;fill-rule:nonzero;stroke:#000000;stroke-width:5;stroke-linejoin:round;stroke-miterlimit:4;stroke-dasharray:none;stroke-opacity:1"
       id="path1128-4" />
    <g
       transform="rotate(9.7106587,97.139877,48.380916)"
       id="g1420">
      <circle
         r="35.907738"
         style="fill:url(#radialGradient2139);fill-opacity:1;fill-rule:nonzero;stroke:none;stroke-width:0.79375;stroke-linejoin:bevel;stroke-miterlimit:4;stroke-dasharray:none;stroke-opacity:1"
         id="path1128"
         cx="97.139877"
         cy="48.380955" />
      <path
         sodipodi:nodetypes="cccccccc"
         id="path1422"
         d="m 105.88087,50.984567 -1.5296,-4.142678 c 3.22717,-1.524894 5.78552,-3.522319 6.97881,-6.484191 l 6.50083,0.360233 -0.57361,4.412852 -0.5736,5.313434 c -0.67487,1.201602 -2.34502,1.231238 -4.01521,1.260816 z"
         style="fill:#87cdde;fill-opacity:1;stroke:none;stroke-width:0.18371px;stroke-linecap:butt;stroke-linejoin:miter;stroke-opacity:1" />
      <path
         id="path1424"
         d="m 92.114441,41.708572 3.728412,1.170757 6.692007,9.00582 -1.8164,2.611689 -4.875607,-1.801165 -4.971214,-7.474831 z"
         style="fill:#87cdde;fill-opacity:1;stroke:none;stroke-width:0.18371px;stroke-linecap:butt;stroke-linejoin:miter;stroke-opacity:1" />
      <path
         sodipodi:nodetypes="ccccccccc"
         id="path1426"
         d="m 107.02808,54.316721 8.12601,-0.990641 4.49322,0.09006 -0.5736,1.711106 -4.87561,0.720465 -5.73602,1.0807 -3.34601,-0.900584 -1.5296,-2.161395 z"
         style="fill:#87cdde;fill-opacity:1;stroke:none;stroke-width:0.18371px;stroke-linecap:butt;stroke-linejoin:miter;stroke-opacity:1" />
      <path
         id="path1428"
         d="m 122.70652,45.671133 -1.24281,-3.602329 2.00761,-0.99064 0.3824,3.512271 2.77241,-2.521631 0.956,2.341513 -2.48561,1.891224 3.05921,2.521629 -1.434,1.170756 -2.58121,-1.530988 -0.5736,2.611688 -2.5812,-1.53099 z"
         style="fill:#87cdde;fill-opacity:1;stroke:none;stroke-width:0.18371px;stroke-linecap:butt;stroke-linejoin:miter;stroke-opacity:1" />
      <path
         transform="scale(0.26458333)"
         d="M 367.14258,47.142578 A 135.71429,135.71429 0 0 0 234.86328,152.51953 l 46.96875,28.80274 39.39649,-8.58594 19.69726,-54.54883 30.30469,37.37695 3.53515,-15.15234 -14.14062,-19.69922 -0.50586,-20.20312 17.17188,-28.283208 9.54296,-23.646484 a 135.71429,135.71429 0 0 0 -19.6914,-1.4375 z"
         style="fill:url(#linearGradient2147);fill-opacity:1;stroke:none;stroke-width:0.999999px;stroke-linecap:butt;stroke-linejoin:miter;stroke-opacity:1"
         id="path1430" />
      <ellipse
         ry="28.442709"
         rx="31.561012"
         transform="rotate(-9.7106593)"
         cy="58.308468"
         cx="87.398537"
         id="path6770"
         style="fill:url(#linearGradient6784);fill-opacity:1;stroke:none;stroke-width:0.499999;stroke-linejoin:round" />
    </g>
    <g
       id="g1417">
      <path
         sodipodi:nodetypes="scccccscssccccccccscccccccccccccccss"
         d="m 82.767889,13.026623 c -0.04375,0.0013 -0.08741,0.0045 -0.13086,0.0098 -3.822695,0.4303 -6.927091,2.559818 -9.679687,4.417969 -0.0145,0.0095 -0.02883,0.01927 -0.04297,0.0293 -3.183774,2.320359 -6.322412,4.916542 -8.841797,8.15039 -0.0046,0.0052 -0.0092,0.01039 -0.01367,0.01563 -6.384598,8.443491 -8.519037,19.635506 -6.339843,29.882812 1.34e-4,6.34e-4 -1.35e-4,0.0013 0,0.002 1.732354,8.894541 5.624338,17.607844 12.136718,24.183594 l 0.002,0.002 c 5.334919,5.363879 12.437827,8.950049 19.992188,9.841797 6.907222,0.86283 13.874632,-0.167437 20.394532,-2.130859 0.003,-6.55e-4 0.007,-0.0013 0.01,-0.002 8.39806,-2.59703 16.41096,-7.441415 21.65625,-14.798828 l 0.002,-0.002 c 4.26075,-5.943666 6.19405,-13.362891 5.66406,-20.603515 -0.24314,-4.949418 -0.74242,-10.146851 -2.86133,-14.955079 -0.003,-0.0065 -0.005,-0.01304 -0.008,-0.01953 -1.09962,-2.39652 -3.11222,-5.130329 -6.38867,-5.496094 -0.0221,-0.0025 -0.0442,-0.0045 -0.0664,-0.0059 -3.74453,-0.243009 -7.34396,1.815393 -9.16015,5.046875 -2.25055,3.756047 -2.14277,8.107064 -1.85938,11.896484 v 0.002 c 0.23612,3.138139 0.063,6.240986 -0.60742,9.298828 -0.87727,3.892095 -2.70616,7.668948 -5.72656,10.041015 -1.93851,1.48941 -4.15019,1.47718 -4.15019,1.47718 0,0 3.16581,-7.449382 4.14411,-13.671454 -0.48875,-3.242611 -6.64713,-2.897181 -2.50395,-8.84834 1.38095,-1.719906 -6.16855,-9.978879 -5.09754,-11.611735 0.0471,-0.07171 0.0876,-0.147543 0.12109,-0.226562 0.91052,-2.154878 0.82681,-4.542117 0.14453,-6.621094 -0.0491,-0.148348 -0.12238,-0.287584 -0.2168,-0.412109 -1.05151,-1.395028 -2.24132,-2.305934 -2.89648,-3.251953 -1.463924,-5.558038 -6.205619,-9.741961 -11.646488,-11.03711 -2.015245,-0.518602 -4.057894,-0.640348 -6.029297,-0.603515 z"
         style="fill:#000000;fill-opacity:0.175;fill-rule:nonzero;stroke:none;stroke-width:0.829786;stroke-linejoin:bevel;stroke-miterlimit:4;stroke-dasharray:none;stroke-opacity:1"
         id="path1130-2" />
      <path
         style="fill:#e77d05;fill-opacity:1;stroke:none;stroke-width:0.264583px;stroke-linecap:butt;stroke-linejoin:miter;stroke-opacity:1"
         d="M 69.358631,23.623512 71.24851,11.90625 80.697916,17.764881 Z"
         id="path1141" />
      <path
         id="path1130"
         style="fill:url(#meshgradient2149);fill-opacity:1;fill-rule:nonzero;stroke:none;stroke-width:0.829786;stroke-linejoin:bevel;stroke-miterlimit:4;stroke-dasharray:none;stroke-opacity:1"
         d="m 83.072448,14.531929 c -2.967902,-0.03342 -9.22216,3.549308 -15.049505,9.32169 -3.323997,3.196714 -11.116381,14.23893 -7.924802,30.196829 3.968749,19.84375 17.38676,33.450818 36.852528,32.316888 19.465781,-1.133925 38.931921,-13.040029 38.175971,-34.206696 -0.75596,-21.166666 -7.9375,-19.087724 -7.9375,-19.087724 0,0 -8.69368,1.46e-4 -7.55975,13.418301 1.13393,13.418154 -4.16694,20.721945 -8.51366,23.178794 -4.34674,2.456844 -13.990494,2.405618 -16.999883,-1.256247 -3.627133,-4.413544 -9.638393,-11.339213 -7.748511,-17.953797 0.815062,-2.852708 1.479299,-5.565838 1.982827,-7.767999 7.756388,-1.676707 9.063633,-3.648499 12.191277,-8.8631 1.7009,-1.700893 0.75603,-5.480801 0.75603,-5.480801 L 98.280304,25.15712 C 97.002366,18.778301 90.949255,14.313359 83.343749,14.552083 c -0.08512,-0.01231 -0.175561,-0.01908 -0.271301,-0.02015 z"
         sodipodi:nodetypes="scssscsssscccccss" />
      <path
         sodipodi:nodetypes="cscc"
         style="fill:#ffaa11;fill-opacity:1;stroke:none;stroke-width:0.264583px;stroke-linecap:butt;stroke-linejoin:miter;stroke-opacity:1"
         d="m 74.461309,20.599702 c 0,0 5.480655,-9.638393 7.181547,-11.5282736 1.700893,-1.8898809 6.99256,10.0163686 6.99256,10.0163686 z"
         id="path1139" />
      <path
         style="fill:url(#linearGradient6758);fill-opacity:1;stroke:none;stroke-width:0.264583px;stroke-linecap:butt;stroke-linejoin:miter;stroke-opacity:1"
         d="m 85.989581,39.876489 c 0,0 3.779763,1.133927 7.181548,5.102677 0,0 5.291668,-6.236606 8.126491,-6.047618 2.83482,0.188988 4.91369,6.803571 4.91369,6.803571 0,0 -4.78968,6.246844 -8.220983,7.370536 -4.158532,1.361846 -11.150297,0.09449 -13.229166,-0.661459 -2.078869,-0.755952 1.22842,-12.567707 1.22842,-12.567707 z"
         id="path1143"
         sodipodi:nodetypes="ccscssc" />
      <path
         style="fill:#9d0900;fill-opacity:0.13235295;stroke:none;stroke-width:0.264583px;stroke-linecap:butt;stroke-linejoin:miter;stroke-opacity:1"
         d="m 76.973622,59.066564 c 0,0 0.935445,-8.819893 3.741775,-10.69078 2.806329,-1.870888 12.160763,2.00452 12.160763,2.00452 0,0 5.479026,0.133636 6.414468,-0.935442 0.935442,-1.069078 6.147202,-5.612659 6.147202,-5.612659 l 0.80181,1.737251 c 0,0 -2.88279,4.495967 -3.87541,5.612659 -2.13816,2.405426 -9.48807,3.207234 -9.48807,3.207234 z"
         id="path1195"
         sodipodi:nodetypes="cscsccscc" />
      <path
         style="fill:url(#radialGradient1445);fill-opacity:1;stroke:none;stroke-width:0.264583px;stroke-linecap:butt;stroke-linejoin:miter;stroke-opacity:1"
         d="m 77.10714,61.610118 c 0,0 1.769678,-7.758011 6.305393,-8.513962 4.535715,-0.755952 11.081512,0.57646 11.081512,0.57646 0,0 4.056338,2.839774 4.913691,1.322918 2.456844,-4.346727 7.748504,-1.322915 8.693444,10e-7 0.94494,1.322917 -4.34672,5.669643 -3.21279,8.693452 1.13393,3.023809 -1.79539,6.779946 -1.79539,6.779946 l -9.732884,5.126303 c 0,0 -12.095237,-0.755951 -13.418153,-1.700892 C 78.619046,72.949403 77.10714,61.610118 77.10714,61.610118 Z"
         id="path1145"
         sodipodi:nodetypes="cscsssccsc" />
      <path
         style="fill:none;stroke:#000000;stroke-width:0.6;stroke-linecap:butt;stroke-linejoin:miter;stroke-opacity:1;stroke-miterlimit:4;stroke-dasharray:none"
         d="m 92.131696,23.623512 c 1.709232,0.690645 3.141347,0.411381 4.346726,-0.661459"
         id="path1147"
         sodipodi:nodetypes="cc" />
      <path
         style="fill:none;stroke:#000000;stroke-width:0.5;stroke-linecap:butt;stroke-linejoin:miter;stroke-opacity:1;stroke-miterlimit:4;stroke-dasharray:none"
         d="m 97.517856,28.915177 5.764134,-3.590772"
         id="path1149" />
      <path
         style="fill:none;stroke:#000000;stroke-width:0.5;stroke-linecap:butt;stroke-linejoin:miter;stroke-opacity:1;stroke-miterlimit:4;stroke-dasharray:none"
         d="M 97.801339,30.994048 104.51042,30.33259"
         id="path1151" />
      <path
         style="fill:#9d0900;fill-opacity:0.13235295;stroke:none;stroke-width:0.264583px;stroke-linecap:butt;stroke-linejoin:miter;stroke-opacity:1"
         d="m 84.524927,40.112723 c 0,0 6.803572,-0.141741 9.449406,-1.700893 2.645833,-1.559151 6.236607,-3.732515 6.236607,-3.732515 0,0 -3.212798,4.913692 -4.630208,5.57515 -1.41741,0.661458 -4.960938,2.078868 -4.960938,2.078868 z"
         id="path1617" />
      <path
         style="fill:none;stroke:#000000;stroke-width:0.5;stroke-linecap:butt;stroke-linejoin:miter;stroke-opacity:1;stroke-miterlimit:4;stroke-dasharray:none"
         d="m 97.61235,33.072916 5.85863,1.511906"
         id="path1153" />
      <path
         style="fill:#a05a2c;stroke:none;stroke-width:0.264583px;stroke-linecap:butt;stroke-linejoin:miter;stroke-opacity:1"
         d="m 82.493301,10.583333 1.511906,7.276042 2.740327,-1.889881 z"
         id="path1155" />
      <path
         style="color:#000000;font-style:normal;font-variant:normal;font-weight:normal;font-stretch:normal;font-size:medium;line-height:normal;font-family:sans-serif;font-variant-ligatures:normal;font-variant-position:normal;font-variant-caps:normal;font-variant-numeric:normal;font-variant-alternates:normal;font-variant-east-asian:normal;font-feature-settings:normal;font-variation-settings:normal;text-indent:0;text-align:start;text-decoration:none;text-decoration-line:none;text-decoration-style:solid;text-decoration-color:#000000;letter-spacing:normal;word-spacing:normal;text-transform:none;writing-mode:lr-tb;direction:ltr;text-orientation:mixed;dominant-baseline:auto;baseline-shift:baseline;text-anchor:start;white-space:normal;shape-padding:0;shape-margin:0;inline-size:0;clip-rule:nonzero;display:inline;overflow:visible;visibility:visible;opacity:1;isolation:auto;mix-blend-mode:normal;color-interpolation:sRGB;color-interpolation-filters:linearRGB;solid-color:#000000;solid-opacity:1;vector-effect:none;fill:#9a6214;fill-opacity:1;fill-rule:nonzero;stroke:none;stroke-width:1;stroke-linecap:butt;stroke-linejoin:miter;stroke-miterlimit:4;stroke-dasharray:none;stroke-dashoffset:0;stroke-opacity:1;color-rendering:auto;image-rendering:auto;shape-rendering:auto;text-rendering:auto;enable-background:accumulate;stop-color:#000000;stop-opacity:1"
         d="m 84.478516,40.037109 -2.572469,0.131374 c 0,0 6.011757,0.887638 8.68575,3.026829 2.770277,2.216223 5.312396,5.229645 5.312396,5.229645 l -0.68349,-1.598785 c 0,0 -1.106496,-2.090665 -4.005859,-4.410156 -2.995652,-2.396519 -6.736328,-2.378907 -6.736328,-2.378907 z"
         id="path1201"
         sodipodi:nodetypes="ccsccsc" />
      <path
         style="fill:none;stroke:#9a6214;stroke-width:0.5;stroke-linecap:butt;stroke-linejoin:miter;stroke-opacity:1;stroke-miterlimit:4;stroke-dasharray:none"
         d="m 103.47098,40.254465 c -1.67523,0.114321 -2.95494,1.019681 -3.874255,2.645833"
         id="path1159"
         sodipodi:nodetypes="cc" />
      <path
         style="fill:none;stroke:#9a6214;stroke-width:0.5;stroke-linecap:butt;stroke-linejoin:miter;stroke-opacity:1;stroke-miterlimit:4;stroke-dasharray:none"
         d="m 104.98288,43.18378 c -1.75753,-0.52274 -2.53384,0.916942 -3.30729,2.362351"
         id="path1161"
         sodipodi:nodetypes="cc" />
      <path
         style="fill:none;stroke:#9a6214;stroke-width:0.5;stroke-linecap:butt;stroke-linejoin:miter;stroke-opacity:1;stroke-miterlimit:4;stroke-dasharray:none"
         d="m 105.83333,53.767114 c -1.67934,0.483408 -2.40733,1.727905 -2.83482,3.212795"
         id="path1163"
         sodipodi:nodetypes="cc" />
      <path
         style="fill:none;stroke:#9a6214;stroke-width:0.5;stroke-linecap:butt;stroke-linejoin:miter;stroke-opacity:1;stroke-miterlimit:4;stroke-dasharray:none"
         d="m 102.43155,52.822173 c -1.36657,1.306449 -1.87371,2.44101 -1.98438,3.496278"
         id="path1165"
         sodipodi:nodetypes="cc" />
      <path
         style="color:#000000;font-style:normal;font-variant:normal;font-weight:normal;font-stretch:normal;font-size:medium;line-height:normal;font-family:sans-serif;font-variant-ligatures:normal;font-variant-position:normal;font-variant-caps:normal;font-variant-numeric:normal;font-variant-alternates:normal;font-variant-east-asian:normal;font-feature-settings:normal;font-variation-settings:normal;text-indent:0;text-align:start;text-decoration:none;text-decoration-line:none;text-decoration-style:solid;text-decoration-color:#000000;letter-spacing:normal;word-spacing:normal;text-transform:none;writing-mode:lr-tb;direction:ltr;text-orientation:mixed;dominant-baseline:auto;baseline-shift:baseline;text-anchor:start;white-space:normal;shape-padding:0;shape-margin:0;inline-size:0;clip-rule:nonzero;display:inline;overflow:visible;visibility:visible;opacity:1;isolation:auto;mix-blend-mode:normal;color-interpolation:sRGB;color-interpolation-filters:linearRGB;solid-color:#000000;solid-opacity:1;vector-effect:none;fill:#9a6214;fill-opacity:1;fill-rule:nonzero;stroke:none;stroke-width:1;stroke-linecap:butt;stroke-linejoin:miter;stroke-miterlimit:4;stroke-dasharray:none;stroke-dashoffset:0;stroke-opacity:1;color-rendering:auto;image-rendering:auto;shape-rendering:auto;text-rendering:auto;enable-background:accumulate;stop-color:#000000;stop-opacity:1"
         d="m 88.572266,52.015625 c -1.362467,-0.126018 -2.780569,-0.06356 -4.138672,0.326172 -7.620786,2.186918 -8.844366,10.848786 -8.844366,10.848786 l 2.033717,-3.050368 c 0,0 1.839114,-4.11193 6.553454,-6.035672 4.636059,-1.891799 9.580799,-0.17177 9.580799,-0.17177 l 2.594981,0.832749 c 0,0 -3.692514,-2.371844 -7.779913,-2.749897 z"
         id="path1205"
         sodipodi:nodetypes="ssccsccs" />
      <path
         style="fill:#9d0900;fill-opacity:0.13235295;stroke:none;stroke-width:0.264583px;stroke-linecap:butt;stroke-linejoin:miter;stroke-opacity:1"
         d="m 90.604368,74.03366 c 0,0 -0.400905,-5.345393 3.073601,-6.548105 3.474503,-1.202713 7.617181,-1.336346 7.617181,-1.336346 l 1.46998,-4.810853 4.67722,-7.082642 0.80181,1.603616 -4.00905,13.764382 c -0.53413,1.114979 -1.29114,1.487026 -2.00452,2.00452 l -3.875404,-1.336347 -4.276312,2.672696 z"
         id="path1197"
         sodipodi:nodetypes="csccccccccc" />
      <path
         style="color:#000000;font-style:normal;font-variant:normal;font-weight:normal;font-stretch:normal;font-size:medium;line-height:normal;font-family:sans-serif;font-variant-ligatures:normal;font-variant-position:normal;font-variant-caps:normal;font-variant-numeric:normal;font-variant-alternates:normal;font-variant-east-asian:normal;font-feature-settings:normal;font-variation-settings:normal;text-indent:0;text-align:start;text-decoration:none;text-decoration-line:none;text-decoration-style:solid;text-decoration-color:#000000;letter-spacing:normal;word-spacing:normal;text-transform:none;writing-mode:lr-tb;direction:ltr;text-orientation:mixed;dominant-baseline:auto;baseline-shift:baseline;text-anchor:start;white-space:normal;shape-padding:0;shape-margin:0;inline-size:0;clip-rule:nonzero;display:inline;overflow:visible;visibility:visible;opacity:1;isolation:auto;mix-blend-mode:normal;color-interpolation:sRGB;color-interpolation-filters:linearRGB;solid-color:#000000;solid-opacity:1;vector-effect:none;fill:#9a6214;fill-opacity:1;fill-rule:nonzero;stroke:none;stroke-width:1;stroke-linecap:butt;stroke-linejoin:miter;stroke-miterlimit:4;stroke-dasharray:none;stroke-dashoffset:0;stroke-opacity:1;color-rendering:auto;image-rendering:auto;shape-rendering:auto;text-rendering:auto;enable-background:accumulate;stop-color:#000000;stop-opacity:1"
         d="m 98.285156,70.005859 c -0.621716,0.0047 -1.240458,0.155773 -1.773437,0.570313 -1.635147,1.27178 -6.843936,3.860677 -6.843936,3.860677 l 2.970889,-0.272787 c 0,0 2.721642,-1.422822 4.488281,-2.796874 0.634934,-0.493839 1.691254,-0.400592 2.646485,-0.09766 0.955232,0.302935 2.405782,0.456566 2.405782,0.456566 l 0.40141,-0.335751 c 0,0 -1.41758,-0.729256 -2.50446,-1.07394 -0.543435,-0.172342 -1.169298,-0.315281 -1.791014,-0.310547 z"
         id="path1209"
         sodipodi:nodetypes="ssccssccsss" />
      <path
         id="path1171"
         style="fill:#000000;fill-opacity:0.0539216;stroke:none;stroke-width:0.264583px;stroke-linecap:butt;stroke-linejoin:miter;stroke-opacity:1"
         d="M 64.074124,29.454607 C 61.481573,34.846164 52.613808,52.189679 65.956772,70.6814 77.007097,85.995804 77.484901,87.501266 96.950669,86.367336 116.41645,85.233411 135.8826,73.327307 135.12664,52.16064 c -0.21933,-6.14119 -0.98096,-10.316363 -1.94976,-13.162504 -1.01794,1.125262 -3.45343,4.436255 -3.15329,10.138915 0.37797,7.181545 -3.02366,18.331772 -13.04003,25.702307 C 106.96719,82.209896 88.833147,81.947934 77.862948,70.870682 65.025222,57.907676 64.154232,32.926633 64.074124,29.454607 Z"
         sodipodi:nodetypes="cssscsssc" />
      <path
         id="path1211-0-0-7-4-3-7-5-2-3"
         style="fill:#6e3d1e;fill-opacity:0.20833297;stroke:none;stroke-width:0.264583px;stroke-linecap:butt;stroke-linejoin:miter;stroke-opacity:1"
         d="m 65.751024,26.505357 c -0.986943,1.342277 -2.047502,3.042092 -3.017385,5.065327 3.277672,0.235376 7.144054,0.413631 11.065989,1.124479 6.108255,1.107112 6.538629,-4.901787 2.423626,-5.520079 -2.726156,-0.409615 -7.137302,-0.649555 -10.47223,-0.669727 z m 63.274696,9.944614 c -2.62758,-0.03525 -4.36901,3.551896 -0.15606,6.325195 2.1432,1.41083 4.11447,2.966056 5.92677,4.453993 -0.37489,-3.706424 -0.98779,-6.454116 -1.70946,-8.487339 -0.78038,-0.621225 -1.51772,-1.181004 -2.16266,-1.634008 -0.63846,-0.448458 -1.29223,-0.649706 -1.89859,-0.657841 z m -59.278556,0.452686 c -2.612874,-0.01389 -6.260825,0.223827 -9.190654,0.538469 -0.449212,1.660292 -0.798415,3.446468 -1.003557,5.349544 2.852389,-0.148283 5.998189,-0.30249 9.261967,-0.105939 6.19655,0.373174 5.909604,-5.643885 1.75028,-5.768639 -0.258606,-0.0078 -0.532141,-0.01192 -0.818036,-0.01344 z m 0.588595,11.211718 c -2.885985,0.101352 -7.55428,0.724591 -10.873756,1.344621 0.115631,1.48105 0.320074,3.011141 0.636138,4.591452 0.03919,0.195979 0.08092,0.390221 0.121957,0.584975 2.707621,-0.316082 5.665247,-0.635394 8.744685,-0.650605 6.207699,-0.03066 5.529606,-6.01649 1.370976,-5.870443 z m 58.612961,0.07855 c -2.18357,0.06837 -3.91718,2.791532 -0.99219,6.160865 2.2851,2.632231 4.17714,5.404824 5.87613,7.872905 0.74501,-2.393463 1.18886,-4.957789 1.28984,-7.686352 -1.26766,-1.912951 -2.59479,-3.788452 -3.65559,-5.087546 -0.74022,-0.90651 -1.66375,-1.286624 -2.51819,-1.259872 z m -56.507664,8.682159 c -0.605748,-0.0286 -1.270317,0.132083 -1.934766,0.541052 -2.146326,1.321065 -5.289264,3.666802 -7.771619,5.691643 0.673799,1.714989 1.432306,3.357631 2.271697,4.920628 2.178322,-1.596964 4.568102,-3.314078 7.20731,-4.830712 4.373174,-2.513063 2.852278,-6.198661 0.227378,-6.322611 z m 53.390544,1.918229 c -2.06295,0.01622 -3.85461,2.436699 -1.49655,5.993948 1.61159,2.431166 2.93905,4.930365 4.1336,7.250721 1.31655,-1.58746 2.46994,-3.302206 3.43183,-5.140772 -1.13972,-2.387889 -2.42466,-4.860782 -3.45199,-6.516915 -0.68546,-1.105038 -1.67919,-1.594353 -2.61689,-1.586982 z m -49.074012,8.141621 c -0.68961,-0.02345 -1.442445,0.207185 -2.155423,0.773081 -1.723152,1.367673 -4.102336,3.598352 -6.161381,5.678204 1.103148,1.447771 2.294546,2.792995 3.570324,4.027146 1.534409,-1.398928 3.183996,-2.833436 4.973339,-4.167706 3.887917,-2.899119 2.236038,-6.22699 -0.226859,-6.310725 z m 43.424742,2.918685 c -1.74736,-0.02946 -3.4923,1.70942 -2.60759,5.287534 0.4215,1.704734 0.73293,3.400819 0.99425,5.049819 1.79691,-1.023067 3.49837,-2.169221 5.07824,-3.435448 -0.21513,-1.632469 -0.45839,-3.182136 -0.71675,-4.381127 -0.35608,-1.652558 -1.55259,-2.500622 -2.74815,-2.520778 z m -34.027899,5.515427 c -0.689676,0.02146 -1.425988,0.301017 -2.100649,0.912088 -1.599689,1.448914 -3.777861,3.768995 -5.672521,5.94279 1.649632,0.946603 3.391609,1.745713 5.22087,2.384351 1.007866,-0.999622 2.065525,-1.998493 3.18947,-2.956409 3.691115,-3.145867 1.825958,-6.359459 -0.63717,-6.28282 z m 23.986139,0.717786 c -1.65493,-0.0088 -3.33515,1.577094 -2.82309,5.031216 0.17454,1.17729 0.29981,2.347526 0.39584,3.499011 1.87059,-0.50851 3.70267,-1.122055 5.47822,-1.837613 -0.0605,-1.452293 -0.1515,-2.816767 -0.27957,-3.906221 -0.21254,-1.808075 -1.48423,-2.779556 -2.7714,-2.786393 z M 98.740226,78.03658 c -1.405382,-0.04677 -2.980134,1.057775 -3.574976,3.906221 -0.32168,1.540394 -0.721061,3.035554 -1.144632,4.481896 0.960988,0.01774 1.937142,4.79e-4 2.930051,-0.05736 0.987812,-0.05754 1.975374,-0.144524 2.960545,-0.257347 0.524766,-1.59344 0.987796,-3.126446 1.279506,-4.33927 0.51696,-2.14934 -0.85773,-3.681129 -2.450494,-3.734139 z" />
      <path
         style="fill:#e18413;fill-opacity:1;stroke:none;stroke-width:0.264583px;stroke-linecap:butt;stroke-linejoin:miter;stroke-opacity:1"
         d="m 70.492336,21.582014 7.684,0.935443 c 0.08886,0.08886 3.968547,-0.427921 4.610399,-1.804069 0.859913,-1.843675 -0.601356,-2.672695 -0.601356,-2.672695 l -6.080381,-0.801809 c 0,0 -3.674957,2.605878 -5.612662,4.34313 z"
         id="path1371"
         sodipodi:nodetypes="ccsccc" />
      <path
         style="fill:#ffcd59;fill-opacity:0.67222196;stroke:none;stroke-width:0.264583px;stroke-linecap:butt;stroke-linejoin:miter;stroke-opacity:1"
         d="m 82.398809,57.92485 c 0,0 2.267857,-2.645833 4.346725,-3.212798 2.078871,-0.566963 9.449406,1.795388 9.449406,1.795388 0,0 -5.291668,-0.661454 -7.370536,0.47247 -2.078868,1.133928 -6.520089,3.968749 -8.220982,6.236607 -1.700892,2.267857 1.795387,-5.291667 1.795387,-5.291667 z"
         id="path1373"
         sodipodi:nodetypes="cscssc" />
      <path
         sodipodi:nodetypes="sscsss"
         id="path1373-2"
         d="m 83.263909,41.462215 c 1.938881,0.122505 4.159216,0.524268 5.594576,1.633748 1.435359,1.109485 3.540627,4.371675 3.540627,4.371675 0,0 -3.892092,-2.833074 -5.695958,-3.711049 -1.803867,-0.877974 -5.311383,-1.451346 -7.658299,-1.622487 -2.346916,-0.171141 2.797815,-0.761685 4.219054,-0.671887 z"
         style="fill:#ffcd59;fill-opacity:0.67222196;stroke:none;stroke-width:0.209809px;stroke-linecap:butt;stroke-linejoin:miter;stroke-opacity:1" />
      <path
         style="fill:#ffcd59;fill-opacity:0.67222196;stroke:none;stroke-width:0.264583px;stroke-linecap:butt;stroke-linejoin:miter;stroke-opacity:1"
         d="m 125.14895,35.145943 c 0,0 -3.4745,2.071338 -4.00904,5.078121 -0.53454,3.00678 -0.33409,5.813113 -0.33409,5.813113 0,0 2.47225,-6.347652 3.87541,-7.817634 1.40317,-1.469983 4.54359,-2.338609 4.54359,-2.338609 -0.87739,-1.303718 -2.30883,-1.388504 -4.07587,-0.734991 z"
         id="path1390"
         sodipodi:nodetypes="cscscc" />
      <path
         sodipodi:nodetypes="cssccscc"
         id="path6760"
         d="m 92.415176,74.272322 c 0,0 13.418154,1.889879 20.032744,-2.456847 6.61458,-4.346726 10.77232,-12.662202 10.20535,-14.930059 -0.56696,-2.267858 -0.75595,-6.047618 -0.75595,-6.047618 l -2.07887,0.755951 c 0,0 -0.6852,11.986161 -7.43145,16.917216 -6.34611,4.638579 -13.924203,1.981593 -13.924203,1.981593 z"
         style="fill:url(#linearGradient6768);stroke:none;stroke-width:0.264583px;stroke-linecap:butt;stroke-linejoin:miter;stroke-opacity:1;fill-opacity:1" />
    </g>
    <text
       id="text1451"
       y="108.20412"
       x="53.772655"
       style="font-style:normal;font-weight:normal;font-size:20.9516px;line-height:1.25;font-family:sans-serif;fill:#000000;fill-opacity:1;stroke:none;stroke-width:0.523792"
       xml:space="preserve"><tspan
         style="font-style:normal;font-variant:normal;font-weight:bold;font-stretch:normal;font-family:Quicksand;-inkscape-font-specification:'Quicksand Bold';stroke-width:0.523792"
         y="108.20412"
         x="53.772655"
         id="tspan1449"
         sodipodi:role="line">FireKitty</tspan></text>
  </g>
  <script
     type="text/javascript"
     id="mesh_polyfill">
!function(){const t=&quot;http://www.w3.org/2000/svg&quot;,e=&quot;http://www.w3.org/1999/xlink&quot;,s=&quot;http://www.w3.org/1999/xhtml&quot;,r=2;if(document.createElementNS(t,&quot;meshgradient&quot;).x)return;const n=(t,e,s,r)=&gt;{let n=new x(.5*(e.x+s.x),.5*(e.y+s.y)),o=new x(.5*(t.x+e.x),.5*(t.y+e.y)),i=new x(.5*(s.x+r.x),.5*(s.y+r.y)),a=new x(.5*(n.x+o.x),.5*(n.y+o.y)),h=new x(.5*(n.x+i.x),.5*(n.y+i.y)),l=new x(.5*(a.x+h.x),.5*(a.y+h.y));return[[t,o,a,l],[l,h,i,r]]},o=t=&gt;{let e=t[0].distSquared(t[1]),s=t[2].distSquared(t[3]),r=.25*t[0].distSquared(t[2]),n=.25*t[1].distSquared(t[3]),o=e&gt;s?e:s,i=r&gt;n?r:n;return 18*(o&gt;i?o:i)},i=(t,e)=&gt;Math.sqrt(t.distSquared(e)),a=(t,e)=&gt;t.scale(2/3).add(e.scale(1/3)),h=t=&gt;{let e,s,r,n,o,i,a,h=new g;return t.match(/(\w+\(\s*[^)]+\))+/g).forEach(t=&gt;{let l=t.match(/[\w.-]+/g),d=l.shift();switch(d){case&quot;translate&quot;:2===l.length?e=new g(1,0,0,1,l[0],l[1]):(console.error(&quot;mesh.js: translate does not have 2 arguments!&quot;),e=new g(1,0,0,1,0,0)),h=h.append(e);break;case&quot;scale&quot;:1===l.length?s=new g(l[0],0,0,l[0],0,0):2===l.length?s=new g(l[0],0,0,l[1],0,0):(console.error(&quot;mesh.js: scale does not have 1 or 2 arguments!&quot;),s=new g(1,0,0,1,0,0)),h=h.append(s);break;case&quot;rotate&quot;:if(3===l.length&amp;&amp;(e=new g(1,0,0,1,l[1],l[2]),h=h.append(e)),l[0]){r=l[0]*Math.PI/180;let t=Math.cos(r),e=Math.sin(r);Math.abs(t)&lt;1e-16&amp;&amp;(t=0),Math.abs(e)&lt;1e-16&amp;&amp;(e=0),a=new g(t,e,-e,t,0,0),h=h.append(a)}else console.error(&quot;math.js: No argument to rotate transform!&quot;);3===l.length&amp;&amp;(e=new g(1,0,0,1,-l[1],-l[2]),h=h.append(e));break;case&quot;skewX&quot;:l[0]?(r=l[0]*Math.PI/180,n=Math.tan(r),o=new g(1,0,n,1,0,0),h=h.append(o)):console.error(&quot;math.js: No argument to skewX transform!&quot;);break;case&quot;skewY&quot;:l[0]?(r=l[0]*Math.PI/180,n=Math.tan(r),i=new g(1,n,0,1,0,0),h=h.append(i)):console.error(&quot;math.js: No argument to skewY transform!&quot;);break;case&quot;matrix&quot;:6===l.length?h=h.append(new g(...l)):console.error(&quot;math.js: Incorrect number of arguments for matrix!&quot;);break;default:console.error(&quot;mesh.js: Unhandled transform type: &quot;+d)}}),h},l=t=&gt;{let e=[],s=t.split(/[ ,]+/);for(let t=0,r=s.length-1;t&lt;r;t+=2)e.push(new x(parseFloat(s[t]),parseFloat(s[t+1])));return e},d=(t,e)=&gt;{for(let s in e)t.setAttribute(s,e[s])},c=(t,e,s,r,n)=&gt;{let o,i,a=[0,0,0,0];for(let h=0;h&lt;3;++h)e[h]&lt;t[h]&amp;&amp;e[h]&lt;s[h]||t[h]&lt;e[h]&amp;&amp;s[h]&lt;e[h]?a[h]=0:(a[h]=.5*((e[h]-t[h])/r+(s[h]-e[h])/n),o=Math.abs(3*(e[h]-t[h])/r),i=Math.abs(3*(s[h]-e[h])/n),a[h]&gt;o?a[h]=o:a[h]&gt;i&amp;&amp;(a[h]=i));return a},u=[[1,0,0,0,0,0,0,0,0,0,0,0,0,0,0,0],[0,0,0,0,1,0,0,0,0,0,0,0,0,0,0,0],[-3,3,0,0,-2,-1,0,0,0,0,0,0,0,0,0,0],[2,-2,0,0,1,1,0,0,0,0,0,0,0,0,0,0],[0,0,0,0,0,0,0,0,1,0,0,0,0,0,0,0],[0,0,0,0,0,0,0,0,0,0,0,0,1,0,0,0],[0,0,0,0,0,0,0,0,-3,3,0,0,-2,-1,0,0],[0,0,0,0,0,0,0,0,2,-2,0,0,1,1,0,0],[-3,0,3,0,0,0,0,0,-2,0,-1,0,0,0,0,0],[0,0,0,0,-3,0,3,0,0,0,0,0,-2,0,-1,0],[9,-9,-9,9,6,3,-6,-3,6,-6,3,-3,4,2,2,1],[-6,6,6,-6,-3,-3,3,3,-4,4,-2,2,-2,-2,-1,-1],[2,0,-2,0,0,0,0,0,1,0,1,0,0,0,0,0],[0,0,0,0,2,0,-2,0,0,0,0,0,1,0,1,0],[-6,6,6,-6,-4,-2,4,2,-3,3,-3,3,-2,-1,-2,-1],[4,-4,-4,4,2,2,-2,-2,2,-2,2,-2,1,1,1,1]],f=t=&gt;{let e=[];for(let s=0;s&lt;16;++s){e[s]=0;for(let r=0;r&lt;16;++r)e[s]+=u[s][r]*t[r]}return e},p=(t,e,s)=&gt;{const r=e*e,n=s*s,o=e*e*e,i=s*s*s;return t[0]+t[1]*e+t[2]*r+t[3]*o+t[4]*s+t[5]*s*e+t[6]*s*r+t[7]*s*o+t[8]*n+t[9]*n*e+t[10]*n*r+t[11]*n*o+t[12]*i+t[13]*i*e+t[14]*i*r+t[15]*i*o},y=t=&gt;{let e=[],s=[],r=[];for(let s=0;s&lt;4;++s)e[s]=[],e[s][0]=n(t[0][s],t[1][s],t[2][s],t[3][s]),e[s][1]=[],e[s][1].push(...n(...e[s][0][0])),e[s][1].push(...n(...e[s][0][1])),e[s][2]=[],e[s][2].push(...n(...e[s][1][0])),e[s][2].push(...n(...e[s][1][1])),e[s][2].push(...n(...e[s][1][2])),e[s][2].push(...n(...e[s][1][3]));for(let t=0;t&lt;8;++t){s[t]=[];for(let r=0;r&lt;4;++r)s[t][r]=[],s[t][r][0]=n(e[0][2][t][r],e[1][2][t][r],e[2][2][t][r],e[3][2][t][r]),s[t][r][1]=[],s[t][r][1].push(...n(...s[t][r][0][0])),s[t][r][1].push(...n(...s[t][r][0][1])),s[t][r][2]=[],s[t][r][2].push(...n(...s[t][r][1][0])),s[t][r][2].push(...n(...s[t][r][1][1])),s[t][r][2].push(...n(...s[t][r][1][2])),s[t][r][2].push(...n(...s[t][r][1][3]))}for(let t=0;t&lt;8;++t){r[t]=[];for(let e=0;e&lt;8;++e)r[t][e]=[],r[t][e][0]=s[t][0][2][e],r[t][e][1]=s[t][1][2][e],r[t][e][2]=s[t][2][2][e],r[t][e][3]=s[t][3][2][e]}return r};class x{constructor(t,e){this.x=t||0,this.y=e||0}toString(){return`(x=${this.x}, y=${this.y})`}clone(){return new x(this.x,this.y)}add(t){return new x(this.x+t.x,this.y+t.y)}scale(t){return void 0===t.x?new x(this.x*t,this.y*t):new x(this.x*t.x,this.y*t.y)}distSquared(t){let e=this.x-t.x,s=this.y-t.y;return e*e+s*s}transform(t){let e=this.x*t.a+this.y*t.c+t.e,s=this.x*t.b+this.y*t.d+t.f;return new x(e,s)}}class g{constructor(t,e,s,r,n,o){void 0===t?(this.a=1,this.b=0,this.c=0,this.d=1,this.e=0,this.f=0):(this.a=t,this.b=e,this.c=s,this.d=r,this.e=n,this.f=o)}toString(){return`affine: ${this.a} ${this.c} ${this.e} \n       ${this.b} ${this.d} ${this.f}`}append(t){t instanceof g||console.error(&quot;mesh.js: argument to Affine.append is not affine!&quot;);let e=this.a*t.a+this.c*t.b,s=this.b*t.a+this.d*t.b,r=this.a*t.c+this.c*t.d,n=this.b*t.c+this.d*t.d,o=this.a*t.e+this.c*t.f+this.e,i=this.b*t.e+this.d*t.f+this.f;return new g(e,s,r,n,o,i)}}class w{constructor(t,e){this.nodes=t,this.colors=e}paintCurve(t,e){if(o(this.nodes)&gt;r){const s=n(...this.nodes);let r=[[],[]],o=[[],[]];for(let t=0;t&lt;4;++t)r[0][t]=this.colors[0][t],r[1][t]=(this.colors[0][t]+this.colors[1][t])/2,o[0][t]=r[1][t],o[1][t]=this.colors[1][t];let i=new w(s[0],r),a=new w(s[1],o);i.paintCurve(t,e),a.paintCurve(t,e)}else{let s=Math.round(this.nodes[0].x);if(s&gt;=0&amp;&amp;s&lt;e){let r=4*(~~this.nodes[0].y*e+s);t[r]=Math.round(this.colors[0][0]),t[r+1]=Math.round(this.colors[0][1]),t[r+2]=Math.round(this.colors[0][2]),t[r+3]=Math.round(this.colors[0][3])}}}}class m{constructor(t,e){this.nodes=t,this.colors=e}split(){let t=[[],[],[],[]],e=[[],[],[],[]],s=[[[],[]],[[],[]]],r=[[[],[]],[[],[]]];for(let s=0;s&lt;4;++s){const r=n(this.nodes[0][s],this.nodes[1][s],this.nodes[2][s],this.nodes[3][s]);t[0][s]=r[0][0],t[1][s]=r[0][1],t[2][s]=r[0][2],t[3][s]=r[0][3],e[0][s]=r[1][0],e[1][s]=r[1][1],e[2][s]=r[1][2],e[3][s]=r[1][3]}for(let t=0;t&lt;4;++t)s[0][0][t]=this.colors[0][0][t],s[0][1][t]=this.colors[0][1][t],s[1][0][t]=(this.colors[0][0][t]+this.colors[1][0][t])/2,s[1][1][t]=(this.colors[0][1][t]+this.colors[1][1][t])/2,r[0][0][t]=s[1][0][t],r[0][1][t]=s[1][1][t],r[1][0][t]=this.colors[1][0][t],r[1][1][t]=this.colors[1][1][t];return[new m(t,s),new m(e,r)]}paint(t,e){let s,n=!1;for(let t=0;t&lt;4;++t)if((s=o([this.nodes[0][t],this.nodes[1][t],this.nodes[2][t],this.nodes[3][t]]))&gt;r){n=!0;break}if(n){let s=this.split();s[0].paint(t,e),s[1].paint(t,e)}else{new w([...this.nodes[0]],[...this.colors[0]]).paintCurve(t,e)}}}class b{constructor(t){this.readMesh(t),this.type=t.getAttribute(&quot;type&quot;)||&quot;bilinear&quot;}readMesh(t){let e=[[]],s=[[]],r=Number(t.getAttribute(&quot;x&quot;)),n=Number(t.getAttribute(&quot;y&quot;));e[0][0]=new x(r,n);let o=t.children;for(let t=0,r=o.length;t&lt;r;++t){e[3*t+1]=[],e[3*t+2]=[],e[3*t+3]=[],s[t+1]=[];let r=o[t].children;for(let n=0,o=r.length;n&lt;o;++n){let o=r[n].children;for(let r=0,i=o.length;r&lt;i;++r){let i=r;0!==t&amp;&amp;++i;let h,d=o[r].getAttribute(&quot;path&quot;),c=&quot;l&quot;;null!=d&amp;&amp;(c=(h=d.match(/\s*([lLcC])\s*(.*)/))[1]);let u=l(h[2]);switch(c){case&quot;l&quot;:0===i?(e[3*t][3*n+3]=u[0].add(e[3*t][3*n]),e[3*t][3*n+1]=a(e[3*t][3*n],e[3*t][3*n+3]),e[3*t][3*n+2]=a(e[3*t][3*n+3],e[3*t][3*n])):1===i?(e[3*t+3][3*n+3]=u[0].add(e[3*t][3*n+3]),e[3*t+1][3*n+3]=a(e[3*t][3*n+3],e[3*t+3][3*n+3]),e[3*t+2][3*n+3]=a(e[3*t+3][3*n+3],e[3*t][3*n+3])):2===i?(0===n&amp;&amp;(e[3*t+3][3*n+0]=u[0].add(e[3*t+3][3*n+3])),e[3*t+3][3*n+1]=a(e[3*t+3][3*n],e[3*t+3][3*n+3]),e[3*t+3][3*n+2]=a(e[3*t+3][3*n+3],e[3*t+3][3*n])):(e[3*t+1][3*n]=a(e[3*t][3*n],e[3*t+3][3*n]),e[3*t+2][3*n]=a(e[3*t+3][3*n],e[3*t][3*n]));break;case&quot;L&quot;:0===i?(e[3*t][3*n+3]=u[0],e[3*t][3*n+1]=a(e[3*t][3*n],e[3*t][3*n+3]),e[3*t][3*n+2]=a(e[3*t][3*n+3],e[3*t][3*n])):1===i?(e[3*t+3][3*n+3]=u[0],e[3*t+1][3*n+3]=a(e[3*t][3*n+3],e[3*t+3][3*n+3]),e[3*t+2][3*n+3]=a(e[3*t+3][3*n+3],e[3*t][3*n+3])):2===i?(0===n&amp;&amp;(e[3*t+3][3*n+0]=u[0]),e[3*t+3][3*n+1]=a(e[3*t+3][3*n],e[3*t+3][3*n+3]),e[3*t+3][3*n+2]=a(e[3*t+3][3*n+3],e[3*t+3][3*n])):(e[3*t+1][3*n]=a(e[3*t][3*n],e[3*t+3][3*n]),e[3*t+2][3*n]=a(e[3*t+3][3*n],e[3*t][3*n]));break;case&quot;c&quot;:0===i?(e[3*t][3*n+1]=u[0].add(e[3*t][3*n]),e[3*t][3*n+2]=u[1].add(e[3*t][3*n]),e[3*t][3*n+3]=u[2].add(e[3*t][3*n])):1===i?(e[3*t+1][3*n+3]=u[0].add(e[3*t][3*n+3]),e[3*t+2][3*n+3]=u[1].add(e[3*t][3*n+3]),e[3*t+3][3*n+3]=u[2].add(e[3*t][3*n+3])):2===i?(e[3*t+3][3*n+2]=u[0].add(e[3*t+3][3*n+3]),e[3*t+3][3*n+1]=u[1].add(e[3*t+3][3*n+3]),0===n&amp;&amp;(e[3*t+3][3*n+0]=u[2].add(e[3*t+3][3*n+3]))):(e[3*t+2][3*n]=u[0].add(e[3*t+3][3*n]),e[3*t+1][3*n]=u[1].add(e[3*t+3][3*n]));break;case&quot;C&quot;:0===i?(e[3*t][3*n+1]=u[0],e[3*t][3*n+2]=u[1],e[3*t][3*n+3]=u[2]):1===i?(e[3*t+1][3*n+3]=u[0],e[3*t+2][3*n+3]=u[1],e[3*t+3][3*n+3]=u[2]):2===i?(e[3*t+3][3*n+2]=u[0],e[3*t+3][3*n+1]=u[1],0===n&amp;&amp;(e[3*t+3][3*n+0]=u[2])):(e[3*t+2][3*n]=u[0],e[3*t+1][3*n]=u[1]);break;default:console.error(&quot;mesh.js: &quot;+c+&quot; invalid path type.&quot;)}if(0===t&amp;&amp;0===n||r&gt;0){let e=window.getComputedStyle(o[r]).stopColor.match(/^rgb\s*\(\s*(\d+)\s*,\s*(\d+)\s*,\s*(\d+)\s*\)$/i),a=window.getComputedStyle(o[r]).stopOpacity,h=255;a&amp;&amp;(h=Math.floor(255*a)),e&amp;&amp;(0===i?(s[t][n]=[],s[t][n][0]=Math.floor(e[1]),s[t][n][1]=Math.floor(e[2]),s[t][n][2]=Math.floor(e[3]),s[t][n][3]=h):1===i?(s[t][n+1]=[],s[t][n+1][0]=Math.floor(e[1]),s[t][n+1][1]=Math.floor(e[2]),s[t][n+1][2]=Math.floor(e[3]),s[t][n+1][3]=h):2===i?(s[t+1][n+1]=[],s[t+1][n+1][0]=Math.floor(e[1]),s[t+1][n+1][1]=Math.floor(e[2]),s[t+1][n+1][2]=Math.floor(e[3]),s[t+1][n+1][3]=h):3===i&amp;&amp;(s[t+1][n]=[],s[t+1][n][0]=Math.floor(e[1]),s[t+1][n][1]=Math.floor(e[2]),s[t+1][n][2]=Math.floor(e[3]),s[t+1][n][3]=h))}}e[3*t+1][3*n+1]=new x,e[3*t+1][3*n+2]=new x,e[3*t+2][3*n+1]=new x,e[3*t+2][3*n+2]=new x,e[3*t+1][3*n+1].x=(-4*e[3*t][3*n].x+6*(e[3*t][3*n+1].x+e[3*t+1][3*n].x)+-2*(e[3*t][3*n+3].x+e[3*t+3][3*n].x)+3*(e[3*t+3][3*n+1].x+e[3*t+1][3*n+3].x)+-1*e[3*t+3][3*n+3].x)/9,e[3*t+1][3*n+2].x=(-4*e[3*t][3*n+3].x+6*(e[3*t][3*n+2].x+e[3*t+1][3*n+3].x)+-2*(e[3*t][3*n].x+e[3*t+3][3*n+3].x)+3*(e[3*t+3][3*n+2].x+e[3*t+1][3*n].x)+-1*e[3*t+3][3*n].x)/9,e[3*t+2][3*n+1].x=(-4*e[3*t+3][3*n].x+6*(e[3*t+3][3*n+1].x+e[3*t+2][3*n].x)+-2*(e[3*t+3][3*n+3].x+e[3*t][3*n].x)+3*(e[3*t][3*n+1].x+e[3*t+2][3*n+3].x)+-1*e[3*t][3*n+3].x)/9,e[3*t+2][3*n+2].x=(-4*e[3*t+3][3*n+3].x+6*(e[3*t+3][3*n+2].x+e[3*t+2][3*n+3].x)+-2*(e[3*t+3][3*n].x+e[3*t][3*n+3].x)+3*(e[3*t][3*n+2].x+e[3*t+2][3*n].x)+-1*e[3*t][3*n].x)/9,e[3*t+1][3*n+1].y=(-4*e[3*t][3*n].y+6*(e[3*t][3*n+1].y+e[3*t+1][3*n].y)+-2*(e[3*t][3*n+3].y+e[3*t+3][3*n].y)+3*(e[3*t+3][3*n+1].y+e[3*t+1][3*n+3].y)+-1*e[3*t+3][3*n+3].y)/9,e[3*t+1][3*n+2].y=(-4*e[3*t][3*n+3].y+6*(e[3*t][3*n+2].y+e[3*t+1][3*n+3].y)+-2*(e[3*t][3*n].y+e[3*t+3][3*n+3].y)+3*(e[3*t+3][3*n+2].y+e[3*t+1][3*n].y)+-1*e[3*t+3][3*n].y)/9,e[3*t+2][3*n+1].y=(-4*e[3*t+3][3*n].y+6*(e[3*t+3][3*n+1].y+e[3*t+2][3*n].y)+-2*(e[3*t+3][3*n+3].y+e[3*t][3*n].y)+3*(e[3*t][3*n+1].y+e[3*t+2][3*n+3].y)+-1*e[3*t][3*n+3].y)/9,e[3*t+2][3*n+2].y=(-4*e[3*t+3][3*n+3].y+6*(e[3*t+3][3*n+2].y+e[3*t+2][3*n+3].y)+-2*(e[3*t+3][3*n].y+e[3*t][3*n+3].y)+3*(e[3*t][3*n+2].y+e[3*t+2][3*n].y)+-1*e[3*t][3*n].y)/9}}this.nodes=e,this.colors=s}paintMesh(t,e){let s=(this.nodes.length-1)/3,r=(this.nodes[0].length-1)/3;if(&quot;bilinear&quot;===this.type||s&lt;2||r&lt;2){let n;for(let o=0;o&lt;s;++o)for(let s=0;s&lt;r;++s){let r=[];for(let t=3*o,e=3*o+4;t&lt;e;++t)r.push(this.nodes[t].slice(3*s,3*s+4));let i=[];i.push(this.colors[o].slice(s,s+2)),i.push(this.colors[o+1].slice(s,s+2)),(n=new m(r,i)).paint(t,e)}}else{let n,o,a,h,l,d,u;const x=s,g=r;s++,r++;let w=new Array(s);for(let t=0;t&lt;s;++t){w[t]=new Array(r);for(let e=0;e&lt;r;++e)w[t][e]=[],w[t][e][0]=this.nodes[3*t][3*e],w[t][e][1]=this.colors[t][e]}for(let t=0;t&lt;s;++t)for(let e=0;e&lt;r;++e)0!==t&amp;&amp;t!==x&amp;&amp;(n=i(w[t-1][e][0],w[t][e][0]),o=i(w[t+1][e][0],w[t][e][0]),w[t][e][2]=c(w[t-1][e][1],w[t][e][1],w[t+1][e][1],n,o)),0!==e&amp;&amp;e!==g&amp;&amp;(n=i(w[t][e-1][0],w[t][e][0]),o=i(w[t][e+1][0],w[t][e][0]),w[t][e][3]=c(w[t][e-1][1],w[t][e][1],w[t][e+1][1],n,o));for(let t=0;t&lt;r;++t){w[0][t][2]=[],w[x][t][2]=[];for(let e=0;e&lt;4;++e)n=i(w[1][t][0],w[0][t][0]),o=i(w[x][t][0],w[x-1][t][0]),w[0][t][2][e]=n&gt;0?2*(w[1][t][1][e]-w[0][t][1][e])/n-w[1][t][2][e]:0,w[x][t][2][e]=o&gt;0?2*(w[x][t][1][e]-w[x-1][t][1][e])/o-w[x-1][t][2][e]:0}for(let t=0;t&lt;s;++t){w[t][0][3]=[],w[t][g][3]=[];for(let e=0;e&lt;4;++e)n=i(w[t][1][0],w[t][0][0]),o=i(w[t][g][0],w[t][g-1][0]),w[t][0][3][e]=n&gt;0?2*(w[t][1][1][e]-w[t][0][1][e])/n-w[t][1][3][e]:0,w[t][g][3][e]=o&gt;0?2*(w[t][g][1][e]-w[t][g-1][1][e])/o-w[t][g-1][3][e]:0}for(let s=0;s&lt;x;++s)for(let r=0;r&lt;g;++r){let n=i(w[s][r][0],w[s+1][r][0]),o=i(w[s][r+1][0],w[s+1][r+1][0]),c=i(w[s][r][0],w[s][r+1][0]),x=i(w[s+1][r][0],w[s+1][r+1][0]),g=[[],[],[],[]];for(let t=0;t&lt;4;++t){(d=[])[0]=w[s][r][1][t],d[1]=w[s+1][r][1][t],d[2]=w[s][r+1][1][t],d[3]=w[s+1][r+1][1][t],d[4]=w[s][r][2][t]*n,d[5]=w[s+1][r][2][t]*n,d[6]=w[s][r+1][2][t]*o,d[7]=w[s+1][r+1][2][t]*o,d[8]=w[s][r][3][t]*c,d[9]=w[s+1][r][3][t]*x,d[10]=w[s][r+1][3][t]*c,d[11]=w[s+1][r+1][3][t]*x,d[12]=0,d[13]=0,d[14]=0,d[15]=0,u=f(d);for(let e=0;e&lt;9;++e){g[t][e]=[];for(let s=0;s&lt;9;++s)g[t][e][s]=p(u,e/8,s/8),g[t][e][s]&gt;255?g[t][e][s]=255:g[t][e][s]&lt;0&amp;&amp;(g[t][e][s]=0)}}h=[];for(let t=3*s,e=3*s+4;t&lt;e;++t)h.push(this.nodes[t].slice(3*r,3*r+4));l=y(h);for(let s=0;s&lt;8;++s)for(let r=0;r&lt;8;++r)(a=new m(l[s][r],[[[g[0][s][r],g[1][s][r],g[2][s][r],g[3][s][r]],[g[0][s][r+1],g[1][s][r+1],g[2][s][r+1],g[3][s][r+1]]],[[g[0][s+1][r],g[1][s+1][r],g[2][s+1][r],g[3][s+1][r]],[g[0][s+1][r+1],g[1][s+1][r+1],g[2][s+1][r+1],g[3][s+1][r+1]]]])).paint(t,e)}}}transform(t){if(t instanceof x)for(let e=0,s=this.nodes.length;e&lt;s;++e)for(let s=0,r=this.nodes[0].length;s&lt;r;++s)this.nodes[e][s]=this.nodes[e][s].add(t);else if(t instanceof g)for(let e=0,s=this.nodes.length;e&lt;s;++e)for(let s=0,r=this.nodes[0].length;s&lt;r;++s)this.nodes[e][s]=this.nodes[e][s].transform(t)}scale(t){for(let e=0,s=this.nodes.length;e&lt;s;++e)for(let s=0,r=this.nodes[0].length;s&lt;r;++s)this.nodes[e][s]=this.nodes[e][s].scale(t)}}document.querySelectorAll(&quot;rect,circle,ellipse,path,text&quot;).forEach((r,n)=&gt;{let o=r.getAttribute(&quot;id&quot;);o||(o=&quot;patchjs_shape&quot;+n,r.setAttribute(&quot;id&quot;,o));const i=r.style.fill.match(/^url\(\s*&quot;?\s*#([^\s&quot;]+)&quot;?\s*\)/),a=r.style.stroke.match(/^url\(\s*&quot;?\s*#([^\s&quot;]+)&quot;?\s*\)/);if(i&amp;&amp;i[1]){const a=document.getElementById(i[1]);if(a&amp;&amp;&quot;meshgradient&quot;===a.nodeName){const i=r.getBBox();let l=document.createElementNS(s,&quot;canvas&quot;);d(l,{width:i.width,height:i.height});const c=l.getContext(&quot;2d&quot;);let u=c.createImageData(i.width,i.height);const f=new b(a);&quot;objectBoundingBox&quot;===a.getAttribute(&quot;gradientUnits&quot;)&amp;&amp;f.scale(new x(i.width,i.height));const p=a.getAttribute(&quot;gradientTransform&quot;);null!=p&amp;&amp;f.transform(h(p)),&quot;userSpaceOnUse&quot;===a.getAttribute(&quot;gradientUnits&quot;)&amp;&amp;f.transform(new x(-i.x,-i.y)),f.paintMesh(u.data,l.width),c.putImageData(u,0,0);const y=document.createElementNS(t,&quot;image&quot;);d(y,{width:i.width,height:i.height,x:i.x,y:i.y});let g=l.toDataURL();y.setAttributeNS(e,&quot;xlink:href&quot;,g),r.parentNode.insertBefore(y,r),r.style.fill=&quot;none&quot;;const w=document.createElementNS(t,&quot;use&quot;);w.setAttributeNS(e,&quot;xlink:href&quot;,&quot;#&quot;+o);const m=&quot;patchjs_clip&quot;+n,M=document.createElementNS(t,&quot;clipPath&quot;);M.setAttribute(&quot;id&quot;,m),M.appendChild(w),r.parentElement.insertBefore(M,r),y.setAttribute(&quot;clip-path&quot;,&quot;url(#&quot;+m+&quot;)&quot;),u=null,l=null,g=null}}if(a&amp;&amp;a[1]){const o=document.getElementById(a[1]);if(o&amp;&amp;&quot;meshgradient&quot;===o.nodeName){const i=parseFloat(r.style.strokeWidth.slice(0,-2))*(parseFloat(r.style.strokeMiterlimit)||parseFloat(r.getAttribute(&quot;stroke-miterlimit&quot;))||1),a=r.getBBox(),l=Math.trunc(a.width+i),c=Math.trunc(a.height+i),u=Math.trunc(a.x-i/2),f=Math.trunc(a.y-i/2);let p=document.createElementNS(s,&quot;canvas&quot;);d(p,{width:l,height:c});const y=p.getContext(&quot;2d&quot;);let g=y.createImageData(l,c);const w=new b(o);&quot;objectBoundingBox&quot;===o.getAttribute(&quot;gradientUnits&quot;)&amp;&amp;w.scale(new x(l,c));const m=o.getAttribute(&quot;gradientTransform&quot;);null!=m&amp;&amp;w.transform(h(m)),&quot;userSpaceOnUse&quot;===o.getAttribute(&quot;gradientUnits&quot;)&amp;&amp;w.transform(new x(-u,-f)),w.paintMesh(g.data,p.width),y.putImageData(g,0,0);const M=document.createElementNS(t,&quot;image&quot;);d(M,{width:l,height:c,x:0,y:0});let S=p.toDataURL();M.setAttributeNS(e,&quot;xlink:href&quot;,S);const k=&quot;pattern_clip&quot;+n,A=document.createElementNS(t,&quot;pattern&quot;);d(A,{id:k,patternUnits:&quot;userSpaceOnUse&quot;,width:l,height:c,x:u,y:f}),A.appendChild(M),o.parentNode.appendChild(A),r.style.stroke=&quot;url(#&quot;+k+&quot;)&quot;,g=null,p=null,S=null}}})}();
</script>
</svg>
